<?xml version="1.0" encoding="UTF-8"?>
<svg width="379px" height="55px" viewBox="0 0 379 55" version="1.1" xmlns="http://www.w3.org/2000/svg" xmlns:xlink="http://www.w3.org/1999/xlink">
    <!-- Generator: Sketch 43.2 (39069) - http://www.bohemiancoding.com/sketch -->
    <title>LuxRota</title>
    <desc>Created with Sketch.</desc>
    <defs></defs>
    <g id="Page-1" stroke="none" stroke-width="1" fill="none" fill-rule="evenodd">
        <g id="LuxRota" fill-rule="nonzero" fill="#000000">
            <g id="Overlays" transform="translate(180.680000, 0.781680)">
                <path d="M35.37,39.987461 L31.1727,51.618341 L0.32144,51.618341 L0.33294,50.898341 L1.24383,50.899741 C3.76408,50.899741 5.80836,48.880141 5.85589,46.372381 L5.85589,6.4693 C5.80769,3.960821 3.76264,1.94122 1.24239,1.94122 L0.3315,1.94262 L0.32,1.22262 L5.85591,1.22262 L10.53853,1.21832 L16.07371,1.22262 L16.06221,1.94262 L15.15132,1.94122 C12.63107,1.94122 10.58607,3.960821 10.53855,6.4693 L10.53855,49.41586 L21.86581,49.41586 C29.4964,49.41586 32.42637,45.46954 34.64923,39.98746 L35.37,39.987461 Z" id="Path" transform="translate(17.845000, 26.418331) scale(-1, 1) rotate(-180.000000) translate(-17.845000, -26.418331) "></path>
                <path d="M157.49089,51.418802 L143,51.412321 L143,50.692321 L143.63289,50.692321 C145.82747,50.692321 148.47926,49.3992 149.93944,46.2312 L167.25276,7.416 C167.25276,7.416 169.91895,1.58256 169.91895,0 L170.56768,0 L190.80064,46.1772 C192.25722,49.384801 194.92125,50.692321 197.15399,50.692321 L197.73,50.692321 L197.73,51.412321 L181.51685,51.418821 L181.51685,50.698821 L182.14974,50.698821 C184.00736,50.698821 185.91754,49.084581 184.87065,46.206741 L169.78431,8.485941 L154.12197,46.200982 C153.07004,49.082422 154.99894,50.698822 156.858,50.698822 L157.49089,50.698822 L157.49089,51.418802 Z" id="Path-Copy-2"></path>
            </g>
            <path d="M247.87896,1.37368 C263.19048,1.37368 273.75792,11.8576 273.75792,27.5824 C273.75792,43.3072 263.19048,53.78968 247.87896,53.78968 C232.56744,53.78968 222,43.3072 222,27.5824 C222,11.8576 232.56744,1.37368 247.87896,1.37368 Z M247.87896,51.63544 C260.09448,51.63544 268.2384,42.01408 268.2384,27.5824 C268.2384,13.15 260.09448,3.52864 247.87896,3.52864 C235.66344,3.52864 227.51952,13.15 227.51952,27.5824 C227.51952,42.01408 235.66344,51.63544 247.87896,51.63544 Z M289.60696,2.30968 C286.49512,2.29308 282.28456,1.56808 280.936,1 L280.936,10.05184 L281.66032,10.04104 L281.65932,8.75728 C281.65932,6.44824 283.48092,4.56832 285.76548,4.46824 L299.421,4.46824 L299.421,47.65312 C299.313,50.10616 297.2934,52.06312 294.813,52.06312 L293.9022,52.06212 L293.89,52.78212 L309.65224,52.78212 L309.64074,52.06212 L308.72994,52.06312 C306.22938,52.06312 304.19682,50.07448 304.11978,47.59336 L304.11978,4.46824 L317.76666,4.46824 C320.05122,4.56832 321.87282,6.44824 321.87282,8.75728 L321.87182,10.04104 L322.59614,10.05184 L322.59614,1 C321.24758,1.56808 317.03702,2.29312 313.92518,2.30968 L289.60696,2.30968 Z" id="LVX-ROTA-Copy"></path>
            <g id="Under-LVX" transform="translate(0.680000, 2.781680)">
                <path d="M35.046638,38.7691211 L30.849759,50.4000001 L0.00143921,50.4000001 L0.01295951,49.6800001 L0.923759,49.6814001 C3.443759,49.6814001 5.487839,47.6618001 5.5353592,45.1540401 L5.5353592,5.25095968 C5.4871192,2.74247988 3.4423198,0.72287968 0.9223198,0.72287968 L0.01152026,0.72431998 L0,0.00432 L5.5353603,0.00432 L10.21752,0 L15.75216,0.00432 L15.74064,0.72431998 L14.82984,0.72287998 C12.30984,0.72287998 10.265041,2.74248018 10.21752,5.25095998 L10.21752,48.1975191 L21.54376,48.1975191 C29.1736,48.1975191 32.10328,44.2511991 34.32592,38.7691191 L35.046638,38.7691211 Z" id="path888"></path>
                <path d="M76.23864,0 L90.72936,0.006481 L90.72936,0.72648086 L90.09648,0.72648086 C87.90192,0.72648086 85.25016,2.01960136 83.79,5.18760136 L66.47688,44.0028016 C66.47688,44.0028016 63.81072,49.8362426 63.81072,51.4188016 L63.162,51.4188016 L42.929281,5.24160136 C41.47272,2.03400106 38.80872,0.72648086 36.576,0.72648086 L36,0.72648086 L36,0.00648083 L52.21296,8.3e-07 L52.21296,0.72000106 L51.58008,0.72000106 C49.72248,0.72000106 47.81232,2.33424096 48.8592,5.21208106 L63.94536,42.9328806 L79.60752,5.21784006 C80.65944,2.33639976 78.73056,0.71999996 76.87152,0.71999996 L76.23864,0.71999996 L76.23864,0 Z" id="path890"></path>
                <path d="M142.1644,49.6807196 C139.14904,49.6807196 136.45408,47.7151196 134.91976,45.5003996 L120.93376,23.5303196 L133.55176,4.9528795 C135.0832,2.7302399 137.78464,0.7214403 140.80864,0.7214403 L141.81664,0.7214403 L141.81664,0 L125.58208,0 L125.58208,0.7214403 L126.48928,0.7214403 C128.45272,0.7214403 130.14616,3.1456802 128.9416,5.1890405 L128.9476,5.1890405 L119.12656,20.6920806 L109.20568,5.1084009 C108.09256,3.0816013 109.83352,0.7185608 111.77176,0.7185608 L112.67824,0.7185608 L112.67824,0.0007207 L95.210321,0.0007207 L95.210321,0.7185608 L96.218321,0.7185608 C99.241601,0.7185608 101.94304,2.7316813 103.4752,4.9543209 L103.4782,4.9543209 L116.11492,24.8932806 L102.32692,45.4370406 C100.79476,47.6596806 98.02132,49.6807206 94.99732,49.6807206 L94,49.6807206 L94,50.3906406 L110.3296,50.3906406 L110.3296,49.6807206 L109.4224,49.6807206 C107.47336,49.6807206 105.6532,47.2809606 106.87432,45.2469606 L117.9472,27.7848006 L129.04312,45.2930406 C130.1944,47.3270406 128.44552,49.6807206 126.49648,49.6807206 L125.58928,49.6807206 L125.58928,50.4007206 L143.14576,50.4007206 L143.14576,49.6807206 L142.1644,49.6807196 Z" id="path892"></path>
            </g>
        </g>
    </g>
</svg>