<?xml version="1.0" encoding="UTF-8" standalone="no"?>
<svg
   xmlns:dc="http://purl.org/dc/elements/1.1/"
   xmlns:cc="http://creativecommons.org/ns#"
   xmlns:rdf="http://www.w3.org/1999/02/22-rdf-syntax-ns#"
   xmlns:svg="http://www.w3.org/2000/svg"
   xmlns="http://www.w3.org/2000/svg"
   xmlns:sodipodi="http://sodipodi.sourceforge.net/DTD/sodipodi-0.dtd"
   xmlns:inkscape="http://www.inkscape.org/namespaces/inkscape"
   version="1.1"
   id="svg60"
   width="500"
   height="775"
   viewBox="0 0 500 774.99999"
   sodipodi:docname="machine-intelligence-applications.svg"
   inkscape:version="1.0beta1 (bc72641, 2019-10-07)">
  <metadata
     id="metadata66">
    <rdf:RDF>
      <cc:Work
         rdf:about="">
        <dc:format>image/svg+xml</dc:format>
        <dc:type
           rdf:resource="http://purl.org/dc/dcmitype/StillImage" />
        <dc:title></dc:title>
      </cc:Work>
    </rdf:RDF>
  </metadata>
  <defs
     id="defs64" />
  <sodipodi:namedview
     pagecolor="#ffffff"
     bordercolor="#666666"
     inkscape:document-rotation="0"
     borderopacity="1"
     objecttolerance="10"
     gridtolerance="10"
     guidetolerance="10"
     inkscape:pageopacity="0"
     inkscape:pageshadow="2"
     inkscape:window-width="1280"
     inkscape:window-height="755"
     id="namedview62"
     showgrid="false"
     inkscape:zoom="0.35"
     inkscape:cx="400"
     inkscape:cy="560"
     inkscape:window-x="0"
     inkscape:window-y="23"
     inkscape:window-maximized="0"
     inkscape:current-layer="g68" />
  <g
     inkscape:groupmode="layer"
     inkscape:label="Image"
     id="g68">
    <path
       style="fill:#000000;stroke-width:1.42154"
       d="m 380.28435,767.3566 c -6.58492,-9.14026 -23.31206,-26.65391 -25.45695,-26.65391 -0.86129,0 -2.68676,-3.99808 -4.05662,-8.88464 -5.99353,-21.37989 -7.01053,-24.59618 -8.18092,-25.87205 -0.68133,-0.74275 -1.23881,-2.99311 -1.23881,-5.00081 0,-2.00765 -1.5089,-5.8778 -3.35314,-8.60032 -1.84422,-2.72249 -3.83755,-6.54923 -4.42963,-8.50385 -0.59205,-1.95461 -2.60144,-5.59018 -4.46531,-8.07902 -3.77833,-5.0452 -4.40513,-8.97948 -1.43062,-8.97948 3.52821,0 8.42145,8.05455 14.54108,23.9355 1.90942,4.95512 4.76264,11.5398 6.34049,14.63264 1.57783,3.09281 4.07937,10.46758 5.55894,16.38833 1.47957,5.92075 4.01114,12.17118 5.62572,13.88982 1.61459,1.71865 2.9356,3.73916 2.9356,4.49004 0,0.75087 2.7187,3.93735 6.04157,7.08111 3.32284,3.14371 8.28047,8.65877 11.01693,12.25566 6.29958,8.2803 12.5206,12.5642 19.63046,13.51784 l 5.58911,0.74965 1.01146,-8.09556 c 1.172,-9.38023 0.24705,-10.91157 -11.30484,-18.71652 -3.90923,-2.64125 -8.74634,-7.19764 -10.74912,-10.12533 -3.88368,-5.67715 -7.50318,-6.53174 -18.0371,-4.2587 -7.27451,1.56971 -5.39921,-1.18032 3.24935,-4.76495 7.46275,-3.09313 7.82268,-3.47405 6.96639,-7.37272 -0.8064,-3.67159 -2.12596,-22.51782 -1.96177,-28.01906 0.035,-1.17277 0.0439,-9.96856 0.0192,-19.54619 -0.0369,-14.61079 0.30198,-17.41389 2.10506,-17.41389 1.18196,0 2.43726,0.79962 2.78954,1.77692 0.92026,2.55291 1.8737,16.74906 2.98357,44.42319 0.74294,18.52466 1.50115,24.98207 3.24794,27.66105 3.11147,4.77194 13.37766,14.12482 20.92417,19.06266 6.90908,4.5208 7.15329,5.50426 4.5256,18.22624 l -1.70596,8.25945 h -11.67761 -11.67761 l -5.37665,-7.4631 z m -229.41988,4.53428 c -1.95462,-0.73027 -6.35065,-2.01495 -9.76896,-2.85485 l -6.21511,-1.52709 0.79655,-5.94003 c 0.94913,-7.07776 6.63952,-12.87832 14.78564,-15.07183 3.42229,-0.92152 7.75913,-3.93648 11.85806,-8.24364 3.55433,-3.73492 8.57329,-7.91803 11.1532,-9.2958 3.57944,-1.91158 4.43628,-3.09034 3.61656,-4.97541 -3.95253,-9.08949 -6.92547,-19.3128 -7.76415,-26.69926 -0.6306,-5.55359 -2.27208,-10.58058 -4.64186,-14.21543 -4.69928,-7.2079 -8.08024,-19.12072 -9.59313,-33.80144 -0.65892,-6.39384 -2.11423,-15.78318 -3.23405,-20.86521 -3.08004,-13.97799 -4.16948,-30.2147 -2.34725,-34.98251 3.24799,-8.49827 3.34605,-27.44715 0.20886,-40.3592 -1.61469,-6.64571 -3.33451,-15.60142 -3.82183,-19.9016 -0.48732,-4.30015 -1.75273,-12.29632 -2.81202,-17.76926 -2.5175,-13.00683 -5.01439,-34.1456 -5.01439,-42.45198 0,-3.62516 -0.402,-6.59121 -0.89334,-6.59121 -1.30259,0 -11.25744,8.31851 -18.14424,15.16174 -3.81498,3.79087 -7.79746,6.26655 -11.06739,6.88 -5.66332,1.06244 -6.76971,0.13412 -7.05821,-5.92242 -0.10574,-2.21991 -1.386464,-11.88534 -2.846037,-21.47874 -2.213656,-14.54975 -2.631461,-25.24914 -2.519259,-64.5145 0.131926,-46.16822 0.07659,-47.12979 -2.881518,-50.08071 -2.593732,-2.58746 -3.205465,-2.71017 -4.369001,-0.87643 -0.744137,1.17277 -1.36277,4.41368 -1.374743,7.20202 -0.05956,13.86764 -6.055646,31.50123 -13.502548,39.70886 -2.700542,2.97643 -3.366467,5.74812 -4.098456,17.0585 -0.480696,7.42757 -1.783978,16.70313 -2.89618,20.61236 -1.112199,3.90924 -2.977476,10.62602 -4.145055,14.92619 -4.117176,15.16343 -21.567193,49.02019 -26.177115,50.78917 -1.047537,0.40197 -2.93371,2.73235 -4.191499,5.1786 -2.973171,5.78249 -22.6029399,25.97771 -27.7425383,28.54167 -6.6794907,3.33218 -5.05398613,-2.08402 2.9580933,-9.85634 7.044099,-6.83329 8.183018,-9.8115 9.250107,-24.18836 0.174103,-2.34554 1.047654,-5.97962 1.941248,-8.07573 2.200491,-5.16169 4.607187,-20.8915 5.180619,-33.85976 0.259292,-5.86386 0.975849,-19.5636 1.592352,-30.4439 1.025066,-18.09077 0.919858,-19.70517 -1.230402,-18.88003 -2.871174,1.10177 -2.878179,0.67234 -0.134528,-8.24851 1.562683,-5.08098 2.064974,-11.71981 1.761542,-23.2824 -0.366655,-13.97168 -0.09493,-16.38501 1.995049,-17.71898 1.330734,-0.84937 2.826357,-1.13747 3.323606,-0.64023 1.319006,1.319 1.415191,24.70902 0.238465,57.98935 -1.615969,45.70309 -2.347821,55.11147 -5.327562,68.48877 -3.167966,14.22227 -3.280855,15.38219 -1.497103,15.38219 0.70908,0 2.377629,-3.67824 3.707889,-8.17386 3.302371,-11.16042 3.657096,-11.85033 2.923634,-5.68618 -1.517938,12.75701 4.701376,1.32974 7.772682,-14.28142 2.389817,-12.14721 1.224263,-37.07266 -1.945172,-41.59766 -3.065029,-4.37593 -3.080821,-7.20541 -0.03369,-6.03611 2.083005,0.79934 2.236046,-0.11024 1.382705,-8.21847 -0.527746,-5.01451 -1.260589,-11.99592 -1.628537,-15.51423 l -0.668996,-6.39694 2.32257,4.97541 c 1.617556,3.46509 2.431378,9.76799 2.681019,20.76386 0.197153,8.68365 1.069749,17.11753 1.939116,18.74196 0.86937,1.62444 1.580671,4.63256 1.580671,6.68472 0,2.12549 0.61176,3.3531 1.421542,2.85265 0.82744,-0.51139 1.463298,-9.01239 1.521455,-20.34088 0.06263,-12.19717 0.55597,-18.40098 1.321628,-16.61922 0.671943,1.56371 1.266677,4.73019 1.321629,7.03663 0.07354,3.08642 0.518768,3.77471 1.686429,2.60705 2.225994,-2.226 2.090888,-27.63298 -0.202463,-38.07451 -1.03034,-4.69109 -3.362489,-11.96724 -5.182552,-16.16922 -1.820061,-4.202 -3.287921,-8.67985 -3.261909,-9.9508 0.08715,-4.25784 5.167231,3.5023 9.197818,14.05024 2.090935,5.47192 4.347523,9.61159 5.01464,9.19928 1.255595,-0.77599 2.080515,-5.93729 3.574046,-22.36186 0.479896,-5.27747 1.461315,-9.5954 2.180932,-9.5954 2.170813,0 1.499698,25.71381 -0.891623,34.16259 -1.21001,4.27507 -2.772023,13.53012 -3.47114,20.56675 -0.699119,7.03663 -2.292987,15.66414 -3.541929,19.17226 -1.248943,3.5081 -2.593197,10.54473 -2.987234,15.63695 -0.974509,12.59385 -1.794091,15.88609 -4.782061,19.20939 -2.37853,2.64545 -5.594668,22.03389 -3.654965,22.03389 1.44219,0 10.686556,-21.18928 10.686556,-24.49496 0,-1.8168 0.841381,-4.56507 1.869736,-6.10727 3.697805,-5.54552 5.651068,-15.93577 6.673537,-35.49946 0.693763,-13.27431 1.811363,-21.66155 3.356136,-25.18671 1.273799,-2.90683 2.316001,-6.54731 2.316001,-8.08997 0,-1.54267 0.712077,-3.24493 1.582394,-3.78281 1.137571,-0.70307 1.298838,1.57109 0.573686,8.08995 -0.876944,7.88346 -0.743613,8.78942 1.020723,6.93565 2.855936,-3.00072 9.617075,-18.9233 9.617075,-22.64834 0,-1.70608 0.698537,-5.87614 1.552307,-9.26675 1.106218,-4.39321 1.114803,-6.98226 0.02987,-9.00947 -1.172023,-2.18995 -1.025808,-3.25687 0.635265,-4.63544 1.899729,-1.57663 1.758261,-2.23182 -1.183239,-5.48006 -1.837521,-2.02911 -4.084677,-5.44205 -4.993687,-7.5843 -1.646333,-3.87989 -2.535134,-4.07642 -12.032857,-2.66084 -0.586386,0.0874 -1.066157,3.67721 -1.066157,7.97738 -8e-6,4.30015 -0.639702,7.81847 -1.421548,7.81847 -0.781849,0 -1.421543,-3.12086 -1.421543,-6.93524 0,-6.36195 -0.351706,-7.08092 -4.254548,-8.69754 -3.590789,-1.48735 -4.699675,-3.25695 -7.107708,-11.34268 -1.569239,-5.2692 -2.853162,-10.23745 -2.853162,-11.04054 0,-1.93412 -6.856272,-6.37498 -8.384307,-5.4306 -0.657961,0.40663 -1.996887,2.67215 -2.975393,5.03448 -0.978505,2.3623 -2.42722,4.29512 -3.219369,4.29512 -0.94921,0 -1.120143,6.9066 -0.501341,20.25697 1.035508,22.34062 0.39371,25.19365 -4.986047,22.16492 -1.863942,-1.04936 -3.551983,-1.96433 -3.751207,-2.03325 -0.199222,-0.0689 0.3559,-3.58723 1.233607,-7.81846 0.983585,-4.74167 1.695046,-28.14491 1.854438,-61.00101 0.1966,-40.52484 0.859084,-58.421 2.762714,-74.63095 3.465816,-29.51236 5.038254,-47.96429 5.111066,-59.97623 0.03407,-5.62226 0.701657,-10.61764 1.483505,-11.10085 0.781849,-0.48321 1.421543,-3.35125 1.421543,-6.37342 0,-3.02218 1.919081,-10.28755 4.264625,-16.14526 2.345544,-5.85772 4.264625,-11.39991 4.264625,-12.315977 0,-0.916068 1.836096,-5.607206 4.080215,-10.424753 5.393201,-11.57782 19.826541,-25.994548 27.286266,-27.25486 9.237919,-1.560736 19.794598,5.025198 26.798712,16.718753 1.75614,2.93193 3.30239,5.330782 3.43611,5.330782 0.13372,0 0.24147,-6.876708 0.23945,-15.281573 -0.004,-17.137385 0.14915,-17.503346 13.83893,-33.041077 6.77006,-7.683938 8.83872,-9.135422 23.23958,-16.306174 14.74341,-7.341316 37.86048,-6.087512 47.14842,2.557197 5.81392,5.411289 8.88037,10.884364 8.88037,15.849944 0,2.641987 2.71098,6.384452 9.65477,13.328242 7.45385,7.453851 10.00636,11.088325 11.19706,15.943325 1.34042,5.465391 3.81729,13.077755 7.59658,23.347054 0.71021,1.929866 1.36735,-0.353179 2.04576,-7.107708 0.54971,-5.472937 1.55973,-11.869875 2.24447,-14.215418 0.68473,-2.345544 1.64189,-7.143248 2.12699,-10.661564 0.4851,-3.518315 1.44001,-6.969997 2.12199,-7.670402 0.682,-0.700407 0.87634,-3.091785 0.43186,-5.314177 -0.50717,-2.535912 0.051,-5.351757 1.49854,-7.561155 1.26866,-1.936246 2.30667,-4.502493 2.30667,-5.702774 0,-1.200281 0.59829,-2.182326 1.32954,-2.182326 0.73124,0 2.09837,-2.079005 3.03804,-4.620011 2.06118,-5.573642 14.56325,-15.9426645 22.98806,-19.0659566 6.80798,-2.5238862 30.41624,-3.8792162 31.68936,-1.8192592 1.02298,1.6552033 0.82207,1.6900688 -11.5395,2.0025954 -20.26469,0.5123351 -32.57781,7.1948174 -39.8912,21.6494344 -3.86381,7.6367 -3.79157,10.855556 0.16995,7.567874 1.3563,-1.125716 2.16655,-1.231616 2.16655,-0.283178 0,0.833248 -1.40071,2.496094 -3.1127,3.695217 -5.37526,3.76498 -1.70054,4.049146 4.19933,0.324734 7.44036,-4.696905 16.65901,-7.06149 22.95055,-5.886825 2.80745,0.524163 9.59189,3.02394 15.07654,5.555059 15.62004,7.208504 22.92328,18.052905 24.07931,35.754739 0.34462,5.277018 1.32165,10.024147 2.17116,10.549178 0.84952,0.525031 1.13463,2.022923 0.63358,3.328649 -0.50105,1.305723 -0.30202,2.374046 0.44228,2.374046 3.76277,0 8.90168,-10.955069 8.90168,-18.976478 0,-3.062308 0.44403,-3.892767 1.51096,-2.825847 1.06692,1.066922 0.83638,4.114263 -0.78448,10.36936 -2.89645,11.177787 -1.95369,14.107627 1.84923,5.746797 2.61797,-5.755698 2.91969,-6.005067 3.01003,-2.487698 0.12517,4.874537 1.45454,4.886373 4.98767,0.04442 1.89316,-2.594462 2.22665,-3.951579 1.06616,-4.338414 -1.0334,-0.344471 -1.70195,-3.689029 -1.72269,-8.61833 -0.0192,-4.430475 -0.591,-10.454258 -1.27184,-13.386188 -0.68085,-2.93193 -0.73804,-5.330781 -0.12709,-5.330781 1.63399,0 4.70171,17.742033 3.64395,21.074722 -0.49789,1.568721 -0.26939,3.245205 0.50775,3.725519 4.68426,2.895035 5.55898,-29.531029 0.93446,-34.641058 -1.22748,-1.356386 -2.23182,-3.241305 -2.23182,-4.188711 0,-1.540918 -3.99918,-7.915918 -7.81849,-12.463239 -0.78183,-0.930884 -3.02076,-3.778377 -4.97539,-6.327766 -1.95458,-2.549393 -7.39198,-6.470663 -12.08307,-8.7139386 -4.76785,-2.2799859 -6.7361,-3.7086269 -4.46314,-3.2395522 7.73509,1.5963047 16.48367,6.6902228 21.58992,12.5708978 2.81985,3.247527 6.60961,7.50383 8.42165,9.45845 7.70511,8.311322 11.57554,34.564756 7.22626,49.016307 -2.51044,8.341549 -11.5833,17.650256 -18.25895,18.733565 -3.6425,0.591094 -5.05168,1.840256 -6.8644,6.084918 -1.88557,4.41519 -3.38181,5.66616 -8.63105,7.21607 -6.12654,1.80895 -6.44125,2.17931 -8.94087,10.52139 -1.42494,4.75554 -2.89841,13.28422 -3.27438,18.95262 -0.82369,12.41887 0.36995,12.96221 11.80371,5.37293 4.08773,-2.71329 10.39626,-5.72601 14.01896,-6.69493 5.44899,-1.45739 7.08586,-2.71937 9.4767,-7.30627 3.90019,-7.48268 11.17975,-16.37376 14.18762,-17.32842 2.84757,-0.90379 5.13298,-8.69494 6.45932,-22.020341 1.2267,-12.324434 3.15193,-16.509094 11.28158,-24.521595 6.03662,-5.949651 7.57879,-6.752324 12.97323,-6.752324 12.67785,0 36.70797,13.92405 44.42112,25.739442 5.38121,8.243239 22.49021,43.622428 26.39317,54.577668 1.3927,3.90924 4.35606,11.09098 6.58522,15.95943 6.10485,13.33286 10.86479,28.52588 11.92385,38.05915 0.52114,4.69109 1.8595,11.72772 2.97411,15.63695 2.89832,10.16519 6.56545,27.47162 7.2292,34.11701 0.31236,3.1274 1.57601,12.24649 2.80815,20.26467 2.33678,15.20708 2.47474,22.825 2.31044,127.57567 -0.15182,96.84659 0.18893,105.1686 5.64119,137.72481 0.9322,5.56643 3.05741,11.87641 4.92873,14.63394 5.76705,8.49822 3.06413,9.33991 -5.33743,1.66203 -2.00854,-1.83554 -8.54857,-7.69774 -14.53342,-13.02711 -6.21057,-5.53037 -12.50077,-12.66479 -14.6537,-16.62044 -2.0747,-3.81189 -4.6503,-7.26769 -5.72353,-7.67952 -1.07328,-0.41186 -1.95139,-1.67513 -1.95139,-2.80728 0,-1.13217 -0.56182,-2.2717 -1.24849,-2.53233 -2.78422,-1.05671 -8.51771,-11.55306 -9.39303,-17.19591 -0.92237,-5.94629 -4.55937,-19.68988 -8.60371,-32.5119 -1.14283,-3.62325 -2.0779,-9.14225 -2.0779,-12.26445 0,-3.24657 -0.88983,-6.41519 -2.07864,-7.40181 -3.46317,-2.87419 -7.59884,-15.99808 -8.5617,-27.16929 -1.71634,-19.91311 -3.77364,-31.88517 -7.22948,-42.07033 -2.74053,-8.07697 -3.48228,-13.257 -3.56222,-24.87699 -0.11216,-16.31422 -3.93776,-46.66057 -5.88213,-46.66057 -0.69949,0 -0.81101,5.47717 -0.25324,12.43849 0.54813,6.84118 1.11913,23.63314 1.26888,37.31547 0.14969,13.68234 0.97858,28.07545 1.84183,31.98469 1.14121,5.16808 1.14581,11.56888 0.017,23.45544 -1.17731,12.39615 -1.12935,19.78389 0.19831,30.56316 0.96304,7.81846 1.95512,16.77418 2.20464,19.90158 0.75509,9.46392 2.06348,20.75868 3.678,31.75056 1.64289,11.18494 1.15736,13.08886 -2.72025,10.66725 -1.35835,-0.84829 -4.45272,-1.97789 -6.87637,-2.51022 -2.42367,-0.53233 -6.97415,-3.16555 -10.11219,-5.8516 -5.6694,-4.85272 -18.48391,-12.0221 -21.4883,-12.0221 -0.86375,0 -1.61608,-0.47977 -1.67182,-1.06616 -1.01924,-10.72391 -7.07138,-40.91831 -14.03296,-70.01093 -3.07125,-12.8349 -5.62389,-25.92962 -7.25643,-37.22469 -0.98159,-6.79123 -2.2791,-13.14767 -2.8834,-14.1254 -0.77147,-1.2483 -2.84403,0.17229 -6.9594,4.77043 -4.49159,5.01842 -7.50548,6.96968 -12.90134,8.35261 -3.87234,0.99244 -7.03371,2.16329 -7.02525,2.60187 0.009,0.43857 0.94957,3.87631 2.09129,7.63939 1.14177,3.76309 2.76955,12.39895 3.61732,19.19082 0.84776,6.79186 2.09399,13.62822 2.7694,15.19191 0.67541,1.56369 2.3045,7.96063 3.62018,14.21543 1.31568,6.25477 2.93952,13.1495 3.60856,15.32162 1.77828,5.77354 0.68528,7.26292 -8.68137,11.82965 -4.65066,2.26746 -8.45277,4.76233 -8.44908,5.54418 0.004,0.78186 1.23116,6.5391 2.7277,12.79388 2.97306,12.42571 7.20986,47.67983 7.20986,59.99261 0,4.39414 1.47645,12.15007 3.41545,17.94154 1.87848,5.61079 3.86256,13.80994 4.40905,18.22033 0.85075,6.86592 2.21379,9.62526 9.47962,19.19081 18.78267,24.7276 17.11268,21.53975 27.69797,52.87289 5.22954,15.47978 5.40215,19.92339 0.67567,17.39387 -1.78961,-0.95779 -3.03196,-3.72811 -3.69304,-8.23516 -1.57791,-10.75769 -7.45983,-27.46088 -12.48925,-35.46635 -2.54018,-4.04323 -8.51322,-12.0394 -13.27343,-17.76926 -5.3501,-6.43991 -9.01898,-12.31778 -9.60829,-15.39334 -1.47469,-7.69628 -10.90654,-36.80971 -12.18026,-37.59691 -0.62415,-0.38574 -0.94928,-7.59679 -0.72258,-16.02459 0.53123,-19.746 -3.37327,-49.19623 -8.20381,-61.87877 -3.0323,-7.96121 -5.421,-2.97132 -2.62047,5.47405 4.74007,14.29432 7.3774,63.53483 3.75319,70.07419 -1.62431,2.93084 -1.78786,0.99562 -1.17445,-13.89801 0.40183,-9.75717 -0.0267,-23.02077 -0.98232,-30.41426 -1.97492,-15.27732 -5.95024,-32.30213 -7.54256,-32.30213 -1.6896,0 -1.36699,3.11288 1.87221,18.06357 2.37546,10.96407 2.87939,17.42417 2.48771,31.89005 -0.31539,11.64793 -1.10446,18.75354 -2.20458,19.85284 -1.33673,1.33576 -1.54974,-1.50111 -0.96909,-12.90557 0.40931,-8.03974 -0.001,-20.45319 -0.91379,-27.58543 -1.61091,-12.59949 -4.87033,-27.5943 -6.31138,-29.03536 -0.39111,-0.39111 -5.99822,1.89976 -12.46026,5.09081 -6.46202,3.19105 -15.26744,6.4872 -19.56759,7.32477 -4.30017,0.83755 -11.01696,2.1997 -14.92619,3.02697 -3.90925,0.82727 -10.46612,1.4904 -14.57082,1.47362 -4.1047,-0.0171 -7.46309,0.32848 -7.46309,0.76723 0,0.43876 2.12687,4.73256 4.7264,9.54178 2.59952,4.80924 5.60382,10.98296 6.67625,13.71944 2.63861,6.73291 9.18602,17.4236 16.97689,27.72007 3.54954,4.69109 7.4995,10.76818 8.77771,13.50464 1.27819,2.73646 3.96702,8.4937 5.97515,12.79387 7.49953,16.05924 12.30773,27.45679 12.30773,29.17475 0,0.97471 1.49929,2.75457 3.33173,3.95525 8.13759,5.33193 17.73944,17.49814 22.6563,28.70707 1.37184,3.1274 4.29151,12.72281 6.48815,21.32313 2.19663,8.60034 5.3742,18.99536 7.06124,23.10006 1.68705,4.10471 2.5969,7.45193 2.02195,7.43826 -0.575,-0.0149 -3.53713,-4.20968 -6.58254,-9.32446 -5.10612,-8.57577 -6.40849,-12.41526 -8.88372,-26.18925 -0.49176,-2.73646 -1.73136,-6.57463 -2.75465,-8.52925 -1.02334,-1.95463 -2.92018,-6.11264 -4.21522,-9.24002 -4.44274,-10.72875 -5.30432,-11.90871 -12.06348,-16.52113 -5.33059,-3.63758 -6.94451,-5.67338 -7.57427,-9.55419 -0.44017,-2.71239 -2.30929,-6.59094 -4.15364,-8.61898 -1.84432,-2.02802 -5.15789,-8.05023 -7.36347,-13.38263 -2.20558,-5.3324 -5.37658,-11.72934 -7.04668,-14.2154 -1.67009,-2.48609 -4.88203,-7.71861 -7.13763,-11.62785 -2.25561,-3.90925 -4.55019,-7.42757 -5.09909,-7.81848 -0.5489,-0.39092 -3.58932,-6.14816 -6.75655,-12.79388 -3.16719,-6.64571 -7.3472,-14.41599 -9.28891,-17.26729 -1.94173,-2.85131 -3.96401,-6.68947 -4.494,-8.52926 -2.67692,-9.29266 -5.83251,-15.03894 -9.10743,-16.58444 -6.95504,-3.28227 -8.24949,-2.3668 -9.25803,6.54754 -0.51237,4.52891 -2.21683,13.3247 -3.78766,19.54621 -1.57083,6.22151 -3.72038,14.71901 -4.77674,18.88333 -1.05637,4.1643 -1.58651,8.84936 -1.17807,10.41121 0.40843,1.56186 -0.27769,6.47072 -1.52472,10.90857 -3.06449,10.90569 -4.10598,17.83835 -4.20201,27.9704 -0.082,8.65638 2.58617,21.10648 5.30211,24.74009 0.8203,1.09748 1.56142,3.65626 1.64692,5.68616 0.34031,8.0799 0.53816,40.53151 0.38651,63.39553 -0.26359,39.74172 0.15389,57.59314 1.65869,70.92442 1.68527,14.93012 1.01935,16.22055 -10.24844,19.85964 -3.99668,1.29077 -9.70926,4.5536 -12.69465,7.25072 -2.98538,2.69712 -7.86233,6.14577 -10.83767,7.66366 -6.38501,3.2574 -19.53832,4.84397 -24.57079,2.96376 z m 19.43151,-5.51081 c 3.25976,-1.48004 6.62706,-3.99935 7.48287,-5.59843 1.66249,-3.1064 18.41813,-13.60192 19.68784,-12.33219 1.73132,1.73131 4.57328,-2.74919 4.57328,-7.21003 0,-4.64776 -0.18052,-4.80135 -5.64292,-4.80135 -3.10361,0 -7.99043,-1.31852 -10.85958,-2.93001 l -5.21665,-2.93003 -4.422,4.22189 c -11.31819,10.80601 -14.33099,13.1205 -21.48425,16.50453 -6.71432,3.17637 -12.07935,8.00214 -12.07935,10.86522 0,1.22098 6.36802,3.75984 13.50465,5.38411 7.95838,1.81131 7.86503,1.8189 14.45611,-1.17371 z m 31.05681,-92.49659 c 0.1709,-63.22646 -0.89667,-76.9844 -6.89492,-88.85626 -3.41022,-6.7496 -3.52632,-7.72181 -2.20692,-18.48005 1.6471,-13.43007 3.65419,-24.1519 6.47862,-34.60854 1.13142,-4.18872 1.81572,-7.85728 1.52068,-8.1523 -0.29504,-0.29505 -2.55864,2.33249 -5.03022,5.83895 -2.47159,3.50646 -5.18444,6.3754 -6.02853,6.3754 -0.8441,0 -1.20135,-0.53943 -0.79388,-1.19874 3.13298,-5.06925 11.2747,-16.70688 12.09006,-17.28131 2.10525,-1.48315 13.64619,-45.24159 12.28985,-46.59796 -1.23889,-1.23889 -2.36096,0.49662 -3.63097,5.61602 -5.91991,23.86308 -11.7374,38.19151 -19.20743,47.3077 -5.72172,6.9826 -8.92005,7.76006 -3.88011,0.94319 4.03911,-5.46316 10.29479,-18.5875 10.29479,-21.59832 0,-1.33372 0.83807,-2.74655 1.86237,-3.13962 2.83237,-1.08688 9.49525,-26.59881 6.94674,-26.59881 -0.58884,0 -2.59864,4.95763 -4.46626,11.01696 -3.93011,12.75093 -10.75969,27.86472 -13.6906,30.29715 -3.11526,2.58545 -2.5656,0.54587 5.08312,-18.86118 3.90924,-9.9189 7.10771,-19.95616 7.10771,-22.30503 v -4.2707 l -13.86003,0.45096 c -12.01789,0.39104 -32.33678,-1.77598 -40.67733,-4.33828 -2.35237,-0.72266 -2.56344,-0.19702 -1.87318,4.66401 0.42785,3.01313 1.76399,9.63643 2.96919,14.71846 1.20519,5.082 3.47375,18.51557 5.04122,29.85238 1.56749,11.33678 3.94285,27.00927 5.27857,34.82776 2.76436,16.18086 2.90478,24.54849 0.62976,37.52817 -2.66829,15.22346 1.32378,56.04061 7.31316,74.77364 1.24988,3.90923 3.34952,10.94586 4.66589,15.63695 1.31636,4.69109 3.23215,10.76818 4.25733,13.50466 1.02516,2.73646 2.95477,8.49371 4.28802,12.79388 1.33324,4.30015 2.98317,9.28788 3.66649,11.08382 0.68333,1.79594 1.24241,5.05719 1.24241,7.2472 0,3.88177 2.71709,5.8349 12.79388,9.19671 6.41533,2.14024 6.25577,3.5664 6.42052,-57.38687 z M 168.27836,592.6935 c -2.57768,-0.74428 -4.62001,-2.28074 -4.62001,-3.47567 0,-1.7144 0.57791,-1.83238 2.89677,-0.59135 6.29628,3.36965 12.55919,-3.96885 8.68352,-10.17482 -2.56623,-4.10918 -1.95118,-7.91826 1.42093,-8.8001 2.76467,-0.72298 2.97069,-1.47091 2.19929,-7.98427 -0.87312,-7.37211 0.58589,-9.37659 3.22952,-4.43694 2.10823,3.9393 1.81447,10.46901 -0.61556,13.68179 -1.14789,1.51765 -2.10743,5.75631 -2.13231,9.41917 -0.0536,7.88809 -2.10163,14.00326 -4.63003,13.82438 -0.99666,-0.0706 -3.89112,-0.7285 -6.43212,-1.46219 z m -1.06616,-22.57582 c -0.48321,-0.78185 0.081,-1.42154 1.25376,-1.42154 1.17277,0 2.52766,0.63969 3.01086,1.42154 0.48322,0.78184 -0.081,1.42153 -1.25375,1.42153 -1.17277,0 -2.52766,-0.63969 -3.01087,-1.42153 z M 487.15,528.53759 c -1.22879,-5.83105 -3.55433,-22.91221 -4.9836,-36.60471 -2.31441,-22.17219 -4.43387,-139.98553 -2.57253,-142.99726 0.47161,-0.76307 0.27226,-14.15917 -0.44299,-29.76913 -0.71524,-15.60998 -1.39112,-32.06 -1.50193,-36.55564 -0.11088,-4.49562 -0.60144,-8.17386 -1.09021,-8.17386 -0.8731,0 -1.51608,1.36658 -8.02615,17.0585 -5.95174,14.3461 -12.59216,37.99798 -14.1683,50.46474 -2.21667,17.53307 -2.94901,31.72353 -1.96359,38.04797 1.99442,12.80018 5.66505,28.05372 6.75086,28.05372 0.5721,0 1.83034,-3.99808 2.79606,-8.88464 1.93945,-9.81333 8.90592,-31.25019 9.84909,-30.30705 0.32887,0.32889 -1.39238,8.50477 -3.82505,18.16863 -8.57075,34.0477 -9.80395,67.39071 -2.98786,80.78454 0.6127,1.20397 1.57682,5.68182 2.14248,9.95078 1.46081,11.02435 4.82308,25.21135 7.37808,31.13144 1.90844,4.42197 2.31595,4.70981 3.22672,2.27919 0.77819,-2.07683 1.27894,-1.05631 1.97559,4.02629 1.0169,7.41909 4.78086,16.52496 6.83069,16.52496 0.70768,0 0.98336,-1.43931 0.61264,-3.19847 z m -18.6475,-93.59023 c -0.52532,-0.84998 -0.24321,-2.25731 0.62688,-3.1274 1.16162,-1.16162 1.58198,-0.75098 1.58198,1.54539 0,3.43234 -0.73844,3.9612 -2.20886,1.58201 z m -0.61247,-10.80921 c -0.0107,-3.2767 0.61795,-6.35301 1.39978,-6.83621 1.8416,-1.13817 1.8416,7.81192 0,10.66156 -1.01084,1.56418 -1.38378,0.54494 -1.39978,-3.82535 z m -8.551,-45.6078 c 0,-5.55708 0.63616,-10.49699 1.41371,-10.97755 1.44236,-0.89141 0.77823,18.88944 -0.68326,20.35092 -0.40175,0.40175 -0.73045,-3.81626 -0.73045,-9.37337 z m 15.83153,142.18875 c -2.54752,-4.77572 -9.87248,-28.12646 -10.81377,-34.47239 -0.52186,-3.51832 -1.79154,-9.27556 -2.82152,-12.79388 -4.67656,-15.97505 -5.46676,-22.84312 -4.64038,-40.33267 0.45907,-9.71554 0.39717,-18.08871 -0.13753,-18.60703 -0.53472,-0.5183 -2.57144,-7.71085 -4.52605,-15.98339 -1.95463,-8.27254 -4.19355,-15.03826 -4.97541,-15.03496 -5.18651,0.022 -10.63781,25.96099 -9.94297,47.3118 0.48126,14.78865 3.40931,33.03259 5.66329,35.28657 1.75293,1.75294 3.50224,-3.40952 2.67925,-7.90687 -0.62073,-3.39227 -0.26634,-4.82615 1.34571,-5.44475 1.2036,-0.46188 2.83949,-2.70755 3.63529,-4.9904 0.79582,-2.28288 2.1199,-4.15068 2.94242,-4.15068 2.13308,0 1.87846,1.71396 -1.38587,9.32934 -5.51314,12.86166 -2.90827,39.92384 4.46184,46.35443 1.49769,1.30677 3.84965,4.89221 5.22657,7.96766 3.01409,6.73216 10.25717,15.71005 12.78917,15.85228 1.30293,0.0731 1.44632,-0.61091 0.49994,-2.38506 z m -18.56238,-45.25241 c 0.0682,-1.65601 0.40506,-1.99286 0.85883,-0.85885 0.41064,1.02618 0.36015,2.25226 -0.11216,2.72463 -0.47237,0.47237 -0.80833,-0.36725 -0.74663,-1.86578 z m -47.02967,5.44923 c -0.004,-0.58638 -1.3928,-9.70202 -3.08714,-20.25697 -2.87779,-17.92743 -3.91812,-47.6716 -4.00806,-114.59468 l -0.006,-4.42521 -13.14927,-1.47999 -13.14925,-1.48002 11.96177,0.21905 c 8.46698,0.15502 12.13563,-0.3001 12.55693,-1.55789 0.32735,-0.9773 -0.57756,-1.82306 -2.01096,-1.87946 -19.14218,-0.75315 -27.7273,-0.65244 -28.33596,0.33239 -0.40508,0.65543 0.22304,1.19168 1.39581,1.19168 1.17277,0 2.54587,0.66916 3.05132,1.48701 1.18198,1.91245 -13.87906,0.0934 -15.13151,-1.82756 -0.54338,-0.83339 -1.89194,-0.79324 -3.55387,0.10576 -1.473,0.79685 -3.79767,1.79526 -5.16591,2.21874 -2.57532,0.79704 -3.53,5.12378 -1.13055,5.12378 0.7464,0 1.76144,2.39885 2.2556,5.33078 0.80094,4.75179 6.48432,33.15313 11.30749,56.50628 0.96886,4.69109 3.08678,13.6468 4.70648,19.90158 1.61971,6.25478 3.96504,16.77028 5.21188,23.36778 2.5159,13.31262 3.49254,15.05084 9.9794,17.76122 2.46465,1.0298 6.67358,3.77983 9.3532,6.11117 7.65319,6.65855 16.96775,10.96977 16.94856,7.84456 z m -25.5812,-135.40185 c 0,-1.68759 2.46964,-1.68759 6.39694,0 2.38253,1.02381 2.09469,1.23792 -1.77692,1.32163 -2.54102,0.055 -4.62002,-0.53977 -4.62002,-1.32163 z m -7.37424,-0.97105 c 1.02617,-0.41064 2.25225,-0.36015 2.72462,0.11216 0.47237,0.47235 -0.36725,0.80834 -1.86577,0.74661 -1.65602,-0.0682 -1.99286,-0.40506 -0.85885,-0.85884 z M 115.81951,474.87438 c 2.67143,-2.34554 5.691,-4.26463 6.71017,-4.26463 2.50195,0 8.4332,-5.70835 8.4332,-8.11628 0,-1.064 -1.11946,-3.64295 -2.48769,-5.73102 -2.14925,-3.27999 -2.4877,-7.4796 -2.4877,-30.86851 0,-14.88964 0.31985,-31.86975 0.71077,-37.73361 l 0.71077,-10.66157 -13.14926,-0.40872 c -8.39817,-0.26104 -13.14926,0.12431 -13.14926,1.06616 0,0.81117 2.87862,1.47487 6.39694,1.47487 3.51831,0 6.39693,0.57127 6.39693,1.26946 0,2.17864 -4.25267,3.03069 -10.30006,2.06367 -5.322374,-0.85107 -5.715261,-0.70198 -4.685484,1.7782 0.618215,1.48893 1.355594,9.74379 1.638634,18.34411 0.28303,8.60035 1.13701,21.71407 1.89774,29.14162 0.76072,7.42755 2.08942,20.50822 2.95265,29.06815 0.86323,8.55994 1.88645,16.07634 2.27383,16.70311 1.2306,1.99115 3.15053,1.25389 8.13782,-3.12501 z m 107.54359,-7.27351 c 0,-1.00858 1.16616,-1.20567 3.19847,-0.54056 6.26763,2.05122 14.76159,1.80327 28.07545,-0.81954 15.13439,-2.98144 50.64968,-14.67438 54.18708,-17.84037 2.01394,-1.80247 2.08608,-3.08817 0.57864,-10.31176 -0.94717,-4.53893 -2.24114,-9.09235 -2.87551,-10.11874 -0.63434,-1.02641 -2.31144,-7.3649 -3.7269,-14.08557 -3.19725,-15.18091 -8.66399,-38.60637 -12.35312,-52.93425 -1.98708,-7.7174 -4.51837,-13.19281 -8.74248,-18.91078 -3.27008,-4.42651 -6.76093,-10.41319 -7.75744,-13.30367 -2.06451,-5.98832 -7.25422,-7.92549 -10.25142,-3.82656 -0.96909,1.32531 -2.44825,1.98552 -3.28702,1.46713 -0.83877,-0.51838 -5.19926,0.31275 -9.69,1.84699 -10.09513,3.44895 -20.11555,5.01776 -29.73373,4.65514 l -7.35337,-0.27724 -0.93224,7.52265 c -1.71499,13.8389 0.29047,101.77229 2.5869,113.42751 1.15537,5.86386 1.80828,11.14134 1.45091,11.72772 -1.10458,1.81251 0.96926,3.90924 3.86658,3.90924 1.51755,0 2.7592,-0.71429 2.7592,-1.58734 z m -9.9508,-2.09828 c 0,-0.48367 -0.92261,-4.49006 -2.05026,-8.90307 -4.39027,-17.18113 -6.20252,-69.4169 -3.62915,-104.60475 0.73996,-10.11795 1.08936,-18.6523 0.77645,-18.96522 -0.31293,-0.31291 -1.89654,-0.14755 -3.51916,0.36742 -1.92078,0.60965 -2.95021,2.143 -2.95021,4.39442 0,1.90194 -0.63969,3.45806 -1.42154,3.45806 -0.78184,0 -1.42154,-1.84974 -1.42154,-4.1105 0,-5.37168 -6.38529,-7.56093 -9.8719,-3.38467 -8.24817,9.87963 -27.93157,20.89526 -41.03375,22.96416 -4.15174,0.65558 -8.18293,1.82628 -8.95821,2.60155 -2.42788,2.42789 -7.83203,60.65453 -7.29452,78.59431 0.25352,8.46123 2.45992,17.40496 4.46813,18.11167 1.2511,0.44028 3.23427,1.5732 4.40704,2.51756 1.17277,0.9444 9.16894,2.53596 17.76927,3.53687 8.60033,1.00086 16.41847,2.20997 17.37364,2.68688 2.33034,1.16348 37.35571,1.85292 37.35571,0.73531 z m 105.1941,-22.70636 c 0,-0.44233 -0.73514,-2.17784 -1.63365,-3.85671 -0.89849,-1.67886 -2.73552,-7.87382 -4.08229,-13.76658 -1.34675,-5.89275 -4.82685,-19.66979 -7.73358,-30.61568 -2.9067,-10.94586 -6.20803,-23.73974 -7.33628,-28.43082 -2.57168,-10.69264 -4.78421,-16.34774 -6.39596,-16.34774 -1.91143,0 -1.58113,1.98203 2.92564,17.55716 2.29609,7.93515 7.43567,27.79794 11.4213,44.13951 3.98564,16.34158 7.58217,30.25492 7.9923,30.91854 0.82721,1.33845 4.84252,1.67205 4.84252,0.40232 z m 3.73745,-3.81577 c -0.42023,-0.97733 -1.56577,-4.49564 -2.54561,-7.81849 -2.08931,-7.08533 -4.36602,-8.13708 -3.07721,-1.42155 1.36018,7.08743 3.07644,11.01696 4.81171,11.01696 0.86636,0 1.23137,-0.79962 0.81111,-1.77692 z m 8.52213,-9.24004 c -1.41954,-10.41038 -10.76609,-54.26382 -13.17942,-61.83706 -1.18345,-3.71377 -2.74002,-6.75231 -3.45903,-6.75231 -1.65308,0 -1.66253,2.69609 -0.0279,7.96173 0.70369,2.26676 2.69633,10.51829 4.42811,18.33678 1.7318,7.81849 4.59618,20.29252 6.3653,27.72007 1.76909,7.42754 3.6268,15.26379 4.1282,17.41389 1.50006,6.43233 2.73509,4.41981 1.74474,-2.8431 z m -7.0239,-2.04346 c -0.45378,-1.134 -0.79062,-0.79716 -0.85883,0.85886 -0.0616,1.49852 0.27424,2.33814 0.74663,1.86577 0.47235,-0.47237 0.52284,-1.69845 0.11216,-2.72463 z m -9.32379,-17.03146 c -3.71748,-15.1371 -7.68695,-36.79171 -6.89029,-37.58839 0.33748,-0.33748 2.36411,6.91627 4.50363,16.11943 5.586,24.02848 7.89615,31.65926 9.58451,31.65926 0.86338,0 1.10514,-1.34076 0.57677,-3.19847 -0.50032,-1.75916 -1.51364,-6.07709 -2.2518,-9.59541 -4.28988,-20.44734 -9.95313,-47.65221 -9.95812,-47.83662 -0.0107,-0.43638 -10.14635,-6.18198 -10.9042,-6.18198 -1.34939,0 0.38747,8.30319 7.88001,37.67087 8.005,31.37627 8.41924,32.74381 9.56977,31.59326 0.43911,-0.43909 -0.51054,-6.12797 -2.11028,-12.64195 z m -9.15566,-42.95028 c -0.53442,-1.39263 -0.93112,-3.59924 -0.88154,-4.90353 0.0597,-1.57062 0.55342,-1.21247 1.46215,1.06063 0.7546,1.88763 1.1513,4.09422 0.88154,4.90354 -0.26978,0.80929 -0.92773,0.33202 -1.46215,-1.06064 z m 127.33209,49.23133 c 0.31539,-1.36822 0.27093,-9.94434 -0.0987,-19.05802 -0.78996,-19.47144 1.36755,-28.29178 2.55346,-10.43897 0.84184,12.6734 0.10939,12.98666 7.47753,-3.19847 1.51269,-3.32284 3.18205,-6.04154 3.70971,-6.04154 0.52767,0 1.02987,-7.19656 1.11601,-15.99235 0.0861,-8.79579 0.89628,-19.10601 1.80032,-22.91159 1.40523,-5.91544 1.32056,-7.15553 -0.58375,-8.54799 -1.37862,-1.00808 -2.88668,-5.95519 -3.95744,-12.98233 -0.95148,-6.24448 -2.3065,-11.35361 -3.0111,-11.35361 -1.6222,0 -5.87058,12.28775 -9.33823,27.0093 -4.89809,20.79414 -7.524,43.20629 -6.74547,57.57244 1.05818,19.52681 5.12263,34.42478 7.07777,25.94313 z M 126.69826,372.52337 c 0,-0.84239 -5.21232,-1.42155 -12.79388,-1.42155 -7.58155,0 -12.79387,0.57916 -12.79387,1.42155 0,0.84239 5.21232,1.42155 12.79387,1.42155 7.58156,0 12.79388,-0.57916 12.79388,-1.42155 z m 3.99329,-5.24158 c -0.71827,-3.57788 -31.002585,-3.93418 -31.002585,-0.36476 0,1.16216 6.339315,1.79189 23.184105,2.30309 6.7605,0.20513 8.17824,-0.14627 7.81848,-1.93833 z m 291.23493,-3.64306 c -0.41994,-2.54099 -2.07817,-10.37724 -3.68498,-17.41387 -1.6068,-7.03663 -2.93242,-14.55304 -2.94585,-16.70313 -0.0128,-2.15008 -0.73863,-3.90923 -1.61156,-3.90923 -1.8948,0 -0.73209,13.69639 2.53323,29.84064 2.37055,11.72058 2.79248,12.80561 4.9795,12.80561 0.89353,0 1.18655,-1.85535 0.72966,-4.62002 z m -290.9636,-2.50496 c 0,-3.3132 -29.83225,-3.64535 -30.92211,-0.34428 -0.444311,1.34579 3.19615,1.7472 15.16875,1.67259 8.66435,-0.0539 15.75336,-0.65174 15.75336,-1.32831 z m 195.20005,-4.41793 c 3.78609,-1.94135 12.34505,-9.90208 12.34505,-11.48221 0,-0.62933 2.55792,-3.62664 5.68425,-6.66064 5.05678,-4.90741 5.5843,-6.045 4.77854,-10.30459 -1.4555,-7.69441 -4.87172,-12.41209 -9.67215,-13.35689 -2.38947,-0.47026 -7.36851,-1.89439 -11.06453,-3.16472 -3.69602,-1.27032 -7.15785,-1.87185 -7.69296,-1.33677 -0.5351,0.53513 -0.13412,3.51414 0.8908,6.62007 2.15189,6.52027 0.8668,9.1258 -5.25935,10.66337 -2.05632,0.51609 -5.31481,2.1781 -7.24112,3.69332 -2.7938,2.19762 -5.83618,2.76648 -15.03837,2.81188 l -11.536,0.0569 4.26462,2.38139 c 5.60208,3.12823 19.76854,3.06119 25.87254,-0.1224 5.59609,-2.91873 7.53368,-2.99474 7.53368,-0.29558 0,2.55276 -12.77848,6.5945 -18.20731,5.75887 -12.2754,-1.88949 -14.48814,-1.91491 -14.48814,-0.16654 0,1.02219 2.92772,2.37026 6.75233,3.10909 5.10991,0.98713 6.65746,1.88018 6.3623,3.67154 -0.49122,2.98136 5.94963,4.5824 13.06471,3.2476 5.49194,-1.03029 7.28464,1.31706 2.23084,2.92107 -1.57505,0.4999 -2.49683,1.50254 -2.0484,2.22812 1.12599,1.82189 8.70689,1.65595 12.46867,-0.27294 z m -21.77195,-9.60936 c 0,-0.90231 2.39379,-1.59241 5.52367,-1.59241 3.03801,0 7.35594,-0.95559 9.5954,-2.12355 6.26273,-3.26623 8.89151,-2.77518 5.15361,0.9627 -2.30413,2.30416 -5.31536,3.26374 -11.68823,3.7247 -5.75886,0.41657 -8.58445,0.0968 -8.58445,-0.97144 z m -200.06777,5.88399 c -4.631364,-2.30528 -7.144964,-1.85952 -5.403468,0.95829 0.515359,0.83386 2.978268,1.47519 5.473128,1.42521 l 4.53612,-0.091 -4.60578,-2.29255 z m 47.49843,-2.59762 c 4.55557,-1.17158 8.99307,-3.06844 9.8611,-4.21522 0.86805,-1.1468 2.78713,-2.08784 4.26463,-2.09118 4.86174,-0.0107 23.29873,-14.36913 23.29873,-18.14428 0,-0.7208 1.16283,-2.36292 2.58408,-3.64913 8.52493,-7.71496 13.23186,-31.52328 9.2982,-47.03161 -2.21436,-8.73003 -9.31277,-24.11336 -11.85047,-25.68177 -1.90473,-1.17718 -1.87852,-4.99504 0.0343,-4.99504 0.81821,0 2.57737,1.91503 3.90924,4.25564 1.33187,2.3406 2.84132,4.25968 3.35434,4.26463 0.51302,0.004 1.3786,-3.23263 1.9235,-7.19457 0.82019,-5.96342 1.39378,-7.03009 3.33187,-6.19589 1.28762,0.55421 4.17114,1.32003 6.40785,1.70185 4.7736,0.81484 6.54166,-1.25542 6.57305,-7.69652 0.023,-4.70267 -1.86169,-6.19365 -7.82902,-6.19365 -4.65993,0 -5.39191,-1.87229 -4.26336,-10.90492 l 0.98039,-7.84677 5.21152,0.94364 c 2.86633,0.51902 6.57104,1.26917 8.23269,1.667 2.41043,0.57708 3.34445,-0.20385 4.62002,-3.86303 2.06555,-5.92519 2.20747,-5.58124 -2.31043,-5.59933 -2.15007,-0.009 -6.31895,-0.4139 -9.26416,-0.90068 l -5.35493,-0.88504 0.37953,-7.08792 0.37956,-7.0879 -8.38584,-4.29077 c -4.61222,-2.35991 -11.07483,-7.09716 -14.36138,-10.52718 -6.96659,-7.27075 -7.64076,-7.19538 -19.18827,2.1453 -9.05398,7.32367 -9.69828,8.35514 -6.1606,9.86252 6.14802,2.61962 11.82944,6.8607 11.83754,8.83655 0.004,1.17277 -0.9507,7.14621 -2.12332,13.27431 -2.81163,14.69326 -2.72359,16.10839 1.06639,17.14286 5.76445,1.57335 20.856,17.17407 18.69959,19.33048 -0.93191,0.9319 -3.79774,-0.87344 -8.4554,-5.32648 -11.25452,-10.76007 -20.79464,-15.62317 -34.5457,-17.60979 -15.01131,-2.16866 -24.69707,-0.48689 -39.31248,6.82596 -7.036632,3.52079 -13.504092,7.30797 -14.372133,8.41594 -0.868041,1.10797 -2.109062,2.0145 -2.757827,2.0145 -4.02861,0 -20.540898,23.78352 -20.540898,29.58614 0,4.40502 -3.041411,5.49115 -5.405643,1.93043 -2.943143,-4.43261 -5.966699,-3.917 -5.966699,1.01749 0,3.73709 0.539075,4.18428 6.041554,5.01181 3.322853,0.49971 8.825546,2.49144 12.228208,4.42602 3.402659,1.93461 6.395852,3.51744 6.651538,3.51744 0.255688,0 1.177774,-3.43396 2.049084,-7.63103 2.763605,-13.31222 16.382588,-31.07628 27.323316,-35.63947 8.74022,-3.64541 27.56092,-4.42752 37.45501,-1.55651 18.56516,5.38716 29.73521,15.71101 36.53347,33.76586 4.47416,11.8825 4.87104,19.37788 1.62788,30.74396 -2.71583,9.51798 -5.1247,12.43195 -18.31903,22.16005 -9.32567,6.87577 -13.37017,8.70106 -26.66976,12.03612 -6.86473,1.72142 -19.371,-0.0985 -29.48114,-4.29008 -7.28371,-3.01979 -21.323125,-15.07541 -21.323125,-18.31015 0,-0.72949 -1.126889,-1.92942 -2.504199,-2.66654 -1.910819,-1.02264 -3.567342,-0.39028 -6.990909,2.66867 l -4.486712,4.00888 2.894685,5.85068 c 1.592074,3.21785 4.09829,6.49483 5.569366,7.28212 1.471076,0.7873 2.674684,2.24878 2.674684,3.24777 0,2.49911 7.477502,9.45598 10.163642,9.45598 1.204275,0 3.276088,1.20055 4.604038,2.66792 1.32794,1.46738 6.06486,3.76153 10.5265,5.09811 4.46163,1.33662 8.75175,2.68275 9.53359,2.99146 2.63361,1.0398 21.74772,-0.88798 30.09878,-3.03564 z M 425.8042,335.83307 c -0.0708,-6.7941 0.13369,-10.91358 0.45424,-9.15442 0.32057,1.75916 1.17806,3.19847 1.90554,3.19847 0.72746,0 1.32268,-0.23666 1.32268,-0.52591 0,-1.50787 8.91125,-30.2404 9.75567,-31.45515 0.54487,-0.78384 0.97161,-12.10802 0.94828,-25.16483 -0.0484,-27.03502 -1.16168,-30.58227 -6.76653,-21.55764 -9.66756,15.5662 -16.05196,45.33179 -14.89917,69.46352 1.37811,28.84884 7.55568,41.74492 7.27929,15.19596 z m -57.82883,0.2929 c -0.47238,-0.47235 -1.69848,-0.52284 -2.72463,-0.11216 -1.13401,0.4538 -0.79719,0.79064 0.85885,0.85885 1.49853,0.0616 2.33813,-0.27426 1.86578,-0.74663 z M 148.73216,328.2159 c 12.43509,-4.3354 15.15144,-5.96306 21.56695,-12.92305 7.24146,-7.85604 10.17478,-12.30741 11.7657,-17.85464 1.81006,-6.31129 -0.61078,-22.55141 -4.99362,-33.49953 -4.18856,-10.46285 -8.89346,-14.95058 -21.83539,-20.82754 -6.74179,-3.06144 -9.62268,-3.48513 -22.90412,-3.36847 -14.81572,0.13007 -15.39982,0.25952 -23.56214,5.22043 -10.62667,6.45869 -16.67549,13.30721 -20.293012,22.9759 -2.42789,6.48912 -2.674372,9.11138 -1.633337,17.37639 1.471,11.67859 3.168773,18.43806 5.864918,23.3504 2.123325,3.8687 12.921691,14.10363 14.880011,14.10363 0.63669,0 2.61976,1.37359 4.40681,3.05245 4.26387,4.00567 15.38565,7.01772 22.52181,6.09941 3.12739,-0.40245 9.52433,-2.06985 14.21542,-3.70538 z m -24.16621,-14.26189 c -7.95578,-2.82783 -15.44551,-10.29651 -18.83543,-18.7825 -3.92477,-9.82486 -4.02985,-15.65055 -0.42912,-23.79061 4.88106,-11.03444 10.08947,-14.32808 25.31362,-16.00747 6.48269,-0.71511 11.1828,-0.33818 17.3458,1.39106 9.2666,2.6001 10.22202,3.42654 17.02314,14.72535 3.92262,6.51673 4.50345,8.59055 3.74116,13.35761 -1.21262,7.58334 -6.42639,19.44192 -8.54789,19.44192 -0.94021,0 -3.21861,1.60642 -5.06315,3.56983 -5.1131,5.44267 -22.57902,8.92738 -30.54813,6.09481 z m 20.08337,-4.82903 c 8.85502,-3.65514 14.4416,-8.69842 18.09756,-16.33756 2.56299,-5.35539 3.16098,-8.27749 2.39031,-11.68015 -1.6717,-7.38083 -5.3986,-13.37026 -10.95827,-17.61081 -4.77713,-3.6437 -6.24793,-3.97996 -17.41538,-3.98141 -6.70868,-8.8e-4 -13.90087,0.47574 -15.98265,1.05916 -2.08179,0.5834 -6.44111,4.39659 -9.68738,8.47372 -5.6615,7.11054 -5.86294,7.7052 -4.93733,14.57489 1.61358,11.97554 6.00246,19.31142 14.14514,23.64324 8.33009,4.43147 16.58825,5.06198 24.348,1.85892 z m -16.40176,-10.2652 c -6.9308,-2.17441 -7.89979,-2.9862 -9.80646,-8.21553 -2.70623,-7.42228 -1.44091,-12.47966 4.64494,-18.56551 3.54744,-3.54744 5.98936,-4.74945 9.6486,-4.74945 4.8394,0 12.99936,3.24559 16.25017,6.46347 2.82162,2.79303 3.74559,11.34546 1.65274,15.29815 -1.8137,3.42547 -11.98816,12.4521 -13.82858,12.26853 -0.47888,-0.0478 -4.33152,-1.17262 -8.56141,-2.49966 z m 15.5092,-7.24665 6.39694,-5.56086 -3.35032,-6.43229 c -3.25119,-6.24196 -8.12539,-9.44761 -14.36512,-9.44761 -4.25247,0 -10.00463,7.48554 -10.00463,13.01947 0,5.80469 4.80421,11.95564 10.12463,12.9628 1.85901,0.35192 3.69987,0.72522 4.09079,0.82958 0.39093,0.10427 3.58939,-2.31263 7.10771,-5.37109 z m 258.44862,37.19783 c -0.41945,-2.17191 -2.08962,-2.45388 -13.15786,-2.22123 -14.24396,0.2994 -19.78611,1.29515 -18.52909,3.32908 0.46904,0.75891 7.89857,1.37986 16.51009,1.37986 14.14704,0 15.61096,-0.23997 15.17686,-2.48771 z m -190.70644,-7.83138 c -0.24336,-6.91697 -0.53091,-7.48146 -4.01746,-7.88724 -2.06543,-0.24035 -4.46357,0.39934 -5.3292,1.42155 -2.1967,2.59405 -8.64156,12.50872 -8.64156,13.29406 0,1.50325 5.51136,0.49456 6.17026,-1.1293 0.53463,-1.31762 1.02457,-1.35468 1.89539,-0.14329 1.16039,1.61416 7.39079,3.19015 9.23338,2.33561 0.52321,-0.24266 0.83335,-3.79377 0.68919,-7.89137 z m 65.81781,1.00082 c -4.16563,-5.01925 -5.55809,-1.19373 -1.71199,4.70335 2.46757,3.78345 2.49145,3.78814 2.9522,0.5825 0.25548,-1.77749 -0.30261,-4.15613 -1.24021,-5.28585 z m 31.03348,4.34286 c 2.87649,-1.95461 6.04102,-3.55384 7.03228,-3.55384 1.11213,0 1.80234,-1.90539 1.80234,-4.97541 0,-2.73646 -0.50171,-4.97539 -1.11488,-4.97539 -0.61319,0 -2.96206,-3.88947 -5.21973,-8.64327 -3.98629,-8.39367 -10.97019,-15.52293 -15.20637,-15.52293 -1.14501,0 -3.32355,-0.9392 -4.84123,-2.08711 -3.41436,-2.58249 -6.92956,-2.74205 -8.82549,-0.4006 -0.79136,0.9773 -1.74815,8.17386 -2.12621,15.99235 -0.62516,12.92844 -0.37977,14.82671 2.71025,20.96773 l 3.39763,6.75233 h 8.58072 c 6.81044,0 9.65974,-0.7332 13.81069,-3.55386 z m 52.43796,0.26272 c 2.21006,-1.81012 6.40564,-4.7338 9.32348,-6.49705 7.25871,-4.38644 27.83478,-26.99512 28.87503,-31.72747 0.46484,-2.11463 1.92017,-4.19641 3.23408,-4.62616 1.31388,-0.42974 3.91113,-3.13505 5.77163,-6.0118 3.00868,-4.652 3.29138,-6.32051 2.55637,-15.0876 -0.4925,-5.87459 -1.71566,-10.83982 -3.02737,-12.28924 -1.21054,-1.33765 -2.20098,-2.90716 -2.20098,-3.48783 0,-0.58067 -0.79961,-1.9088 -1.77692,-2.95142 -0.9773,-1.04261 -5.29523,-6.8828 -9.5954,-12.97821 -9.27759,-13.15085 -20.46564,-24.86441 -31.39507,-32.86978 -9.13627,-6.69194 -14.23404,-12.33935 -16.85913,-18.67686 -1.01457,-2.44941 -2.27971,-4.45349 -2.81139,-4.45349 -0.53169,0 -3.69851,2.86634 -7.03737,6.36965 -4.09677,4.29853 -8.00187,6.86235 -12.01011,7.88498 -13.54491,3.45573 -13.75789,3.65695 -13.75789,12.99966 0,8.16369 0.14564,8.49057 4.62,10.37268 5.27353,2.21823 10.93224,8.02974 13.88442,14.25931 1.11156,2.34554 3.90951,7.09826 6.21772,10.56158 9.59197,14.39228 18.37855,20.31064 32.8503,22.12703 7.58711,0.95225 8.13669,1.22783 4.97539,2.49472 -14.26675,5.71748 -18.65366,10.34086 -22.8508,24.08255 -3.30526,10.82155 -5.22225,28.15894 -3.11354,28.15894 1.36643,0 2.58718,2.39026 5.9895,11.72772 1.73538,4.7626 2.96387,4.85591 8.13805,0.61809 z m -119.65583,-1.19147 c 4.69109,-0.83032 12.04757,-2.78071 16.34774,-4.33416 4.30017,-1.55348 10.17761,-3.52523 13.06099,-4.38169 l 5.24252,-1.55721 -0.82902,-11.74731 c -0.67097,-9.50788 -0.38315,-12.4278 1.50981,-15.31683 1.28636,-1.96322 2.33882,-4.544 2.33882,-5.73507 0,-1.3911 1.12862,-2.04446 3.15578,-1.82694 2.50238,0.26852 4.02658,-1.26986 7.36132,-7.42979 2.31305,-4.27264 4.4446,-7.05124 4.73681,-6.17467 0.29217,0.8766 -0.78149,4.04306 -2.38593,7.03661 -3.47072,6.47562 -3.68677,9.03879 -0.76188,9.03879 1.18544,0 3.22602,-2.39885 4.53466,-5.33078 1.30863,-2.93193 4.8166,-10.47081 7.79548,-16.75307 2.97889,-6.28226 5.41614,-12.39134 5.41614,-13.57573 0,-1.18437 0.58466,-2.76113 1.29924,-3.5039 1.4758,-1.53396 7.23001,-18.61189 7.23001,-21.45793 0,-1.02775 -2.47662,-3.13211 -5.50356,-4.67635 -6.34026,-3.23455 -7.24391,-5.5871 -7.27091,-18.92859 -0.0192,-9.00864 0.17613,-9.59544 3.17907,-9.59611 3.66209,-8.3e-4 16.93301,-4.8208 22.77542,-8.27199 2.16869,-1.28109 5.56811,-4.67419 7.55429,-7.54025 l 3.61124,-5.21101 5.82446,2.2879 c 3.20344,1.25835 7.92536,4.45116 10.49315,7.09512 2.5678,2.64397 6.94307,6.02619 9.72284,7.51607 4.35106,2.33204 5.05413,2.40203 5.05413,0.50318 0,-4.12692 -4.06924,-10.09113 -10.45509,-15.32387 -6.82916,-5.59597 -10.38193,-6.55714 -11.1192,-3.00818 -0.31665,1.52434 -2.16319,0.16976 -5.93679,-4.35513 -3.01246,-3.61218 -5.03641,-7.00665 -4.49766,-7.54326 0.53877,-0.5366 2.08401,0.38652 3.43392,2.05137 2.65402,3.27329 11.51632,6.01806 11.51632,3.56676 0,-0.79782 -0.63969,-1.84594 -1.42155,-2.32915 -1.73208,-1.07048 -1.88294,-3.55385 -0.21587,-3.55385 0.66308,0 2.35948,2.55877 3.76973,5.68616 1.41025,3.12739 3.20491,5.68617 3.98811,5.68617 2.83457,0 11.93871,11.48283 13.79433,17.39844 1.88056,5.99517 7.78796,13.87547 10.4016,13.87547 2.13713,0 0.0107,-13.40203 -3.08691,-19.44897 -1.52895,-2.98539 -5.68863,-7.4701 -9.2437,-9.96599 -4.59889,-3.22871 -7.35618,-6.61237 -9.55675,-11.72772 -1.7011,-3.95436 -3.57924,-7.18973 -4.17362,-7.18973 -0.59438,0 -1.41526,-1.27939 -1.82417,-2.84308 -2.03538,-7.78324 6.42231,1.75317 11.0315,12.43849 4.40367,10.20893 7.22896,6.93048 3.98143,-4.62001 -1.09914,-3.90924 -2.35908,-8.3871 -2.7999,-9.9508 -0.71554,-2.53831 -0.56689,-2.61451 1.38679,-0.71077 1.20355,1.17278 3.44879,6.39909 4.98942,11.61403 2.84334,9.62435 13.3583,25.34606 16.95189,25.34606 3.1003,0 -2.35789,-12.05156 -7.19894,-15.89513 -1.65596,-1.31475 -2.55034,-2.85099 -1.98747,-3.41384 0.56287,-0.56286 2.72923,0.68246 4.81414,2.7674 2.08494,2.08492 3.99639,3.58518 4.24766,3.33391 1.65416,-1.65418 -3.43861,-12.17822 -8.10827,-16.7554 -3.06529,-3.0046 -5.559,-6.28785 -5.54163,-7.29612 0.0171,-1.00827 1.20525,-0.3069 2.63968,1.55862 3.18186,4.13807 5.07347,2.03401 3.71835,-4.13591 -0.76414,-3.47908 -0.53086,-4.07586 1.31619,-3.36708 3.44906,1.32352 2.84749,-4.87844 -1.26016,-12.99208 -1.92782,-3.80794 -3.15923,-7.26941 -2.73648,-7.69217 0.42278,-0.42277 1.39217,0.34547 2.15424,1.70719 2.58263,4.61492 4.13881,2.5077 1.97413,-2.67315 -2.85386,-6.83025 -2.71473,-8.59532 0.45167,-5.72978 1.43168,1.29566 2.98212,1.97666 3.44543,1.51334 1.20905,-1.20903 -2.84295,-12.044062 -5.67402,-15.172363 -2.00977,-2.220765 -2.07437,-2.842441 -0.40273,-3.875563 1.5832,-0.978482 1.06211,-2.180588 -2.54423,-5.869246 -2.49438,-2.551306 -4.53522,-5.156994 -4.53522,-5.790417 0,-2.551299 4.29022,-0.922982 6.68596,2.537599 1.40472,2.029103 3.61629,4.850489 4.91457,6.26975 3.66519,4.006722 5.90975,17.76663 4.98424,30.55491 -0.65462,9.04506 -0.49836,10.64507 0.76352,7.81848 0.87262,-1.95462 3.17049,-6.82019 5.1064,-10.81237 l 3.51983,-7.25852 -4.55021,-11.221526 c -4.75664,-11.730543 -7.25935,-24.72617 -4.76182,-24.72617 0.78184,0 1.8024,3.215822 2.26791,7.146273 1.48596,12.546722 12.51998,34.078443 17.4636,34.078443 1.62923,0 1.32308,-1.09004 -1.29758,-4.62001 -4.03647,-5.4371 -6.66559,-12.669695 -6.66559,-18.336789 0,-6.54444 2.12735,-4.657583 3.84527,3.410596 2.17474,10.213533 4.55677,16.007283 5.93968,14.446903 0.63255,-0.7137 2.00672,-6.01992 3.05373,-11.79159 l 1.90364,-10.49395 -5.94962,-5.549743 c -3.27229,-3.052358 -5.94962,-6.166328 -5.94962,-6.919936 0,-0.753609 -1.26977,-1.370197 -2.82173,-1.370197 -1.55194,0 -5.94063,-1.919081 -9.75263,-4.264625 -3.81199,-2.345544 -8.17151,-4.264625 -9.68784,-4.264625 -1.51631,0 -3.45588,-0.698955 -4.31017,-1.553234 -2.08346,-2.083468 -6.50952,0.326013 -10.02893,5.459584 -3.56778,5.204162 -6.59556,21.583833 -5.42844,29.366755 0.92494,6.167901 0.84514,6.317931 -9.01318,16.950141 -5.47049,5.89994 -11.54331,13.87863 -13.49515,17.73041 -3.696,7.29367 -6.56682,8.8096 -16.68343,8.8096 -4.25579,0 -16.75729,5.56768 -16.82584,7.49359 -0.0215,0.60314 3.95904,3.00811 8.8456,5.34436 9.44041,4.51343 17.92397,10.55743 16.64076,11.8555 -0.4252,0.43014 -3.62367,-1.14243 -7.1077,-3.49458 -7.66466,-5.17461 -23.1502,-12.66962 -26.17689,-12.66962 -4.41947,0 -2.01329,2.63659 4.40069,4.82204 7.21647,2.4589 14.54678,7.55154 20.56539,14.28755 5.54774,6.20899 3.82603,6.32614 -3.59564,0.24465 -6.72706,-5.51233 -21.95416,-13.66807 -25.51881,-13.66807 -1.16395,0 -2.49174,1.11946 -2.95065,2.4877 -1.49539,4.45852 -30.26343,20.53882 -40.35538,22.55721 -5.67709,1.13541 -6.10057,-1.71865 -0.58191,-3.92192 2.15007,-0.8584 7.22734,-3.08361 11.28283,-4.94492 4.05549,-1.86131 7.85011,-3.3842 8.43247,-3.3842 2.78461,0 19.10272,-10.99102 19.89411,-13.39963 1.0901,-3.31768 0.967,-15.08717 -0.16973,-16.22384 -0.44823,-0.44824 -2.86873,0.24608 -5.37887,1.54294 -13.71092,7.08372 -28.70323,13.09488 -39.57548,15.86777 -11.51262,2.93621 -12.14747,3.29196 -10.32428,5.78533 1.06848,1.46121 2.33401,4.74272 2.81231,7.29224 0.47828,2.54954 2.08566,5.73601 3.57192,7.08107 1.48627,1.34505 2.70232,2.98611 2.70232,3.64678 0,2.20799 -3.79417,1.23416 -6.39693,-1.64186 -3.42006,-3.77913 -6.54804,-3.52241 -9.69196,0.79544 -4.64409,6.37818 -2.85199,8.35892 8.28348,9.15535 l 9.93773,0.71078 -0.25821,7.60282 c -0.14201,4.18155 -0.48335,7.82798 -0.75852,8.10315 -0.2752,0.2752 -5.10003,-0.18231 -10.72185,-1.01675 -5.62182,-0.8344 -11.11303,-1.17497 -12.20269,-0.75684 -2.28464,0.8767 -3.98823,7.80428 -2.19219,8.9143 0.66296,0.40972 6.1745,1.11133 12.24786,1.55912 6.07338,0.4478 11.28123,1.02905 11.57304,1.29166 0.29179,0.26262 -0.30543,3.30871 -1.32717,6.76911 -1.82366,6.17642 -1.98958,6.30747 -9.05977,7.15713 -3.96116,0.47604 -9.89615,0.87107 -13.18887,0.87787 -5.78411,0.0107 -6.03888,0.20599 -7.5267,5.73132 -0.84698,3.14544 -1.10147,6.42845 -0.56555,7.2956 0.64894,1.05004 4.92969,1.32988 12.81613,0.83787 13.43443,-0.83815 15.23956,0.12389 14.50915,7.73322 l -0.45239,4.71288 -14.40739,1.20535 -14.4074,1.20535 -0.82083,5.05826 c -0.45146,2.78202 -0.5449,5.50471 -0.20769,6.05043 0.33727,0.5457 6.55027,1.43933 13.80668,1.98589 7.25643,0.54651 13.6813,1.47944 14.2775,2.07314 0.59619,0.5937 0.20235,3.59821 -0.87504,6.6767 l -1.95902,5.59725 -13.81617,-0.18167 c -13.43888,-0.17677 -13.79399,-0.0992 -13.00442,2.84308 0.44646,1.66365 0.82051,4.50592 0.83117,6.31614 0.0192,3.18444 0.37702,3.28059 11.03636,2.96183 l 11.01694,-0.32945 0.45375,5.42273 c 0.57876,6.91633 -0.88883,7.7955 -13.05802,7.82265 -9.42472,0.0213 -9.73166,0.13199 -8.90407,3.22021 0.47145,1.75916 0.86591,5.67995 0.87659,8.71289 l 0.0192,5.51437 8.88465,-0.95928 c 4.88653,-0.52762 12.72278,-1.63866 17.41387,-2.46901 z m 53.30782,-61.55219 c 0,-1.84614 3.46891,-7.88538 4.52933,-7.88538 0.67641,0 0.23745,1.91908 -0.97547,4.26463 -1.96717,3.80406 -3.55386,5.42063 -3.55386,3.62075 z m -7.08593,-3.89224 c -0.0107,-1.32208 0.61792,-2.79915 1.39977,-3.28235 1.7991,-1.11192 1.7991,0.76993 0,3.55384 -1.18757,1.83762 -1.38101,1.8001 -1.39977,-0.27149 z m 2.8213,-6.66842 c 0,-0.78186 0.6397,-1.8169 1.42155,-2.30011 0.78186,-0.4832 1.42155,-0.23886 1.42155,0.543 0,0.78183 -0.63969,1.81688 -1.42155,2.30008 -0.78185,0.48322 -1.42155,0.23886 -1.42155,-0.54297 z m 10.65487,-4.07703 c 0.55455,-1.36824 1.66983,-4.40678 2.47843,-6.75233 1.76163,-5.11017 3.93864,-7.852 3.89399,-4.90432 -0.0412,2.71497 -5.2517,14.14434 -6.44831,14.14434 -0.5128,0 -0.47864,-1.11947 0.0759,-2.48769 z m -7.07501,-4.26462 c 0.57252,-1.36824 1.51927,-4.91191 2.10384,-7.87485 1.25485,-6.36015 2.84555,-8.53995 2.84555,-3.89936 0,4.80108 -3.07914,14.26189 -4.64172,14.26189 -0.74173,0 -0.8802,-1.11946 -0.30767,-2.48768 z m 89.53113,-111.23565 c -0.4832,-0.78185 -0.20107,-1.42154 0.62688,-1.42154 0.82798,0 1.50544,0.63969 1.50544,1.42154 0,0.78185 -0.28209,1.42154 -0.62688,1.42154 -0.34478,0 -1.02223,-0.63969 -1.50544,-1.42154 z m 69.15834,174.16659 c -0.12602,-10.07249 0.34066,-16.37546 1.21235,-16.37546 0.80689,0 1.41718,4.28512 1.41718,9.9508 0,5.47292 0.49457,9.95078 1.09908,9.95078 0.60447,0 2.64737,-4.63778 4.53973,-10.30617 4.2277,-12.66357 11.06106,-27.42969 13.71176,-29.62957 2.85094,-2.36608 2.488,-7.73987 -2.34629,-34.74007 -5.71575,-31.92324 -6.42234,-35.43266 -9.14989,-45.44447 -1.278,-4.69108 -2.85625,-10.76817 -3.50724,-13.50463 -3.60579,-15.15737 -6.28222,-23.70431 -8.04767,-25.69969 -1.09211,-1.23434 -1.98565,-3.91528 -1.98565,-5.95765 0,-5.39686 -2.23814,-5.93052 -4.27265,-1.01878 -1.32777,3.20554 -1.35935,4.73001 -0.12858,6.21286 1.24442,1.49943 1.17905,2.13839 -0.27592,2.6967 -4.42472,1.69793 -7.21856,56.84497 -3.97672,78.4959 0.81947,5.47295 1.50262,10.43057 1.5181,11.01696 0.0149,0.58638 0.60528,1.06616 1.31063,1.06616 1.68642,0 4.40369,-7.9179 4.40369,-12.83194 0,-2.13315 0.95954,-4.6748 2.13232,-5.64811 1.17277,-0.97332 2.13231,-2.27139 2.13231,-2.88464 0,-2.37002 8.90066,-20.49311 9.40461,-19.14926 0.29321,0.78185 -1.10275,5.8994 -3.10214,11.37233 -10.99622,30.10017 -15.27236,61.96554 -12.05916,89.86406 1.41236,12.26289 3.91115,21.20329 5.48603,19.6284 0.37898,-0.37897 0.5969,-8.058 0.48423,-17.06451 z m 1.3079,-28.01927 c -0.055,-2.10395 0.53977,-4.2207 1.32163,-4.70392 1.69709,-1.04887 1.69709,1.73681 0,5.68617 -1.09089,2.53862 -1.23243,2.43346 -1.32163,-0.98225 z m -5.56165,-60.85482 c 0,-1.95462 0.32267,-2.75424 0.71702,-1.77692 0.39434,0.97731 0.39434,2.57654 0,3.55384 -0.39435,0.97733 -0.71702,0.17763 -0.71702,-1.77692 z m 1.42155,-12.79388 c 0,-1.9546 0.32266,-2.75422 0.71701,-1.77692 0.39435,0.9773 0.39435,2.57654 0,3.55386 -0.39435,0.97731 -0.71701,0.17762 -0.71701,-1.77694 z m -48.1783,115.57073 c 2.39992,-1.37097 -0.64545,-3.22612 -3.12102,-1.90125 -1.41343,0.75646 -2.86782,1.07746 -3.23195,0.71332 -1.22399,-1.22399 -16.42815,-1.03922 -18.3864,0.22345 -3.83324,2.47165 20.44421,3.41814 24.73937,0.96448 z M 74.101214,319.80132 c 0,-1.4656 -4.206068,-2.52766 -12.083106,-3.05104 -4.274591,-0.28402 -5.686165,0.15161 -5.686165,1.75451 0,1.51203 2.067631,2.34843 7.107708,2.87524 7.697073,0.80454 10.661563,0.36558 10.661563,-1.57871 z M 401.50274,314.1062 c 0.74386,-2.84453 0.418,-2.92445 -8.00963,-1.96461 -4.83175,0.55028 -9.27524,1.2918 -9.87437,1.64776 -2.53784,1.50789 0.69112,2.60575 8.62507,2.93255 7.55654,0.31126 8.56825,0.0254 9.25893,-2.6157 z m 13.82491,-10.25611 c 0.0309,-6.4041 1.02846,-16.44154 2.2165,-22.3054 2.38425,-11.76808 2.79621,-15.1981 3.87554,-32.26771 1.04618,-16.54504 3.69257,-20.31712 3.79072,-5.40313 l 0.0748,11.37233 2.87561,-3.55386 c 1.58164,-1.95461 3.48497,-4.83323 4.22964,-6.39694 0.74466,-1.56369 2.12911,-3.92657 3.07656,-5.25086 2.23253,-3.12045 -0.77228,-28.63588 -3.94196,-33.47342 -2.32917,-3.55475 -1.47209,-6.68659 1.51609,-5.53992 1.392,0.53415 2.07421,-2.49843 2.77638,-12.34158 1.46965,-20.60289 3.36637,-32.99949 6.44914,-42.15057 1.57132,-4.6642 2.85689,-9.08874 2.85689,-9.83232 0,-0.74358 -3.42788,-8.60001 -7.61749,-17.45873 -4.18964,-8.85872 -8.07089,-17.54608 -8.62506,-19.305238 -0.55415,-1.759158 -2.12172,-3.198469 -3.4835,-3.198469 -4.3497,0 -7.9049,22.151677 -6.81337,42.452287 0.90045,16.74624 4.75906,38.64657 8.67512,49.23716 2.49918,6.75877 2.72281,9.24001 0.83288,9.24001 -0.76695,0 -1.80283,-1.62708 -2.30196,-3.61576 -2.29678,-9.15107 -6.63356,2.31556 -9.16332,24.22813 -2.93404,25.41442 -3.17448,31.88556 -1.41779,38.15978 1.40715,5.0259 1.39914,7.90749 -0.0399,14.3378 -0.99056,4.42623 -2.33236,8.37611 -2.9818,8.77749 -1.36771,0.8453 -1.56708,24.33462 -0.27298,32.16306 1.46234,8.84635 3.35332,4.48396 3.41319,-7.87414 z m -338.383351,8.91789 c 1.819801,-1.21928 1.640465,-1.84111 -1.223641,-4.24288 -2.626297,-2.20232 -5.466991,-2.81418 -13.065368,-2.81418 -19.363853,0 -12.167752,7.595 7.892069,8.32954 2.345544,0.0859 5.224168,-0.48673 6.39694,-1.27248 z M 210.06097,299.81622 c -0.50231,-4.80578 -0.91329,-10.24318 -0.91329,-12.08311 0,-1.83993 -0.5851,-3.34532 -1.30024,-3.34532 -0.71513,0 -1.58154,3.99809 -1.92533,8.88462 -0.3438,4.88656 -1.11269,10.32396 -1.70864,12.08312 -0.95056,2.80591 -0.60217,3.19846 2.83862,3.19846 h 3.92215 z m 22.54214,5.18391 c 0,-2.52077 -1.0878,-2.89073 -9.59541,-3.26342 -8.59091,-0.37633 -9.5954,-0.14073 -9.5954,2.25079 0,3.89008 0.53585,4.0966 10.30248,3.97049 7.90237,-0.10214 8.88833,-0.43013 8.88833,-2.95786 z m 106.5117,-0.24172 c 0.50221,-1.30875 0.0919,-2.89369 -0.91408,-3.53209 -3.03244,-1.92413 -3.95738,-1.37436 -3.95738,2.35229 0,4.03815 3.45365,4.87459 4.87146,1.1798 z m 59.09792,-0.46904 c 0,-1.56369 -0.54056,-2.84308 -1.20121,-2.84308 -0.66068,0 -2.35905,1.27939 -3.77418,2.84308 -2.51156,2.77525 -2.4829,2.84308 1.20122,2.84308 2.82647,0 3.77417,-0.7139 3.77417,-2.84308 z m -80.24824,-7.87734 c 0.54131,-4.33254 0.69277,-11.39167 0.33656,-15.687 -0.3562,-4.29529 -0.13689,-7.29892 0.48728,-6.67473 0.62419,0.62421 1.57271,7.36349 2.10783,14.97621 0.87235,12.4101 2.43719,17.0537 4.06558,12.06439 1.37907,-4.22545 2.0484,-29.40677 0.80211,-30.17702 -0.74092,-0.45792 -1.08172,-1.61169 -0.75733,-2.56398 0.92224,-2.70735 -2.80604,-18.82167 -4.28525,-18.52165 -0.72739,0.14756 -2.30044,3.66585 -3.49563,7.81849 -1.1952,4.15261 -3.14695,9.14947 -4.33716,11.10408 -4.65277,7.64078 -5.65588,9.39851 -7.90815,13.85741 -2.26301,4.48009 -2.23247,4.70057 1.02685,7.4158 1.84755,1.53912 3.73166,2.8197 4.18691,2.84572 0.45525,0.026 0.58237,-3.63095 0.28249,-8.12659 -0.41704,-6.2514 -0.18424,-7.6015 0.98952,-5.74033 0.84411,1.33843 1.93127,7.57544 2.41591,13.86003 0.48463,6.28459 1.38001,11.42651 1.9897,11.42651 0.60971,0 1.55147,-3.5448 2.09278,-7.87734 z m 13.87852,1.43513 c 1.01029,-6.2256 -0.38141,-19.14554 -2.06229,-19.14554 -0.67294,0 -1.22354,5.795 -1.22354,12.87778 0,12.78341 1.70173,16.02947 3.28583,6.26776 z m -253.477171,3.86507 c 0,-2.26549 -7.890889,-8.45724 -12.083105,-9.48122 -5.864314,-1.4324 -16.036488,-1.00212 -19.445958,0.82259 -2.698478,1.44417 -2.713296,1.63337 -0.333799,4.26268 1.369508,1.51328 4.461124,3.32376 6.87026,4.02329 5.568522,1.61687 24.992602,1.90652 24.992602,0.37266 z m 4.234368,-9.61404 c -1.874211,-6.69401 -3.292276,-7.44847 -7.714338,-4.10417 -2.679042,2.02608 -2.587033,2.28083 2.826062,7.82433 6.270893,6.42197 7.471974,5.50791 4.888276,-3.72016 z m 261.572173,1.45855 c 0.0107,-2.38465 0.57922,-4.94343 1.26056,-5.68618 0.68136,-0.74275 2.37736,-5.05799 3.76893,-9.58941 1.41169,-4.59701 3.6918,-8.86066 5.15813,-9.64543 4.17391,-2.23379 3.08528,-4.52791 -4.5033,-9.48995 -7.1032,-4.64469 -10.70146,-8.94916 -19.80046,-23.68664 -2.69384,-4.36316 -5.49572,-7.93302 -6.22642,-7.93302 -1.36534,0 -0.65481,7.58087 1.66544,17.76927 2.9153,12.80142 9.85768,37.27491 11.38139,40.12193 0.89724,1.67651 1.63133,4.328 1.63133,5.89218 0,1.5642 0.67643,4.62313 1.50317,6.79762 1.20339,3.16519 1.76603,3.538 2.82131,1.86946 0.72498,-1.14628 1.32796,-4.03521 1.33992,-6.41983 z M 34.941981,293.11552 c 0.852819,-2.53289 2.264299,-5.05303 3.136619,-5.60035 1.7812,-1.1175 8.338164,-16.12788 11.301664,-25.87205 1.070029,-3.51832 1.952431,-10.98141 1.960894,-16.58466 0.0085,-5.60323 0.636813,-10.40093 1.396332,-10.66157 0.75952,-0.26061 1.535624,-6.07116 1.724675,-12.91232 0.359957,-13.02573 1.832846,-16.16232 3.337662,-7.10772 2.148398,12.92708 3.895485,11.42851 5.109899,-4.38306 2.808337,-36.56432 3.147961,-39.40446 4.652316,-38.90567 0.860077,0.28518 1.994158,3.02521 2.520183,6.08898 2.874587,16.74265 2.944922,17.65355 1.363078,17.65355 -0.884792,0 -1.608714,-1.91908 -1.608714,-4.26462 0,-2.34554 -0.639694,-4.26462 -1.421543,-4.26462 -0.830826,0 -1.431797,4.87337 -1.446224,11.72771 -0.01343,6.45025 -0.979301,16.20559 -2.146055,21.67851 -3.320627,15.5762 -6.573579,39.0159 -5.627131,40.54729 0.471873,0.76351 1.729201,1.3882 2.794061,1.3882 1.405557,0 2.085692,-2.82421 2.481974,-10.30617 0.521465,-9.84549 10.123939,-60.42546 12.337448,-64.98613 1.250964,-2.57746 -0.255394,-22.25152 -2.017347,-26.34794 -1.044614,-2.42864 -0.906785,-2.58652 0.945529,-1.08304 1.19262,0.96803 2.979636,4.46772 3.971149,7.7771 l 1.802751,6.01704 1.996444,-3.81034 c 1.451352,-2.77 1.74959,-6.46641 1.092317,-13.5384 -0.784149,-8.43713 -1.54327,-10.42547 -5.720568,-14.98369 -5.657932,-6.17387 -6.199723,-6.34168 -6.199723,-1.9202 0,3.78373 -3.497734,11.62317 -7.07422,15.85537 -1.321424,1.56369 -3.558582,6.04155 -4.971465,9.95079 -2.974171,8.22909 -12.139535,21.71843 -20.304013,29.88292 -5.047641,5.04763 -5.790506,6.68868 -6.746612,14.90392 -1.422749,12.22483 -2.1793,27.52158 -3.048021,61.62804 -0.567814,22.29271 -0.343083,28.10478 1.06851,27.63426 0.983154,-0.32773 2.485313,-2.66822 3.338131,-5.20113 z m 10.382972,-3.86085 c -1.399057,-1.39906 -3.919199,0.74872 -3.919199,3.34009 0,2.16997 0.186983,2.16607 2.403082,-0.0501 1.321695,-1.32171 2.003948,-2.80224 1.516117,-3.29007 z m 28.776261,-5.61319 c 0,-1.27482 -1.76899,-2.52165 -4.294207,-3.02669 -2.361813,-0.47237 -4.638494,-1.41592 -5.059291,-2.09679 -0.877093,-1.41916 -9.621822,-1.69034 -10.971919,-0.34025 -2.140917,2.14093 2.134178,6.06824 7.180381,6.59629 11.586153,1.21235 13.145036,1.07805 13.145036,-1.13256 z m 162.374986,-0.0467 c 0.43621,-0.43618 0.48101,-1.98646 0.0996,-3.445 -0.68413,-2.61616 -8.08089,-5.06446 -18.18809,-6.0202 -3.85452,-0.3645 -4.30679,0.0318 -4.70291,4.12048 -0.40362,4.1662 -0.0665,4.56959 4.26463,5.1033 7.77266,0.9578 17.68129,1.08691 18.52679,0.24142 z m -26.80296,-5.24856 c 1.33445,-4.97941 1.07316,-6.38015 -1.36461,-7.31562 -3.72388,-1.42897 -4.66719,0.28247 -3.05358,5.54009 1.76267,5.74328 3.20009,6.32092 4.41819,1.77553 z m 97.12887,-5.68615 c 3.16361,-5.42946 9.78665,-23.79311 11.15108,-30.91853 1.47296,-7.69215 -1.30447,-3.71281 -6.44918,9.24001 -2.48432,6.25478 -5.88591,14.25095 -7.55905,17.76927 -1.67316,3.51831 -3.27014,6.87671 -3.54883,7.46309 -0.27867,0.58639 0.44295,1.06616 1.60365,1.06616 1.1607,0 3.32176,-2.07901 4.80233,-4.62 z m -95.6742,-6.15782 c 1.4607,-3.80654 0.95686,-9.18425 -0.91407,-9.75614 -10.96148,-3.35052 -12.72968,-1.95388 -8.95718,7.07497 1.55379,3.71875 2.91325,4.92974 5.53408,4.92974 1.91088,0 3.86261,-1.01185 4.33717,-2.24857 z m 24.11989,-11.44928 c 5.73127,-0.78559 6.59532,-1.34427 6.59532,-4.26463 0,-3.28094 -0.29941,-3.36065 -12.62806,-3.36065 -11.82894,0 -12.69626,0.20236 -13.70523,3.19847 -1.04315,3.09761 -1.09605,3.07667 -1.67715,-0.66319 -0.48567,-3.12572 -1.56082,-4.04193 -5.64127,-4.80743 -5.30255,-0.99476 -7.93795,0.87593 -7.19753,5.10907 0.71435,4.0841 19.86287,6.76086 34.25392,4.78836 z M 76.278668,234.89918 c 1.030533,-4.43323 1.553905,-8.38018 1.163044,-8.77103 -1.755819,-1.75583 -7.512231,13.85479 -7.577702,20.54969 -0.0506,5.17355 4.35408,-2.91436 6.414658,-11.77866 z m 333.958452,-1.33152 c 2.54811,-20.82347 5.47817,-35.62125 8.4475,-42.66255 2.73925,-6.49572 3.08801,-8.74721 1.90812,-12.31771 -0.79412,-2.40301 -2.1115,-9.32673 -2.92752,-15.38605 -0.81601,-6.05932 -1.92145,-11.01695 -2.45648,-11.01695 -1.4033,0 -5.16547,10.60226 -7.56643,21.32313 -4.55701,20.34804 -5.3743,27.56715 -3.86339,34.12495 0.80962,3.51393 1.48765,11.8797 1.50676,18.59056 0.0192,6.71085 0.46122,12.62802 0.98246,13.14924 2.13594,2.13596 3.18508,0.60159 3.96898,-5.80462 z m 0.16206,-34.30502 c -0.91698,-1.4837 1.61215,-20.12609 2.90593,-21.41986 0.71484,-0.71484 -0.91105,21.54672 -1.63697,22.41322 -0.20726,0.24748 -0.77836,-0.19958 -1.26896,-0.99336 z M 91.087903,221.45979 c 6.729792,-13.10865 6.718708,-17.71844 -0.02326,-9.67655 -4.797814,5.72288 -8.100824,12.29921 -9.373552,18.66284 -1.64741,8.23706 2.678398,4.10025 9.396816,-8.98629 z m 310.993867,4.59061 c -0.75232,-5.60887 -4.32932,-12.74046 -6.3895,-12.73894 -2.0442,10e-4 -0.90427,10.9829 1.52495,14.69035 3.6985,5.64462 5.77183,4.81289 4.86455,-1.95141 z M 243.6284,224.88791 c 0.72844,-0.72844 1.09736,-2.51184 0.81984,-3.96312 -0.41815,-2.1866 -2.3286,-2.79669 -11.15027,-3.56087 -5.85512,-0.50719 -13.52428,-1.61101 -17.0426,-2.45292 -9.35564,-2.23882 -9.95077,-2.07766 -9.95077,2.69481 0,3.36381 0.84761,4.62963 3.90924,5.83801 2.15009,0.8486 4.86876,2.10323 6.04153,2.78804 2.68203,1.56615 25.58754,0.44154 27.37303,-1.34395 z m -143.30412,-4.11413 c 3.36077,-5.09145 7.89394,-16.13702 7.89394,-19.23446 0,-0.80474 -1.27869,-0.30595 -2.84153,1.10841 -3.09954,2.80504 -11.37389,18.48351 -11.37389,21.55157 0,3.47119 2.754283,1.9787 6.32148,-3.42552 z m -19.630915,-4.26462 c 4.940726,-6.23397 7.090023,-11.42104 8.39364,-20.25696 1.218284,-8.25754 -0.417948,-6.62366 -7.117926,7.1077 -2.861167,5.86386 -5.801914,11.77235 -6.534995,13.12998 -3.758035,6.9597 -0.25151,6.97254 5.259281,0.0192 z m 34.063965,-2.77298 c 0.18468,-1.40679 0.78261,-3.9971 1.32875,-5.75626 0.60733,-1.95627 0.39639,-3.19847 -0.54311,-3.19847 -2.05451,0 -8.74629,9.97657 -8.74629,13.03955 0,2.17863 0.39269,2.22507 3.81243,0.4509 2.09685,-1.08786 3.96354,-3.12893 4.14822,-4.53572 z m 46.50811,-5.41914 c 0.64535,-4.68104 1.76761,-9.11871 2.49391,-9.86145 2.1018,-2.14944 1.53,-6.46801 -0.85638,-6.46801 -1.19732,0 -2.52267,-0.90099 -2.94524,-2.00216 -0.42257,-1.1012 -2.57664,-2.75121 -4.78684,-3.6667 -3.7367,-1.54779 -4.35269,-1.29532 -8.7825,3.59936 -2.62017,2.89515 -6.15952,6.76943 -7.86522,8.60951 -4.07885,4.4002 -10.40337,12.71686 -10.40337,13.68028 0,0.41862 3.67824,1.1288 8.17387,1.57818 4.49562,0.44939 10.73264,1.41891 13.86003,2.15446 9.22959,2.17087 9.817,1.76786 11.11174,-7.62347 z m 229.83959,7.65439 c 0,-2.03192 -8.25457,-16.53858 -10.03795,-17.64078 -0.73392,-0.45358 -1.33406,-0.62702 -1.33367,-0.38543 0.002,1.465 6.19223,16.38459 7.40693,17.85317 1.83003,2.21256 3.96469,2.30572 3.96469,0.17315 z m -267.71251,-7.03934 c 0.91831,-1.89192 2.35547,-5.99865 3.1937,-9.12605 1.77581,-6.6255 3.84458,-10.24593 5.12373,-8.9668 0.49591,0.49591 -0.16914,2.5359 -1.4779,4.5333 -1.30874,1.9974 -2.14175,4.34501 -1.85111,5.21692 0.68786,2.06358 15.37582,-14.80904 15.37582,-17.66278 0,-2.99348 3.04095,-9.41915 4.45762,-9.41915 0.637,0 0.51643,1.68795 -0.26795,3.75101 -2.27043,5.97168 -0.64689,5.50472 6.70868,-1.9295 3.77901,-3.81943 8.47016,-8.01319 10.42478,-9.31949 l 3.55385,-2.37507 -3.35594,-2.88196 c -2.14804,-1.84464 -5.47384,-2.91143 -9.24003,-2.96387 -3.23624,-0.0451 -8.38829,-0.52681 -11.44901,-1.07057 -5.12266,-0.91007 -5.74922,-1.53954 -7.88377,-7.9203 -2.1191,-6.33463 -8.85983,-15.09342 -11.61583,-15.09342 -0.62438,0 -4.13603,-1.90304 -7.80366,-4.22898 -7.69597,-4.88064 -14.61197,-12.42365 -14.69568,-16.02799 -0.15743,-6.77894 -7.015544,2.88792 -11.506416,16.21887 -4.102459,12.17797 -3.916916,34.54891 0.232236,28.00069 0.672146,-1.06078 1.231878,-4.55193 1.243849,-7.75812 0.02452,-6.56561 2.484476,-14.78293 4.425457,-14.78293 1.736323,0 1.628963,1.23995 -0.808665,9.33957 -3.05309,10.14465 -0.267665,11.34087 3.989999,1.71353 3.35251,-7.58061 5.98442,-10.75138 7.59082,-9.14498 0.4242,0.4242 -0.5779,2.66601 -2.22689,4.9818 -3.1524,4.42715 -3.84506,7.3255 -1.75068,7.3255 0.68612,0 2.04383,-0.95954 3.01715,-2.13231 0.97331,-1.17278 2.67338,-2.13232 3.77792,-2.13232 1.10455,0 3.60496,-1.04619 5.55647,-2.32487 3.896,-2.55275 6.95176,-1.29873 3.35043,1.37494 -3.32677,2.46985 -7.36164,9.16336 -6.4312,10.66884 0.44688,0.72307 -4.29568,6.55499 -10.53903,12.95982 -6.243357,6.40481 -11.351555,12.84022 -11.351555,14.30089 0,3.70542 2.940911,5.13841 4.570269,2.22692 2.339718,-4.18086 9.872726,-12.19724 11.461746,-12.19724 0.83714,0 0.12804,1.48389 -1.57578,3.29752 -3.20291,3.40934 -17.679309,30.91334 -16.756548,31.83609 0.28625,0.28627 2.820738,-0.83674 5.632196,-2.49555 3.889697,-2.29496 5.345559,-4.26287 6.089772,-8.23162 1.45908,-7.78101 5.57307,-14.46439 13.0367,-21.17873 5.69407,-5.12244 6.22227,-6.01665 3.56868,-6.04155 -1.71302,-0.016 -3.50993,0.61045 -3.99314,1.3923 -1.10614,1.78976 -3.55385,1.8597 -3.55385,0.10149 0,-0.72601 1.10128,-2.42128 2.4473,-3.76729 3.05562,-3.0556 6.08195,-8.79007 6.08195,-11.52443 0,-2.70586 3.84396,-6.51005 5.88924,-5.82828 1.05258,0.35085 0.84139,1.29092 -0.61782,2.75013 -1.85679,1.85679 -6.69296,11.6111 -6.69296,13.49936 0,0.31346 1.59923,-0.47792 3.55385,-1.75865 1.95462,-1.28071 3.55386,-3.17679 3.55386,-4.21349 0,-1.98082 2.58864,-4.20255 3.65459,-3.1366 0.3423,0.3423 -0.4067,2.68516 -1.66444,5.20635 -2.84265,5.69825 -1.2996,7.72349 2.27447,2.98524 1.45675,-1.93127 3.10339,-3.05663 3.6592,-2.50082 1.42837,1.42838 -1.97227,5.14071 -8.46175,9.23733 -7.67959,4.84792 -11.86201,9.66066 -16.69113,19.20663 -3.16439,6.25523 -3.64526,8.17386 -2.04858,8.17386 1.14752,0 3.23573,-1.68864 4.64047,-3.75257 3.7345,-5.48693 18.90039,-20.2216 21.74153,-21.12334 1.34184,-0.4259 3.4393,-3.31906 4.66103,-6.42925 1.22172,-3.11021 2.91247,-5.65493 3.75721,-5.65493 2.10489,0 1.96381,0.65099 -1.30187,6.0072 -3.63468,5.96142 -3.63324,7.93759 0.003,4.64648 1.56849,-1.41947 3.32765,-2.10323 3.90924,-1.5195 0.58159,0.58374 -0.54179,2.34173 -2.49641,3.90664 -8.78135,7.03055 -11.00632,9.3324 -13.95092,14.43299 -1.72726,2.99196 -2.81551,5.96572 -2.41832,6.6084 0.39718,0.64266 -0.54091,3.95195 -2.08465,7.35397 -1.54374,3.40202 -2.82085,7.0384 -2.83802,8.08086 -0.0478,2.90491 3.31783,1.14169 5.19229,-2.72014 z m -22.99278,-79.49235 c 0.48321,-0.78185 1.16065,-1.42155 1.50543,-1.42155 0.34479,0 0.62688,0.6397 0.62688,1.42155 0,0.78184 -0.67745,1.42154 -1.50544,1.42154 -0.82799,0 -1.110082,-0.6397 -0.62687,-1.42154 z m 299.95791,76.40787 c -1.14075,-7.26933 -10.05422,-26.65391 -12.25607,-26.65391 -0.92205,0 -1.15658,1.02236 -0.57069,2.48769 0.54709,1.36824 1.33235,6.32587 1.74504,11.01695 0.6452,7.33379 1.46413,9.27641 5.84284,13.86003 2.80088,2.93193 5.33875,5.33079 5.63973,5.33079 0.30098,0 0.12048,-2.7187 -0.40085,-6.04155 z M 119.93721,194.11989 c 1.58796,-3.1274 4.08762,-7.22314 5.5548,-9.10165 3.37666,-4.32332 2.19411,-5.73079 -1.80096,-2.14352 -4.8653,4.36868 -14.27322,18.97604 -13.26855,20.60163 1.31744,2.13167 6.03908,-2.51144 9.51471,-9.35646 z m -40.351987,4.62 c 1.052378,-2.54099 3.127617,-7.33175 4.61164,-10.64606 1.484026,-3.31434 2.698227,-6.35842 2.698227,-6.76464 0,-1.61437 9.118022,-13.22797 16.1856,-20.61554 6.35812,-6.64599 10.5966,-12.79387 8.82037,-12.79387 -5.66143,0 -19.491481,12.03376 -24.12272,20.98959 -3.122547,6.03834 -12.255584,30.81646 -12.255584,33.24966 0,2.78909 2.289258,0.86235 4.062467,-3.41914 z m 298.167247,2.37143 c -0.47459,-1.2367 -0.86286,-2.78674 -0.86286,-3.4445 0,-1.67527 -8.44494,-9.94387 -10.15593,-9.94387 -2.43561,0 0.31908,6.18661 4.90543,11.01694 4.69469,4.9444 7.52147,6.04097 6.11336,2.37143 z M 247.5293,197.14065 c 0,-2.64407 -0.96327,-3.56881 -4.44231,-4.26462 -7.86917,-1.57382 -13.67828,-1.03253 -14.59641,1.36011 -2.15201,5.60807 -1.17876,6.28069 9.08792,6.28069 9.52683,0 9.9508,-0.14393 9.9508,-3.37618 z m -22.65439,-1.83666 c 1.69595,-4.46072 0.49742,-5.57014 -7.47214,-6.91659 -6.44704,-1.08922 -8.25509,-0.13561 -8.25509,4.35421 0,2.64762 1.05308,3.73338 4.62001,4.76328 7.66447,2.21302 9.5728,1.8349 11.10722,-2.2009 z M 39.984212,188.34851 c 0,-3.31985 3.269671,-9.24954 4.816041,-8.73408 1.43833,0.47945 4.805911,-3.93144 9.596006,-12.56892 2.016682,-3.63647 3.207713,-8.22475 6.363531,-24.51465 0.802656,-4.14319 3.390631,-2.6785 3.390631,1.91896 0,5.93436 2.275314,3.81427 4.02048,-3.7462 1.617743,-7.00845 2.341731,-25.4793 0.998692,-25.4793 -0.36685,0 -3.257472,1.35023 -6.423607,3.00051 -5.465879,2.84897 -10.287782,3.06821 -15.716816,0.7146 -2.539529,-1.10095 -4.376714,6.48988 -7.014025,28.98035 -0.870981,7.42755 -2.193791,18.16855 -2.93958,23.86889 -2.008999,15.35553 -1.81066,20.28416 0.776334,19.29144 1.172772,-0.45005 2.132313,-1.67926 2.132313,-2.7316 z m 321.268438,-0.45415 c 0,-1.75383 -11.06186,-12.96529 -12.79229,-12.96529 -3.10538,0 -1.13184,4.19696 4.26714,9.07461 5.57504,5.03671 8.52515,6.38309 8.52515,3.89068 z m -133.06626,-2.41999 c 1.18684,-3.09284 1.08255,-6.29043 -0.20321,-6.23338 -2.28522,0.10135 -7.6307,5.63917 -6.77688,7.0207 1.39142,2.25135 6.01423,1.72993 6.98017,-0.78732 z m 174.28839,-11.96684 c 1.0021,-5.08201 4.29123,-14.06063 7.30922,-19.95249 4.85869,-9.48537 5.48723,-11.87715 5.48723,-20.88001 0,-9.27199 -0.36908,-10.57164 -4.19046,-14.7555 -5.412,-5.9254 -7.06231,-4.60528 -11.22098,8.97604 -1.74519,5.69945 -4.19634,13.67204 -5.44703,17.71685 -2.34798,7.59359 -1.78748,12.51447 1.30787,11.48269 0.97409,-0.3247 2.13471,-2.77674 2.57914,-5.449 0.87864,-5.2828 3.99566,-11.91136 5.08768,-10.81933 0.37386,0.37386 -0.6375,4.6923 -2.24748,9.59655 -1.60998,4.90423 -2.92724,10.37262 -2.92724,12.15198 0,1.77934 -0.60743,3.6106 -1.34988,4.06945 -1.24081,0.76687 -0.68449,12.98481 0.80578,17.69589 1.10317,3.48737 2.90747,-0.20413 4.80615,-9.83312 z m -180.5198,6.75232 c 1.16537,-1.75915 2.53131,-5.75724 3.03539,-8.88463 0.50408,-3.1274 1.37831,-7.12548 1.94273,-8.88464 0.95751,-2.98436 0.61067,-3.19919 -5.18114,-3.2092 -16.28815,-0.0282 -34.18244,-5.50304 -43.37264,-13.27011 -6.61001,-5.58643 -8.93277,-4.58456 -3.27212,1.41137 2.90337,3.07532 3.88553,4.83064 2.41118,4.30923 -3.27322,-1.15758 -3.17055,0.81545 0.20118,3.86684 1.47889,1.33836 2.41085,3.51652 2.07102,4.84033 -0.79379,3.09227 7.93767,12.12257 14.06652,14.54796 2.54596,1.00752 5.72229,2.76147 7.0585,3.89768 2.58689,2.19967 9.48323,4.18869 15.35321,4.42813 2.23515,0.0911 4.35857,-1.0489 5.68617,-3.05296 z m -24.53502,-9.15377 c -1.36823,-0.35755 -2.48769,-1.24289 -2.48769,-1.9674 0,-1.90852 1.90033,-1.61937 5.05908,0.76979 2.76511,2.09141 2.07637,2.4122 -2.57139,1.19761 z m -9.39208,-11.26005 c -4.18833,-2.74355 -7.2308,-5.37262 -6.76104,-5.84238 0.46976,-0.46976 1.97751,0.12651 3.35053,1.325 1.37303,1.19853 4.89527,3.29319 7.8272,4.65482 2.93193,1.36162 5.33078,3.04248 5.33078,3.73524 0,2.06408 -1.7392,1.37309 -9.74747,-3.87268 z m 50.97217,9.66857 c 0,-5.74992 -3.04778,-9.37875 -6.86065,-8.16859 -2.4824,0.78788 -3.09015,2.08026 -3.09015,6.57115 0,5.44131 0.13263,5.59037 4.97541,5.59037 4.50528,0 4.97539,-0.37728 4.97539,-3.99293 z m -66.14793,-12.71019 c -0.58365,-1.36823 -2.1201,-6.19188 -3.4143,-10.7192 -2.13879,-7.4818 -12.76156,-23.75319 -15.50725,-23.75319 -0.56737,0 -2.10141,-1.8111 -3.409,-4.02468 -1.82596,-3.09109 -4.12287,-4.42158 -9.90191,-5.73573 -8.71659,-1.98214 -20.2007,-9.79677 -23.6437,-16.088914 -1.29844,-2.372923 -3.52079,-5.683662 -4.93855,-7.357195 -2.54693,-3.00642 -2.56462,-2.974821 -1.47993,2.643377 0.6038,3.12739 1.12409,8.361752 1.1562,11.631922 0.0768,7.81498 5.03638,13.01668 18.97999,19.90635 8.33753,4.11965 10.86963,6.12244 12.1116,9.57982 0.86364,2.40418 1.49989,4.69109 1.41389,5.08202 -0.086,0.39092 -0.58596,3.3386 -1.11099,6.5504 l -0.95462,5.83964 9.28181,0.74506 c 7.26043,0.58279 10.24501,1.55552 13.70456,4.46654 5.1872,4.36474 9.33056,5.02759 7.7122,1.23378 z m 64.60136,-2.54188 c 10.19753,-0.78778 16.75207,-2.1592 24.65877,-5.15939 4.09803,-1.555 11.08809,-4.10146 15.53345,-5.65882 8.2262,-2.88189 15.3345,-8.29578 8.62062,-6.56571 -4.70241,1.21176 -3.99171,0.40078 3.90923,-4.46072 4.67343,-2.87559 7.10772,-5.33986 7.10772,-7.19528 0,-1.55203 1.277,-4.91633 2.83777,-7.47624 3.48989,-5.72396 3.5625,-7.03121 0.3607,-6.49361 -4.04508,0.6792 -4.10318,-6.48212 -0.074,-9.11624 4.74719,-3.103535 9.66934,-4.449937 9.66934,-2.644958 0,0.834538 -1.18026,1.517338 -2.62277,1.517338 -1.44253,0 -3.84138,1.37981 -5.33078,3.06625 -2.69795,3.05484 -2.6948,3.06257 0.84582,2.07699 1.95463,-0.5441 5.66219,-1.37268 8.23902,-1.84128 3.25048,-0.59112 5.33595,-2.1105 6.81042,-4.96182 2.77444,-5.36515 1.63958,-6.869392 -5.18254,-6.869392 -5.79736,0 -6.8265,-1.05023 -3.89843,-3.978303 2.3438,-2.343793 2.57646,-18.164941 0.37546,-25.531823 -2.21573,-7.416179 -14.49832,-20.637903 -21.93695,-23.614256 -9.90615,-3.963657 -14.60517,-4.118988 -25.00327,-0.826505 -14.21137,4.499913 -21.9458,9.598025 -21.949,14.467564 -0.002,3.509784 0.38179,3.796836 4.08841,3.05551 4.25829,-0.851658 10.12448,1.368849 10.12448,3.832384 0,0.930456 -0.9499,0.913176 -2.74964,-0.05 -3.29248,-1.762082 -8.62192,-1.879274 -11.19699,-0.246221 -1.02496,0.649991 -2.8103,5.917669 -3.96746,11.705951 -1.15715,5.788284 -2.73864,12.147197 -3.51444,14.130921 -2.15444,5.509105 3.39471,22.41357 8.76602,26.70402 2.27328,1.81583 4.13324,4.02277 4.13324,4.90432 0,1.13216 -0.50091,1.10191 -1.70585,-0.10303 -4.70561,-4.70561 -5.49067,2.19631 -1.07388,9.44091 1.93825,3.17918 3.6202,4.47186 5.08636,3.90924 1.20479,-0.46232 3.8059,-0.84059 5.78023,-0.84059 2.71703,0 3.37598,-0.55683 2.71068,-2.29059 -0.6891,-1.79579 -0.33812,-2.03034 1.62484,-1.08583 6.48225,3.11904 20.77937,0.29919 25.95926,-5.11999 2.65531,-2.77797 6.92234,-5.53877 9.95078,-6.43821 l 3.55393,-1.05549 -3.55386,3.88144 c -6.71547,7.33448 -14.71462,11.76571 -24.21105,13.41199 -5.05735,0.87673 -11.4341,1.98666 -14.17058,2.4665 -2.73646,0.47985 -7.3365,0.85369 -10.22229,0.83076 l -5.24685,-0.0417 -0.95847,7.67135 c -0.52718,4.21925 -1.51644,7.67135 -2.1984,7.67135 -0.68195,0 -2.92434,-2.7187 -4.98306,-6.04156 -2.05875,-3.32285 -5.38495,-7.80071 -7.39152,-9.95079 -3.62945,-3.88901 -7.38104,-5.1701 -7.38104,-2.52047 0,2.81546 -7.71303,6.31278 -16.17362,7.33359 -6.23161,0.75188 -10.82285,0.44121 -16.16644,-1.09392 -4.1047,-1.17921 -7.4631,-2.28778 -7.4631,-2.46348 0,-0.17571 5.59733,-0.30821 12.43849,-0.29445 6.84117,0.0139 14.34187,-0.48517 16.66822,-1.10873 l 4.22975,-1.13375 -3.51898,-2.70395 -3.51895,-2.70395 5.40137,-0.0316 c 7.88078,-0.0461 13.3428,-3.3606 14.65264,-8.89154 0.60496,-2.5546 0.99389,-5.07702 0.86429,-5.60539 -0.12965,-0.52837 -0.49773,-7.24516 -0.81806,-14.92619 -0.32032,-7.681034 -1.32884,-15.853521 -2.24115,-18.161082 l -1.65872,-4.195568 -3.24492,4.069489 c -1.92927,2.419537 -3.92602,3.648515 -4.92488,3.031185 -0.924,-0.571068 -1.31197,-1.633795 -0.86214,-2.36162 0.44981,-0.727818 -0.4993,-1.323311 -2.10914,-1.323311 -1.65406,0 -2.92698,0.927322 -2.92698,2.132313 0,1.172772 0.63969,2.132312 1.42154,2.132312 0.78185,0 1.42154,0.639694 1.42154,1.421543 0,2.180172 -2.18312,1.700905 -5.87696,-1.290192 l -3.34884,-2.711732 4.59996,-4.395976 c 2.52998,-2.417787 5.72525,-4.405772 7.1006,-4.417745 1.37534,-0.01194 3.40144,-0.59203 4.50241,-1.289021 5.09195,-3.223515 -11.43606,-21.880878 -19.69061,-22.227408 -2.57847,-0.108258 -3.76616,-1.046915 -4.08823,-3.23103 -0.29551,-2.00393 -1.78406,-3.368813 -4.26462,-3.910307 -2.09588,-0.457515 -4.54925,-1.054757 -5.45193,-1.327203 -3.16587,-0.955519 -17.22304,3.148595 -21.98229,6.417912 -6.05016,4.156097 -9.12295,7.755577 -12.66761,14.838885 -3.86053,7.714534 -3.52063,14.127309 1.52459,28.763652 5.39756,15.658464 5.32032,15.250254 2.90032,15.327904 -3.14481,0.1009 -3.19503,2.50622 -0.15638,7.49043 3.42722,5.62159 12.3539,9.8451 16.03027,7.58446 2.11464,-1.30032 2.48769,-0.99497 2.48769,2.03618 0,2.22199 -0.80362,3.5659 -2.13231,3.5659 -1.17277,0 -2.13231,0.90493 -2.13231,2.01096 0,3.20972 15.68143,17.77069 23.40796,21.73544 8.08209,4.14719 27.19492,7.67788 35.58602,6.57374 3.12738,-0.41151 8.50852,-0.96624 11.95807,-1.23272 z m 16.917,-8.73536 c 1.02616,-0.41064 2.25224,-0.36015 2.72463,0.11216 0.47235,0.47238 -0.36725,0.80834 -1.86577,0.74662 -1.65604,-0.0682 -1.99286,-0.40506 -0.85886,-0.85884 z m 20.16812,-5.27378 c 0,-0.30728 0.95954,-0.9269 2.13231,-1.37693 1.17277,-0.45004 2.13231,-0.19862 2.13231,0.55868 0,0.75731 -0.95954,1.37693 -2.13231,1.37693 -1.17277,0 -2.13231,-0.25141 -2.13231,-0.55868 z m 15.48296,-13.73958 c 1.86991,-1.55723 3.74229,-2.48888 4.16084,-2.07033 0.90645,0.90644 -4.10165,4.90674 -6.13916,4.90375 -0.78183,-0.001 0.10832,-1.27618 1.97832,-2.83342 z m -75.4121,-10.72372 c 3.34859,-2.34543 5.49367,-1.91985 3.83669,0.76119 -0.51538,0.83387 -2.32098,1.51612 -4.0125,1.51612 h -3.07549 z m -54.72519,-4.18094 c -0.46299,-1.20649 -0.45837,-2.57703 0.01,-3.04565 1.01245,-1.01246 5.18536,2.19992 5.18536,3.99179 0,2.14523 -4.31059,1.36027 -5.19563,-0.94614 z m 44.99879,1.16934 c 0,-2.12299 3.2788,-4.66188 6.02049,-4.66188 1.43484,0 4.18549,-1.03311 6.11261,-2.29581 3.04187,-1.9931 3.50384,-2.01466 3.50384,-0.16348 0,1.17277 -1.44869,3.08153 -3.21932,4.24169 -3.99383,2.61686 -12.41762,4.57023 -12.41762,2.87949 z m 49.04318,-6.08342 c -0.48321,-0.78185 -2.46012,-1.42155 -4.39314,-1.42155 -2.0512,0 -3.89527,-1.03581 -4.4289,-2.48769 -0.50291,-1.36824 -1.76221,-2.999258 -2.79849,-3.624495 -2.72859,-1.646316 -2.31126,-3.838604 0.73078,-3.838604 1.43821,0 3.30682,1.518575 4.15249,3.374613 1.03347,2.268246 3.20551,3.687516 6.62512,4.329036 3.06671,0.57533 5.08755,1.77582 5.08755,3.02233 0,2.34046 -3.63643,2.81287 -4.97541,0.64636 z m -53.30781,-4.26463 c 0,-3.333629 -0.24646,-3.27666 5.50374,-1.27213 3.43247,1.19657 5.01572,1.14829 6.64342,-0.20257 2.59428,-2.153062 3.8797,-1.195426 2.6604,1.98201 -0.66245,1.7263 -2.71125,2.33577 -7.85194,2.33577 -6.00792,0 -6.95562,-0.38736 -6.95562,-2.84308 z m 53.30781,-5.084601 c -3.12738,-1.867285 -6.29235,-3.608276 -7.0332,-3.86887 -2.00305,-0.704548 1.6606,-8.594612 4.94246,-10.644178 3.31149,-2.068058 3.64012,-0.534541 0.71441,3.333606 -2.71716,3.592405 -2.72833,6.313251 -0.026,6.313251 1.18339,0 3.42232,0.79357 4.97541,1.763489 2.24948,1.404831 3.40202,1.402381 5.66688,-0.01216 3.79534,-2.370231 3.98299,1.040921 0.24344,4.425174 -3.09968,2.805179 -2.43721,2.896719 -9.48348,-1.310426 z m -68.55949,-0.732161 c 1.38469,-0.806128 2.18366,-2.006008 1.77552,-2.666402 -0.85039,-1.375951 -6.27725,-0.307499 -8.91312,1.754832 -2.53946,1.986895 -2.31608,-2.321057 0.39189,-7.55768 2.51597,-4.865344 0.44983,-5.672983 -2.76629,-1.081325 -1.19912,1.711987 -2.5711,2.721814 -3.04887,2.244058 -1.34872,-1.348717 5.0945,-9.296755 8.19356,-10.107179 1.52173,-0.39794 4.97502,-0.36518 7.67399,0.0728 3.85752,0.62599 4.73864,1.327478 4.11912,3.279399 -0.47079,1.483318 0.0876,2.819058 1.38658,3.317567 2.59209,0.994677 3.00885,10.191186 0.53123,11.722438 -1.17295,0.724927 -1.38977,-0.25267 -0.75732,-3.414843 1.24703,-6.235187 -0.94792,-6.778827 -3.73891,-0.926044 -1.38842,2.911547 -3.36684,4.896898 -4.85427,4.871287 -2.39564,-0.04126 -2.39533,-0.11039 0.007,-1.50891 z m 27.11456,-0.641483 c -0.46298,-1.206493 -0.48546,-2.549935 -0.0499,-2.985432 1.24484,-1.244859 3.82404,0.866644 3.82404,3.130634 0,2.727733 -2.71168,2.623405 -3.77408,-0.145211 z M 167.20025,85.352606 c -0.48978,-0.79248 0.60063,-4.150873 2.42313,-7.463094 3.0932,-5.621631 3.76148,-6.051041 10.04663,-6.455493 8.02673,-0.516525 9.04108,1.83314 1.32408,3.067139 -4.44205,0.710312 -5.98297,1.886293 -8.62021,6.578624 -3.46395,6.16326 -3.82234,6.459253 -5.17363,4.272824 z m 102.71833,-3.283657 c -7.07817,-5.795363 -4.42644,-11.963129 5.72899,-13.325256 4.45487,-0.597526 6.26757,-0.06224 9.65115,2.849942 4.74316,4.082334 3.90659,6.722047 -1.0337,3.261737 -5.13896,-3.599472 -7.98871,-2.926397 -4.28804,1.01278 1.69998,1.809549 3.04756,4.848094 2.99466,6.752324 l -0.0962,3.462234 -1.54256,-3.198469 c -0.84842,-1.759158 -2.72419,-3.198469 -4.16841,-3.198469 -3.02225,0 -3.37485,1.525472 -0.92001,3.980318 3.16774,3.167753 -2.14429,1.826577 -6.32587,-1.597141 z m -74.5672,-7.806492 c -3.2787,-4.434669 -2.52207,-7.486883 2.96454,-11.958963 6.52009,-5.314437 9.00014,-1.795292 2.79047,3.959624 -2.07716,1.925052 -3.34993,3.926814 -2.82838,4.44836 0.52153,0.521547 1.84888,-0.283416 2.94965,-1.788808 3.37871,-4.620659 3.95961,-1.287334 0.72967,4.187005 -1.6727,2.835006 -3.17763,5.154555 -3.3443,5.154555 -0.16666,0 -1.6344,-1.800798 -3.26165,-4.001773 z m 50.51612,2.244007 c -2.56766,-2.042787 -4.49734,-11.997544 -2.55798,-13.196139 1.85696,-1.147668 12.24175,4.473801 13.2845,7.191137 1.60897,4.192969 0.92423,5.39486 -1.71355,3.007693 -3.50642,-3.173262 -4.77487,-2.959854 -4.24205,0.713698 0.53515,3.689643 -1.67431,4.747198 -4.77092,2.283611 z M 270.27397,65.62446 c 0,-1.536802 7.09461,-3.484134 8.30044,-2.278307 1.15277,1.152775 -2.71376,3.49686 -5.81273,3.523975 -1.36824,0.01194 -2.48771,-0.548576 -2.48771,-1.245668 z M 85.473549,136.78222 c 0,-2.21642 -1.313547,-8.03111 -2.918991,-12.92154 -1.605446,-4.89043 -2.636389,-9.63386 -2.290986,-10.54095 0.697552,-1.83191 5.209977,7.70836 5.209977,11.01505 0,3.05693 2.400635,4.04374 3.413863,1.40331 0.477783,-1.24508 -0.156533,-5.23949 -1.409587,-8.87647 -3.49995,-10.15859 -3.955905,-20.985605 -1.437496,-34.134413 2.742872,-14.320748 2.770157,-15.895423 0.217054,-12.526889 -1.082859,1.428707 -2.384141,5.617309 -2.891742,9.308005 -0.80286,5.837492 -3.147986,12.191843 -3.737912,10.128242 -1.140013,-3.987842 -0.602459,-9.034875 1.610802,-15.123679 2.926604,-8.051237 2.628099,-9.042532 -2.722948,-9.042532 -5.592576,0 -19.089233,15.261209 -25.863969,29.245427 -8.161231,16.846169 -7.468967,20.508539 3.876527,20.508539 4.520277,0 5.195367,-0.57254 7.961825,-6.75233 2.756918,-6.15848 3.097139,-6.44904 3.868516,-3.30386 1.18447,4.82953 3.973665,5.26653 5.9486,0.93202 1.285744,-2.8219 1.267831,-4.99767 -0.07813,-9.49008 -1.781161,-5.944986 -1.001225,-9.265391 1.301274,-5.539874 3.021581,4.889022 3.05551,12.463984 0.0834,18.615584 -4.000473,8.28001 -1.958958,20.53702 4.651618,27.92782 3.806552,4.25582 5.208315,4.03207 5.208315,-0.83138 z m 152.632361,-3.78813 c 0.50538,-4.29989 0.33349,-8.93767 -0.38197,-10.30618 -0.71545,-1.36851 -1.95524,-5.04697 -2.75509,-8.17436 -4.05575,-15.857957 -4.75915,-17.982079 -5.65763,-17.084401 -0.53501,0.534521 -1.04137,6.045171 -1.12526,12.245881 -0.12047,8.90245 -0.71594,11.8966 -2.8309,14.23361 -2.64936,2.92752 -2.62078,3.00578 2.64023,7.2263 2.92523,2.3467 5.31858,5.48407 5.31858,6.97193 0,1.48786 0.87148,2.7052 1.93661,2.7052 1.28828,0 2.24418,-2.61717 2.85543,-7.81798 z m 111.7744,-12.96217 c 0,-1.17277 -0.6397,-1.73696 -1.42153,-1.25375 -0.78186,0.48321 -1.42155,1.8381 -1.42155,3.01087 0,1.17278 0.63969,1.73696 1.42155,1.25376 0.78183,-0.48321 1.42153,-1.83811 1.42153,-3.01088 z m -238.69836,-6.37815 c -0.74909,-1.87266 -1.40253,-2.65755 -1.45209,-1.74419 -0.12037,2.21848 1.5356,6.42751 2.24837,5.71474 0.31113,-0.31113 -0.0472,-2.09788 -0.79628,-3.97055 z m -13.594797,-3.76023 c 3.485217,-3.6829 3.671987,-4.60886 3.225697,-15.99235 -0.4925,-12.562076 -3.026843,-20.255486 -6.919468,-21.005138 -2.466531,-0.475009 -5.049691,8.462954 -6.527495,22.585698 -0.93736,8.95798 1.362989,12.63151 3.836263,6.12631 0.802259,-2.110101 1.819325,-3.475873 2.260147,-3.035051 0.440824,0.440823 0.0036,3.007731 -0.971354,5.704231 -1.577476,4.36243 -1.198632,9.52553 0.698943,9.52553 0.38382,0 2.362591,-1.75915 4.397267,-3.90923 z m 47.032467,-5.44705 c -0.47458,-1.23672 -0.86286,-2.75599 -0.86286,-3.37616 0,-0.62017 -1.91908,-1.511404 -4.26462,-1.980513 -2.34555,-0.469109 -4.26463,-1.448723 -4.26463,-2.17692 0,-0.7282 1.27939,-0.98943 2.84309,-0.580514 2.94447,0.769999 3.7603,-0.857644 1.61048,-3.213041 -4.88929,-5.35683 -7.6224,-27.66291 -4.09818,-33.447028 1.5355,-2.520148 1.32859,-3.283904 -1.52298,-5.621492 -1.81495,-1.487815 -5.49319,-3.116578 -8.17387,-3.619475 -4.59919,-0.862815 -6.93331,-3.450223 -3.09703,-3.433109 3.75994,0.01685 12.43849,3.033369 12.43849,4.323516 0,0.745098 1.27939,1.354724 2.84309,1.354724 4.24066,0 3.43492,-3.302027 -1.51996,-6.228948 -2.39968,-1.417523 -4.0432,-2.89716 -3.65228,-3.288086 0.39092,-0.390923 2.66617,0.444312 5.0561,1.85608 l 4.34533,2.566849 4.63773,-4.365211 c 2.55074,-2.400865 8.34652,-6.142417 12.87951,-8.314557 7.5078,-3.597638 9.21663,-3.875619 19.18854,-3.121445 10.68796,0.80833 10.86817,0.768626 7.6227,-1.679442 -4.7658,-3.594853 -23.11756,-7.887783 -28.83287,-6.74472 -3.50545,0.70109 -4.29838,0.530551 -3.10088,-0.666928 0.88488,-0.884885 4.56951,-1.942588 8.18809,-2.350452 5.25595,-0.592423 6.95494,-0.22774 8.4473,1.813198 2.09075,2.859255 6.54385,2.000251 6.54385,-1.262307 0,-2.794598 -5.8253,-3.991731 -14.62783,-3.006108 -11.38227,1.274483 -19.47623,3.684371 -20.84606,6.206693 -0.68308,1.257774 -3.69576,3.56625 -6.69486,5.129945 -5.81682,3.032829 -17.536,14.557565 -17.536,17.24504 0,0.887799 -1.18407,1.923822 -2.63126,2.302271 -6.19332,1.619587 -4.7167,25.023345 2.50289,39.66973 5.68919,11.541668 13.69592,17.38119 24.80206,18.0888 1.85325,0.11806 2.38268,-0.50178 1.77692,-2.08039 z m -19.3429,-17.65301 c 0,-0.781846 1.59923,-1.42154 3.55385,-1.42154 1.95462,0 3.55386,0.639694 3.55386,1.42154 0,0.781849 -1.59924,1.421543 -3.55386,1.421543 -1.95462,0 -3.55385,-0.639694 -3.55385,-1.421543 z m 0.3343,-13.799867 c -1.77075,-0.340347 -2.88958,-1.152719 -2.48628,-1.805269 0.91695,-1.483656 6.4166,-0.150434 6.4166,1.555516 0,0.69066 -0.15992,1.168631 -0.35538,1.062156 -0.19547,-0.106466 -1.80419,-0.472056 -3.57494,-0.812403 z m -2.822,-8.526487 c -1.75916,-0.338828 -3.19847,-1.254362 -3.19847,-2.03452 0,-1.551731 5.54663,-0.280246 7.7474,1.775982 1.42029,1.327004 1.09455,1.345519 -4.54893,0.258538 z m -1.06616,-7.526023 c -2.71281,-1.165733 -2.69652,-1.226293 0.35539,-1.321628 1.75916,-0.05495 3.19847,0.53978 3.19847,1.321628 0,0.781849 -0.15992,1.376583 -0.35539,1.321629 -0.19547,-0.05495 -1.63477,-0.649686 -3.19847,-1.321629 z m 26.29853,41.935483 c 0,-1.172772 -0.61962,-2.132313 -1.37694,-2.132313 -0.7573,0 -1.00871,0.959541 -0.55868,2.132313 0.45005,1.172774 1.06966,2.132314 1.37694,2.132314 0.30726,0 0.55868,-0.95954 0.55868,-2.132314 z M 362.79768,84.322974 c -1.10705,-1.901202 -1.43231,-0.449308 -1.34958,6.024361 l 0.10896,8.529251 1.34956,-6.024361 c 0.89142,-3.979213 0.8544,-6.874721 -0.10896,-8.529251 z M 141.39699,67.958053 c 0.48611,-3.713779 0.32758,-6.752324 -0.3523,-6.752324 -1.66955,0 -3.25877,8.976405 -2.11632,11.953582 1.21631,3.169674 1.43255,2.714082 2.46862,-5.201258 z m 14.92987,-25.232368 c 2.45439,-2.345544 3.96441,-4.264625 3.3556,-4.264625 -1.78936,0 -11.10333,8.408062 -9.3842,8.471477 0.86134,0.03177 3.57422,-1.861308 6.0286,-4.206852 z m 24.00499,-7.966557 c -0.47238,-0.472364 -1.69846,-0.522868 -2.72462,-0.112223 -1.13401,0.453792 -0.79718,0.790636 0.85885,0.858848 1.49853,0.06173 2.33813,-0.274256 1.86577,-0.746625 z m 1.80654,-10.513484 c 0,-0.781849 -0.67745,-1.421544 -1.50544,-1.421544 -0.82799,0 -1.11008,0.639695 -0.62687,1.421544 0.48321,0.781846 1.16066,1.42154 1.50544,1.42154 0.34478,0 0.62687,-0.639694 0.62687,-1.42154 z m 126.8726,574.721186 c -5.48136,-1.05575 -3.51,-2.67441 3.50216,-2.87559 7.3015,-0.20961 10.35788,-2.71553 10.35788,-8.49279 0,-3.05262 -0.42459,-3.23105 -5.68618,-2.38969 -6.57541,1.05145 -8.09609,-1.66734 -1.77692,-3.17691 2.15008,-0.51361 4.70885,-1.56369 5.68615,-2.33345 2.70621,-2.13152 2.12195,-6.45295 -1.10596,-8.18049 -3.0516,-1.63316 -2.57338,-4.24332 0.77742,-4.24332 1.14074,0 2.68394,2.58069 3.61278,6.04156 0.89177,3.32285 2.21338,7.54724 2.93687,9.38755 1.65455,4.20844 0.10171,13.00174 -2.29601,13.00174 -0.99001,0 -2.59639,0.95954 -3.5697,2.13231 -1.70711,2.05693 -5.72675,2.42182 -12.43849,1.12908 z m 190.35565,-43.06457 c 0,-1.95463 0.32266,-2.75424 0.71701,-1.77692 0.39435,0.9773 0.39435,2.57654 0,3.55384 -0.39435,0.97732 -0.71701,0.17762 -0.71701,-1.77692 z m -89.78158,-62.54783 c 0,-0.78186 0.63969,-1.42155 1.42155,-1.42155 0.78185,0 1.42155,0.63969 1.42155,1.42155 0,0.78183 -0.6397,1.42153 -1.42155,1.42153 -0.78186,0 -1.42155,-0.6397 -1.42155,-1.42153 z M 318.19657,67.89448 c -0.92525,-13.110774 -4.02312,-20.853779 -11.22443,-28.055093 -7.90826,-7.90827 -25.54854,-13.617149 -37.67329,-12.19212 -4.44272,0.522152 -8.93486,1.660785 -9.98255,2.530296 -1.04769,0.869512 -2.24294,1.242895 -2.6561,0.82974 -0.41315,-0.413155 1.43697,-2.103546 4.11138,-3.756425 9.3158,-5.757481 31.13588,-3.225756 41.53448,4.819133 14.28859,11.054387 19.15355,19.75679 19.12165,34.204545 -0.0324,14.641036 -2.23433,15.744998 -3.23114,1.619924 z m 14.24005,3.262042 c -0.49393,-1.954621 -1.18228,-5.792784 -1.52974,-8.529251 -0.34744,-2.736467 -1.06573,-6.574632 -1.59621,-8.52925 -0.91599,-3.375123 -0.85488,-3.419091 1.21502,-0.874215 2.43555,2.99446 4.2823,12.832002 3.39133,18.06555 l -0.58239,3.421021 z M 318.13256,38.934907 c -0.52125,-0.521231 -0.92826,-1.960542 -0.90449,-3.198469 0.0356,-1.84844 0.3129,-1.78703 1.55186,0.343545 1.53068,2.632255 1.08692,4.589223 -0.64737,2.854924 z m -6.63388,-9.086991 c 0,-0.82799 0.63969,-1.110087 1.42155,-0.626877 0.78185,0.48321 1.42155,1.160654 1.42155,1.505436 0,0.344782 -0.6397,0.626877 -1.42155,0.626877 -0.78186,0 -1.42155,-0.677447 -1.42155,-1.505436 z"
       id="path72"
       inkscape:connector-curvature="0" />
  </g>
</svg>
