<?xml version="1.0" encoding="UTF-8" standalone="no"?>
<svg
   xmlns:dc="http://purl.org/dc/elements/1.1/"
   xmlns:cc="http://creativecommons.org/ns#"
   xmlns:rdf="http://www.w3.org/1999/02/22-rdf-syntax-ns#"
   xmlns:svg="http://www.w3.org/2000/svg"
   xmlns="http://www.w3.org/2000/svg"
   xmlns:sodipodi="http://sodipodi.sourceforge.net/DTD/sodipodi-0.dtd"
   xmlns:inkscape="http://www.inkscape.org/namespaces/inkscape"
   inkscape:version="1.0beta1 (bc72641, 2019-10-07)"
   sodipodi:docname="kunstrichtigesch00fran-0164.svg"
   viewBox="0 0 500 500"
   height="500"
   width="500"
   id="svg78"
   version="1.1">
  <metadata
     id="metadata84">
    <rdf:RDF>
      <cc:Work
         rdf:about="">
        <dc:format>image/svg+xml</dc:format>
        <dc:type
           rdf:resource="http://purl.org/dc/dcmitype/StillImage" />
        <dc:title></dc:title>
      </cc:Work>
    </rdf:RDF>
  </metadata>
  <defs
     id="defs82" />
  <sodipodi:namedview
     inkscape:current-layer="g86"
     inkscape:window-maximized="0"
     inkscape:window-y="23"
     inkscape:window-x="0"
     inkscape:cy="246.73409"
     inkscape:cx="153.28021"
     inkscape:zoom="0.81"
     showgrid="false"
     id="namedview80"
     inkscape:window-height="755"
     inkscape:window-width="1280"
     inkscape:pageshadow="2"
     inkscape:pageopacity="0"
     guidetolerance="10"
     gridtolerance="10"
     objecttolerance="10"
     borderopacity="1"
     inkscape:document-rotation="0"
     bordercolor="#666666"
     pagecolor="#ffffff" />
  <g
     id="g86"
     inkscape:label="Image"
     inkscape:groupmode="layer">
    <g
       transform="matrix(0,2.3468286,-2.3468286,0,781.09088,-35.919755)"
       id="g133">
      <path
         style="fill:#000000;stroke-width:1.33333"
         d="m 39.972336,330.1616 c 0.5871,-1.8498 0.2396,-2.66667 -1.13444,-2.66667 -1.08944,0 -2.80094,-0.31472 -3.80333,-0.69937 -1.0024,-0.38465 -3.15147,0.53872 -4.77572,2.05195 l -2.95319,2.7513 v -3.11736 c 0,-2.67718 0.6588,-3.11477 4.66554,-3.09894 5.2415,0.0207 6.49268,-1.53303 3.00574,-3.73254 -1.7482,-1.10273 -3.07774,-1.00878 -5.33333,0.3769 l -3.00461,1.84581 2.66666,-3.08163 c 2.32059,-2.68169 2.36385,-2.9712 0.33334,-2.23072 -1.28334,0.468 -2.33334,0.2509 -2.33334,-0.48246 0,-1.47992 24.70282,-0.99123 26.21261,0.51856 0.49418,0.49417 -3.53482,0.8985 -8.95334,0.8985 h -9.85186 l 2.94545,2.94546 c 2.90642,2.90641 2.97076,2.91085 4.85396,0.33542 1.04967,-1.4355 2.35755,-2.16096 2.9064,-1.61212 0.54884,0.54886 0.2979,0.99791 -0.55766,0.99791 -0.85555,0 -1.55555,0.63541 -1.55555,1.41203 0,0.77661 0.6,1.0412 1.33333,0.58797 0.73334,-0.45323 2.08334,-0.35551 3,0.21715 2.79026,1.74312 5,1.64412 5,-0.22402 0,-0.974 -0.615,-2.0759 -1.36666,-2.44869 -0.75167,-0.37277 -0.60167,-0.52615 0.33333,-0.34081 0.97602,0.19345 1.87731,2.76146 2.11635,6.03 0.2646,3.61802 -0.0787,5.3871 -0.94177,4.85366 -0.74697,-0.46165 -1.0585,-1.62014 -0.69231,-2.57444 0.77119,-2.00968 -3.3181,-2.44268 -5.66357,-0.59969 -0.95391,0.74955 -1.87955,0.6798 -2.41202,-0.18175 -0.47523,-0.76894 0.0714,-1.39808 1.21463,-1.39808 1.14328,0 2.07869,-0.6211 2.07869,-1.38024 0,-0.9358 -0.85868,-0.92069 -2.66667,0.0469 -1.46666,0.78493 -2.66666,2.60604 -2.66666,4.04691 0,1.44086 -0.64044,2.61976 -1.42319,2.61976 -0.81641,0 -1.06234,-1.13692 -0.57681,-2.66667 z m -7.33334,-1.29149 c 0,-0.71031 0.9,-0.94612 2,-0.52402 1.1,0.42212 2,1.00328 2,1.2915 0,0.2882 -0.9,0.52401 -2,0.52401 -1.1,0 -2,-0.58117 -2,-1.29149 z m 22.471,-13.22603 c 1.414,-0.89601 1.47277,-1.76285 0.27167,-4.00713 -0.84296,-1.5751 -1.1695,-3.45139 -0.72564,-4.16958 1.15153,-1.86321 -2.50302,-1.61978 -4.41703,0.29423 -0.88,0.88 -1.6,3.1 -1.6,4.93333 0,2.11316 -0.46524,2.8681 -1.27095,2.06238 -0.70546,-0.70546 -0.91815,-4.68934 -0.47803,-8.95368 0.76221,-7.38515 0.92764,-7.66036 4.27095,-7.10535 1.91292,0.31755 4.21303,0.62671 5.11137,0.68701 1.08914,0.0731 1.37006,1.426 0.84314,4.06059 -1.06088,5.30441 0.43436,10.71572 2.96095,10.71572 1.12931,0 1.68246,0.6 1.22924,1.33333 -0.45323,0.73334 -2.43864,1.32415 -4.41202,1.31292 -2.51292,-0.0143 -3.04735,-0.363 -1.78365,-1.16377 z m -1.13766,-12.99389 c 0,-1.29296 -2.81873,-3.15526 -4.77572,-3.15526 -0.30669,0 -0.55762,1.80508 -0.55762,4.0113 0,3.67753 0.22189,3.87273 2.66667,2.34594 1.46667,-0.91594 2.66667,-2.35684 2.66667,-3.20198 z m -33.11353,11.9475 c 2.64585,-0.70073 4.19098,-4.02482 2.38862,-5.13874 -0.7013,-0.43344 -1.25685,-1.50266 -1.23455,-2.37604 0.0223,-0.87339 0.6924,-0.46599 1.48911,0.90533 1.14639,1.9732 1.67908,2.12032 2.55362,0.70528 0.60778,-0.98341 1.58768,-1.27325 2.17756,-0.64409 0.58987,0.62914 0.32249,1.41177 -0.59417,1.73916 -0.91667,0.32737 -1.66667,1.74524 -1.66667,3.15078 0,1.9365 -0.88823,2.5181 -3.66667,2.4009 -2.03334,-0.0857 -2.67785,-0.41655 -1.44685,-0.74258 z m 11.67492,-10.10276 c -0.0579,-5.31666 -0.44014,-8.76666 -0.84944,-7.66666 -0.4093,1.1 -1.94904,3.15453 -3.42166,4.56562 l -2.67747,2.56563 2.86025,1.05807 c 2.06852,0.7652 2.80496,2.08492 2.66048,4.76772 l -0.19978,3.70962 -0.56198,-3.73437 c -0.3821,-2.53897 -1.27846,-3.64597 -2.80023,-3.45825 -3.3516,0.41346 -9.85269,-2.60715 -8.90645,-4.13822 0.45408,-0.7347 1.72559,-1.33582 2.82559,-1.33582 1.1,0 1.62918,0.6 1.17596,1.33333 -0.45323,0.73333 -0.28586,1.33333 0.37193,1.33333 0.6578,0 1.27416,-2.07932 1.3697,-4.6207 0.12498,-3.3245 -0.61854,-5.17563 -2.65049,-6.59887 l -2.8242,-1.97815 3.01156,0.22687 c 3.04399,0.22929 6.12661,5.364 4.65235,7.74941 -0.4152,0.67179 0.24616,1.22144 1.46967,1.22144 1.76923,0 2.1098,-0.983 1.66389,-4.80253 -0.47196,-4.04268 -0.30247,-4.44943 1.07123,-2.57079 1.51154,2.06716 1.67823,2.0526 2.26012,-0.19746 0.34553,-1.33607 0.69783,3.12078 0.7829,9.90412 0.0851,6.78333 -0.14533,12.33333 -0.512,12.33333 -0.36666,0 -0.71403,-4.35 -0.77193,-9.66667 z m 3.60362,6.38405 c 0.4114,-1.07209 1.89257,-2.31252 3.29149,-2.75652 1.39892,-0.44398 2.5435,-1.78682 2.5435,-2.98408 0,-1.73364 0.33704,-1.83976 1.65552,-0.52129 1.31847,1.31848 1.28949,1.88175 -0.14235,2.76667 -1.25423,0.77516 -1.35166,1.38692 -0.32219,2.02317 1.83944,1.13684 1.93449,3.42131 0.14235,3.42131 -0.73333,0 -1.33333,-0.9 -1.33333,-2 0,-1.1 -0.53581,-2 -1.19069,-2 -0.65487,0 -1.53604,0.9 -1.95815,2 -0.42211,1.1 -1.36748,2 -2.10081,2 -0.73333,0 -0.99674,-0.87716 -0.58534,-1.94924 z m 21.94025,-2.82852 c 0.064,-1.55326 0.37992,-1.8692 0.80555,-0.80556 0.38517,0.9625 0.3378,2.1125 -0.10526,2.55556 -0.44306,0.44306 -0.75819,-0.34445 -0.7003,-1.75 z m -21.4386,-2.55553 c 0,-1.22222 0.645,-2.00722 1.43333,-1.74444 0.78833,0.26278 1.43334,1.04778 1.43334,1.74444 0,0.69667 -0.64501,1.48167 -1.43334,1.74444 -0.78833,0.26279 -1.43333,-0.52221 -1.43333,-1.74444 z m 22.66667,-4.07869 c 0,-1.14328 0.6,-1.70787 1.33333,-1.25464 0.73334,0.45323 1.33334,1.38864 1.33334,2.07869 0,0.69006 -0.6,1.25464 -1.33334,1.25464 -0.73333,0 -1.33333,-0.93541 -1.33333,-2.07869 z m -37.88941,-3.07569 c -0.57436,-0.92934 -0.68421,-2.04978 -0.24411,-2.48988 1.19328,-1.19328 2.49436,0.56173 1.84985,2.49526 -0.45163,1.3549 -0.76569,1.35384 -1.60574,-0.005 z m 15.26514,-0.42243 c -0.0233,-1.23392 1.1576,-2.62435 2.62427,-3.08985 1.46667,-0.46551 2.66667,-1.82594 2.66667,-3.02319 0,-1.73364 0.33704,-1.83976 1.65552,-0.52129 1.31847,1.31848 1.25061,1.91152 -0.33334,2.91292 -1.09387,0.69156 -1.33885,1.26658 -0.54441,1.27781 0.79445,0.0107 1.44445,0.92041 1.44445,2.02041 0,1.1 -0.5,2 -1.11111,2 -0.61111,0 -1.11111,-0.9 -1.11111,-2 0,-2.6535 -1.30489,-2.52842 -3.47728,0.33334 -1.62581,2.14173 -1.77474,2.1491 -1.81366,0.0899 z m 9.66974,-13.75652 c 0.0382,-7.33333 0.2896,-10.93333 0.55865,-8 0.26905,2.93333 0.83759,6.23333 1.26341,7.33333 1.35637,3.50386 1.72401,10.77762 0.5067,10.02528 -0.64483,-0.39853 -1.44822,0.33275 -1.78532,1.62507 -0.3371,1.29231 -0.58165,-3.65035 -0.54344,-10.98368 z m 8.48871,9.87325 c -1.31549,-1.53637 -1.96669,-3.18637 -1.44712,-3.66666 0.51958,-0.4803 1.21379,-0.11947 1.54269,0.80172 0.66169,1.85333 3.03692,0.94162 3.03692,-1.16568 0,-0.73334 -0.55855,-0.98815 -1.24121,-0.56624 -0.68266,0.42192 -1.63607,0.12813 -2.1187,-0.65272 -0.60212,-0.97426 -1.5725,-0.88368 -3.09213,0.28861 -1.86693,1.4402 -1.84829,1.27688 0.1187,-1.04024 2.85134,-3.35889 2.94459,-4.53871 0.35874,-4.53871 -2.5436,0 -3.99974,-5.75804 -2.2478,-8.88857 1.10445,-1.97355 1.30926,-1.59059 1.1203,2.09468 -0.14445,2.81708 0.46398,4.75311 1.62102,5.15813 1.16372,0.40736 1.49278,0.0667 0.88522,-0.91633 -0.53188,-0.8606 -0.39245,-2.28844 0.30984,-3.17297 0.70228,-0.88455 1.10703,-2.65827 0.89943,-3.9416 -0.28496,-1.76154 0.49217,-2.29543 3.17123,-2.17867 2.47855,0.108 2.8072,0.34584 1.08984,0.7886 -1.99993,0.51563 -2.32888,1.54436 -1.76252,5.512 0.38297,2.68293 0.39546,3.82807 0.0277,2.54473 -0.36767,-1.28333 -1.24564,-2.33333 -1.95101,-2.33333 -0.77286,0 -0.71537,1.05965 0.14468,2.66667 0.78493,1.46666 2.30605,2.66666 3.38024,2.66666 1.0742,0 1.95309,0.54383 1.95309,1.20851 0,0.66468 -1.35,0.87048 -3,0.45735 -2.98413,-0.74719 -2.98642,-0.73579 -0.4315,2.15633 1.86548,2.11169 2.1677,3.30828 1.10419,4.37179 -0.80537,0.80537 -1.14699,2.2912 -0.75918,3.30184 1.00194,2.61098 0.056,2.27765 -2.71266,-0.9559 z m -17.53419,-2.53992 c -0.45322,-0.73333 -0.18863,-1.33333 0.58798,-1.33333 0.77661,0 1.41203,0.6 1.41203,1.33333 0,0.73334 -0.26459,1.33334 -0.58798,1.33334 -0.32339,0 -0.9588,-0.6 -1.41203,-1.33334 z m -18.25,-3.57748 c 0.9625,-0.38516 2.1125,-0.3378 2.55556,0.1052 0.44306,0.44307 -0.34444,0.75819 -1.75,0.7003 -1.55326,-0.064 -1.8692,-0.37992 -0.80556,-0.80555 z m 3.75531,-4.31424 c -0.56593,-3.53909 -1.56389,-5.44161 -2.8544,-5.44161 -1.09133,0 -1.98424,-0.9 -1.98424,-2 0,-1.1 0.9,-2 2,-2 1.1,0 1.92895,0.45 1.84211,1 -0.39854,2.52408 0.30453,3.49969 1.34208,1.86233 0.93408,-1.47406 1.71804,-1.49676 4.28317,-0.124 3.00779,1.60971 3.02894,1.72063 0.5029,2.63748 -1.45031,0.5264 -3.08693,0.69678 -3.63693,0.37859 -0.55,-0.31819 -1,0.12107 -1,0.97616 0,0.85507 0.9,1.20932 2,0.7872 1.1,-0.42211 2,-0.18629 2,0.52401 0,0.71039 -0.63541,1.29156 -1.41202,1.29156 -0.77661,0 -1.1162,0.47866 -0.75464,1.06367 0.36156,0.58501 0.18144,1.83373 -0.40025,2.77493 -0.67591,1.09364 -1.3717,-0.25274 -1.92778,-3.73032 z m 6.71322,1.44934 c 0.24648,-0.97664 0.44814,-2.06206 0.44814,-2.41202 0,-0.34997 0.57754,-0.27937 1.28341,0.15688 0.7346,0.454 1.16222,-0.93662 1,-3.252 -0.15587,-2.22485 -0.76882,-4.04637 -1.3621,-4.04782 -0.59328,-10e-4 -0.70062,-0.61439 -0.23853,-1.36206 1.15248,-1.86474 -1.87854,-10.6406 -3.67507,-10.6406 -0.79869,0 -1.06665,-0.3855 -0.59549,-0.85666 0.47117,-0.47118 1.77117,-0.0977 2.88889,0.82992 1.38976,1.1534 2.03222,1.21346 2.03222,0.19 0,-0.82312 0.6,-1.49659 1.33334,-1.49659 0.79532,0 1.33333,5.11111 1.33333,12.66667 0,8.02614 -0.5173,12.66666 -1.41202,12.66666 -0.77661,0 -1.0412,-0.6 -0.58798,-1.33333 0.45323,-0.73333 0.23864,-1.33333 -0.47687,-1.33333 -0.7155,0 -1.55257,0.45 -1.86016,1 -0.30759,0.55 -0.35759,0.20093 -0.11111,-0.77572 z m 12.57204,-0.14771 c -1.044,-0.64523 -1.36098,-1.82028 -0.75537,-2.80019 0.6794,-1.09929 0.50639,-1.35645 -0.49585,-0.73704 -0.84664,0.52326 -1.53934,0.31596 -1.53934,-0.46065 0,-0.77661 0.63541,-1.41203 1.41202,-1.41203 0.77661,0 1.0412,-0.6 0.58798,-1.33333 -0.45323,-0.73333 -0.16233,-1.33333 0.64643,-1.33333 0.80875,0 1.34953,0.75 1.20172,1.66666 -0.1478,0.91667 0.20002,2.74255 0.77294,4.05751 1.27428,2.92471 0.56673,3.83399 -1.83053,2.3524 z m -5.94234,-2.06892 c 0.42049,-1.09579 1.30166,-1.66037 1.95815,-1.25464 1.88257,1.16349 1.39199,3.24699 -0.76453,3.24699 -1.18944,0 -1.65802,-0.78214 -1.19362,-1.99235 z m 0.029,-5.27308 c -0.49555,-1.29136 -0.10068,-1.68623 1.19068,-1.19068 2.10898,0.80928 2.65825,3.12277 0.74141,3.12277 -0.65487,0 -1.52432,-0.86944 -1.93209,-1.93209 z m -12.36363,-6.95243 c 0.81493,-3.58128 0.75334,-3.64469 -1.15981,-1.19397 -1.11125,1.42349 -2.02045,1.90891 -2.02045,1.07869 0,-0.83022 0.57379,-1.8641 1.2751,-2.29754 1.80236,-1.11392 0.25723,-4.43802 -2.38863,-5.13875 -1.22089,-0.32335 -0.5344,-0.65751 1.52555,-0.74257 2.1889,-0.0904 3.40291,0.39942 2.92131,1.17866 -0.45322,0.73334 -0.15322,1.33334 0.66667,1.33334 0.81989,0 1.14551,0.55854 0.7236,1.2412 -0.4219,0.68266 -0.0933,1.65766 0.73033,2.16666 1.06534,0.65842 0.98657,1.2412 -0.27297,2.01964 -0.97372,0.60179 -1.35228,1.5123 -0.84124,2.02334 0.51104,0.51104 1.94124,0.0936 3.17822,-0.92751 1.94043,-1.60189 2.15922,-1.58223 1.59445,0.14333 -0.36003,1.1 -2.03569,2.20196 -3.72369,2.44882 -2.74484,0.40138 -2.97816,0.0492 -2.20844,-3.33334 z m 16.81974,-0.59234 c 0,-1.93843 2.38552,-2.51231 3.0665,-0.7377 0.37359,0.97356 -0.16354,1.77012 -1.19362,1.77012 -1.03008,0 -1.87288,-0.4646 -1.87288,-1.03242 z m -4,-1.2685 c 0,-0.77661 0.6,-1.0412 1.33333,-0.58797 0.73333,0.45323 1.33334,1.08864 1.33334,1.41203 0,0.32338 -0.60001,0.58797 -1.33334,0.58797 -0.73333,0 -1.33333,-0.63541 -1.33333,-1.41203 z m 9.82031,-11.25464 c 0.003,-7.33333 0.22738,-10.16322 0.49756,-6.28863 0.27019,3.87458 0.26735,9.87458 -0.006,13.33333 -0.27371,3.45874 -0.49477,0.28864 -0.4913,-7.0447 z m 2.63979,10.60916 c -0.43424,-1.13162 -0.41541,-2.43162 0.0418,-2.88888 0.45727,-0.45726 0.8314,0.16862 0.8314,1.39083 0,1.35457 1.07191,2.22223 2.74535,2.22223 1.50995,0 2.37454,-0.6 1.92131,-1.33334 -1.25112,-2.02436 0.59745,-1.59302 2.85714,0.66667 1.77778,1.77777 1.46626,2 -2.80375,2 -3.09968,0 -5.08383,-0.72987 -5.59329,-2.05751 z m -9.68817,-1.68788 c -0.0579,-0.95995 -0.6424,-1.41339 -1.29889,-1.00765 -1.30192,0.80464 -3.30686,-3.19095 -2.17109,-4.32671 0.38392,-0.38393 0.69805,0.0373 0.69805,0.93619 0,0.89884 0.54875,1.29509 1.21945,0.88058 0.6707,-0.41452 1.52334,7e-5 1.89474,0.92131 0.52341,1.29825 0.69896,1.28243 0.78055,-0.0704 0.11991,-1.98828 2.77193,-0.80568 2.77193,1.23608 0,0.73333 -0.54875,0.99419 -1.21945,0.57968 -0.6707,-0.41452 -1.52334,7e-5 -1.89474,0.92131 -0.5234,1.29825 -0.69896,1.28242 -0.78055,-0.0704 z m 13.89474,-4.25461 c 1.04306,-3.2864 -1.36183,-3.53484 -3.22654,-0.33333 -0.74747,1.28333 -1.37728,1.70333 -1.39958,0.93333 -0.0558,-1.92504 2.78946,-4.6 4.89279,-4.6 0.96,0 1.73333,1.48717 1.73333,3.33333 0,1.83334 -0.64043,3.33334 -1.42319,3.33334 -0.81641,0 -1.06233,-1.13692 -0.57681,-2.66667 z m 3.43859,0.55556 c 0.064,-1.55327 0.37993,-1.8692 0.80556,-0.80556 0.38516,0.96249 0.33779,2.11249 -0.10527,2.55556 -0.44305,0.44305 -0.75818,-0.34445 -0.70029,-1.75 z m -36.75127,-3.0218 c 2.87047,-0.92619 3.29291,-2.44876 1.4751,-5.3166 -0.68503,-1.08073 -0.46869,-2.39345 0.54936,-3.33334 1.27877,-1.18059 1.46853,-1.17485 0.7954,0.024 -0.48621,0.866 -0.27423,1.95141 0.47106,2.41203 0.7453,0.46062 1.35509,-0.0625 1.35509,-1.16252 0,-1.09999 -0.48377,-2.29898 -1.07505,-2.66441 -1.47271,-0.91018 -0.27936,-10.15963 1.31077,-10.15963 0.70252,0 0.89645,1.2 0.43094,2.66667 -1.04306,3.2864 1.36183,3.53485 3.22654,0.33333 0.74747,-1.28333 1.37729,-1.61735 1.39959,-0.74227 0.0223,0.87509 -1.21805,2.47262 -2.75634,3.55007 l -2.79687,1.95901 2.79687,1.49684 c 1.53829,0.82326 2.79688,2.1492 2.79688,2.94653 0,0.89418 -0.86443,0.74849 -2.25594,-0.38025 -1.67658,-1.35997 -1.98952,-1.38689 -1.21855,-0.10485 0.57057,0.94879 0.43677,2.44879 -0.29734,3.33332 -1.98986,2.39764 -1.99234,3.84807 -0.009,5.10544 1.1314,0.71718 -0.16388,1.08766 -3.55279,1.01618 -3.62243,-0.0764 -4.47125,-0.39066 -2.646,-0.97959 z m 11.79965,-12.86709 c 0.004,-7.33334 0.22737,-10.16322 0.49756,-6.28864 0.27019,3.87458 0.26735,9.87458 -0.006,13.33333 -0.2737,3.45875 -0.49477,0.28864 -0.4913,-7.04469 z m 26.1797,9.25464 c 0,-1.14328 0.6,-1.70787 1.33333,-1.25464 0.73333,0.45322 1.33333,1.38864 1.33333,2.07869 0,0.69005 -0.6,1.25464 -1.33333,1.25464 -0.73333,0 -1.33333,-0.93541 -1.33333,-2.07869 z m -20.25142,-1.97326 c 1.60494,-1.49522 2.91808,-3.33063 2.91808,-4.07868 0,-0.74804 0.66406,-0.94967 1.47569,-0.44806 1.02915,0.63605 0.92829,1.26505 -0.33334,2.07869 -1.50409,0.97001 -1.47841,1.37919 0.15237,2.42751 1.07876,0.69345 1.49614,1.72608 0.9275,2.29472 -0.56863,0.56862 -1.59207,0.15125 -2.2743,-0.92751 -0.84003,-1.32828 -1.24701,-1.42341 -1.26083,-0.29472 -0.0112,0.91667 -1.03356,1.66667 -2.27184,1.66667 -1.89502,0 -1.78949,-0.43035 0.66667,-2.71862 z m 13.12473,0.2803 c -1.21366,-1.34108 -2.20665,-2.95576 -2.20665,-3.58818 0,-0.63242 0.94898,0.0148 2.10885,1.43832 1.63195,2.00288 1.95425,2.09 1.4252,0.3852 -0.37601,-1.21164 -0.30762,-2.57901 0.15197,-3.0386 1.83614,-1.83614 3.04476,-11.42509 1.44006,-11.42509 -0.71818,0 -0.92491,-1.2 -0.45941,-2.66667 1.04352,-3.28783 -1.32488,-3.52388 -3.34447,-0.33333 -0.85634,1.35286 -1.27104,1.53295 -0.98689,0.42859 0.71446,-2.77685 4.28526,-4.65407 6.92558,-3.64089 1.74819,0.67085 2.14122,1.98295 1.66112,5.54553 -0.48896,3.62827 -0.16051,4.66677 1.47596,4.66677 1.63608,0 1.43988,0.61953 -0.88098,2.78174 -2.51932,2.34709 -2.71485,3.11525 -1.25142,4.9163 1.48518,1.82783 1.39911,2.00891 -0.5989,1.26011 -1.28333,-0.48095 -2.33333,-0.29329 -2.33333,0.41702 0,0.71032 0.58116,1.2915 1.29148,1.2915 0.71032,0 0.94613,0.9 0.52402,2 -1.01087,2.63426 -2.26195,2.5233 -4.94219,-0.43832 z m 5.37084,-20.47835 c -0.42564,-1.06364 -0.74158,-0.7477 -0.80556,0.80556 -0.0579,1.40555 0.25724,2.19305 0.70029,1.75 0.44306,-0.44306 0.49043,-1.59306 0.10527,-2.55556 z m -20.91083,17.05932 c 0,-0.28821 0.93117,-0.88134 2.06925,-1.31806 1.18657,-0.45533 1.72177,-0.2318 1.25465,0.52401 -0.78301,1.26694 -3.3239,1.87393 -3.3239,0.79405 z m -17.33333,-2.80932 c 0,-1.1 0.6,-2 1.33333,-2 0.73334,0 1.33334,0.9 1.33334,2 0,1.1 -0.6,2 -1.33334,2 -0.73333,0 -1.33333,-0.9 -1.33333,-2 z m 30.66667,-0.58798 c 0,-0.69005 0.59313,-1.62121 1.31806,-2.06925 0.75582,-0.46712 0.97935,0.0681 0.52402,1.25465 -0.88639,2.30989 -1.84208,2.73251 -1.84208,0.8146 z m -28.46579,-4.70265 c -0.41309,-1.07652 -0.17729,-2.31193 0.52402,-2.74536 0.70131,-0.43343 1.2751,0.44736 1.2751,1.9573 0,3.21942 -0.74148,3.54421 -1.79912,0.78806 z m 15.13245,-1.45473 c 0,-1.14327 0.6,-1.70787 1.33334,-1.25464 0.73333,0.45323 1.33333,1.38863 1.33333,2.07869 0,0.69005 -0.6,1.25464 -1.33333,1.25464 -0.73334,0 -1.33334,-0.93541 -1.33334,-2.07869 z m 4.44912,0.16484 c 0.40393,-1.05262 0.22724,-2.10262 -0.39265,-2.33334 -0.61989,-0.23071 -0.20212,-1.27165 0.92837,-2.31321 1.77579,-1.63608 1.96383,-1.63608 1.38214,0 -0.37031,1.04156 -0.13326,2.94374 0.52678,4.22707 0.90631,1.76216 0.66409,2.33333 -0.98949,2.33333 -1.35469,0 -1.90953,-0.72975 -1.45515,-1.91385 z m 6.44786,1.91385 c -1.03841,-2.9385 -1.20561,-52.06389 -0.17937,-52.69814 0.775,-0.47898 1.29844,3.0633 1.32294,8.95279 0.0303,7.2714 0.38555,9.15301 1.39959,7.41202 0.74747,-1.28333 2.33382,-2.33333 3.52521,-2.33333 1.72935,0 1.52067,-0.6871 -1.03489,-3.40736 -2.35073,-2.50225 -2.58555,-3.17118 -0.88396,-2.51822 1.75426,0.67318 2.11683,0.36729 1.49264,-1.2593 -0.59739,-1.55679 -0.0508,-2.14846 1.98488,-2.14846 1.86751,0 2.80932,0.84617 2.80932,2.52402 0,1.38821 0.93803,2.88397 2.08451,3.32391 1.14648,0.43995 1.71107,1.40414 1.25465,2.14266 -1.12832,1.82566 -3.41983,1.70578 -3.00582,-0.15725 0.18333,-0.825 -0.26667,-1.725 -1,-2 -0.73334,-0.275 -1.33334,1.6 -1.33334,4.16666 0,4.94955 1.35666,6.22956 2.47304,2.33334 0.36772,-1.28334 0.34494,-0.0833 -0.0506,2.66666 -0.57631,4.00661 -0.29236,5 1.42919,5 1.18162,0 2.14839,0.6 2.14839,1.33334 0,0.73333 -0.9,1.33333 -2,1.33333 -1.1,0 -2,0.6 -2,1.33333 0,0.73334 -0.66994,1.33334 -1.48877,1.33334 -0.86905,0 -1.22352,-1.38754 -0.85156,-3.33334 0.35044,-1.83333 0.18016,-3.33333 -0.37843,-3.33333 -0.55859,0 -0.891,-1.8 -0.73869,-4 0.29751,-4.29741 -2.3252,-5.56027 -3.76348,-1.81216 -1.00927,2.63011 0.24031,7.14549 1.97743,7.14549 0.68391,0 1.2219,0.75 1.19553,1.66667 -0.0264,0.91667 -1.37637,0.0412 -3,-1.94539 l -2.95205,-3.61206 0.42514,10.30225 c 0.372,9.0147 -0.20401,23.44912 -0.8615,21.58853 z m 2.54162,-3.44444 c 0.064,-1.55326 0.37993,-1.8692 0.80556,-0.80556 0.38516,0.9625 0.33779,2.1125 -0.10527,2.55556 -0.44305,0.44305 -0.75818,-0.34445 -0.70029,-1.75 z m -26.77193,-3.88889 c 0,-1.1 0.23581,-2 0.52402,-2 0.2882,0 0.86937,0.9 1.29148,2 0.42211,1.1 0.18631,2 -0.52401,2 -0.71032,0 -1.29149,-0.9 -1.29149,-2 z m 13.33333,0.0787 c 0,-1.14328 0.6,-2.07869 1.33334,-2.07869 0.73333,0 1.33333,0.56459 1.33333,1.25464 0,0.69006 -0.6,1.62547 -1.33333,2.07869 -0.73334,0.45323 -1.33334,-0.11136 -1.33334,-1.25464 z m -17.33333,-2.74532 c 0,-1.1 0.83581,-2 1.85735,-2 1.02154,0 2.20271,-0.9 2.62482,-2 0.42211,-1.1 0.11632,-2 -0.67952,-2 -0.79585,0 -1.14673,-1.14825 -0.77972,-2.55166 0.46028,-1.76012 -0.15351,-2.76631 -1.97865,-3.24359 -1.45526,-0.38056 -2.25014,-1.33231 -1.76641,-2.115 1.17107,-1.89483 4.81278,-1.831 4.3888,0.0769 -0.18334,0.825 0.48771,1.79868 1.49122,2.16374 1.39065,0.50589 1.51138,0.10413 0.50768,-1.68938 -0.72428,-1.29421 -1.00081,-3.56172 -0.61452,-5.0389 0.47919,-1.83244 0.20507,-2.37845 -0.86277,-1.71849 -0.86081,0.53201 -1.1673,1.67583 -0.68109,2.54183 0.67312,1.1989 0.48337,1.20464 -0.79541,0.024 -1.00579,-0.92858 -1.23299,-2.26561 -0.56643,-3.33334 1.86274,-2.9838 1.67631,-4.78065 -0.4784,-4.61081 -1.12563,0.0887 -2.34151,-0.67968 -2.70195,-1.70755 -0.474,-1.35169 0.13199,-1.66296 2.18983,-1.12482 1.90867,0.49913 2.84517,0.12681 2.84517,-1.13115 0,-1.03134 0.45,-1.87521 1,-1.87527 0.55,-5e-5 0.927,1.94995 0.83778,4.33334 -0.0892,2.38338 0.41243,5.05714 1.11479,5.94169 0.70235,0.88454 0.88994,2.23454 0.41686,3 -0.47308,0.76545 0.0313,1.39174 1.12078,1.39174 1.08951,0 2.25532,-1.05 2.59069,-2.33334 0.55386,-2.11939 0.62394,-2.10794 0.76443,0.12483 0.0893,1.41896 -0.97268,2.75297 -2.512,3.15551 -1.46666,0.38354 -2.66666,1.20626 -2.66666,1.82826 0,0.622 1.2,1.77313 2.66666,2.55807 2.92071,1.56312 3.44075,5.39559 1.28,9.433 -1.02618,1.91743 -2.23939,2.37701 -4.66667,1.7678 -2.00678,-0.50367 -3.27999,-0.24955 -3.27999,0.65466 0,0.81283 -0.6,1.47787 -1.33334,1.47787 -0.73333,0 -1.33333,-0.9 -1.33333,-2 z m 10.39768,-6.54999 c -0.26022,-1.82127 -1.43464,-2.83563 -3.39768,-2.93463 -3.10105,-0.15638 -4.00535,1.37257 -1.66667,2.81796 0.73334,0.45322 1.33334,2.0621 1.33334,3.57528 0,2.33248 0.3142,2.49047 2.06434,1.03798 1.13539,-0.94228 1.88539,-2.96575 1.66667,-4.49659 z m -3.73101,-0.78339 c 0,-0.73333 0.63541,-1.33333 1.41202,-1.33333 0.77661,0 1.0412,0.6 0.58798,1.33333 -0.45323,0.73333 -1.08864,1.33333 -1.41203,1.33333 -0.32338,0 -0.58797,-0.6 -0.58797,-1.33333 z m 7.15364,-6 c 0.004,-7.33333 0.22737,-10.16322 0.49756,-6.28864 0.27019,3.87459 0.26735,9.87459 -0.006,13.33334 -0.2737,3.45875 -0.49477,0.28863 -0.4913,-7.0447 z m 26.1797,9.33333 c 0,-1.1 0.6,-2 1.33333,-2 0.73333,0 1.33333,0.9 1.33333,2 0,1.1 -0.6,2 -1.33333,2 -0.73333,0 -1.33333,-0.9 -1.33333,-2 z m -17.14236,-0.52041 c -1.11234,-0.70482 -1.29451,-1.46423 -0.47304,-1.97193 0.73478,-0.45412 1.68001,0.0709 2.1005,1.16667 0.88351,2.30238 0.80029,2.34355 -1.62746,0.80526 z m 9.91573,-1.36167 c -1.44856,-1.60065 -2.09573,-3.95658 -1.73976,-6.33334 0.54946,-3.66861 0.57295,-3.6518 0.76661,0.54876 0.10988,2.38333 0.83519,4.33333 1.6118,4.33333 0.77661,0 1.03858,-0.60424 0.58216,-1.34275 -1.23859,-2.00408 3.26953,-3.26214 5.09544,-1.42197 1.21831,1.22784 0.97045,1.36297 -1.08962,0.59407 -2.36911,-0.88424 -2.46248,-0.74428 -0.83674,1.25434 1.55101,1.90676 1.55101,2.25276 0,2.27006 -1.43732,0.016 -1.40083,0.29772 0.17007,1.31292 1.74922,1.13043 1.73333,1.29506 -0.12668,1.31291 -1.16968,0.0112 -3.16465,-1.12652 -4.43328,-2.52833 z m -15.44005,-0.007 c 0,-0.67222 0.75,-1.52654 1.66667,-1.89849 1.2612,-0.51174 1.1895,-1.0077 -0.29472,-2.03861 -1.07876,-0.74929 -1.44662,-1.84497 -0.81746,-2.43484 0.62916,-0.58988 1.42013,-0.29746 1.75772,0.64982 0.47145,1.32292 1.0475,1.36236 2.48413,0.17007 1.47877,-1.22728 1.87034,-1.08288 1.87034,0.68971 0,1.23307 -0.55681,1.89782 -1.23734,1.47723 -0.68054,-0.4206 -1.62097,0.44399 -2.08986,1.92131 -0.8518,2.68378 -3.33948,3.77421 -3.33948,1.4638 z m 0,-14.1898 c 0,-1.14327 0.55681,-1.73456 1.23734,-1.31397 0.68054,0.4206 1.62097,-0.44399 2.08985,-1.92131 0.87322,-2.75125 3.33949,-3.75024 3.33949,-1.35269 0,0.73333 -0.55957,1.33333 -1.24349,1.33333 -0.68391,0 -1.62435,1.2 -2.08985,2.66667 -1.0014,3.15511 -3.33334,3.56645 -3.33334,0.58797 z m 4.66668,0.74536 c 0.45322,-0.73333 1.08863,-1.33333 1.41202,-1.33333 0.32339,0 0.58798,0.6 0.58798,1.33333 0,0.73333 -0.63542,1.33333 -1.41203,1.33333 -0.77661,0 -1.0412,-0.6 -0.58797,-1.33333 z m -5.06357,-5.77778 c -0.37521,-0.97778 0.1606,-1.77778 1.19068,-1.77778 1.03008,0 1.87288,0.8 1.87288,1.77778 0,0.97778 -0.53581,1.77778 -1.19068,1.77778 -0.65488,0 -1.49767,-0.8 -1.87288,-1.77778 z m -4.34157,-5.00506 c -0.49272,-0.79723 -0.22813,-2.11723 0.58797,-2.93334 1.08955,-1.08954 1.48383,-0.70438 1.48383,1.44951 0,3.21935 -0.69261,3.7154 -2.0718,1.48383 z m 3.84957,-3.2542 c 0,-2.30497 2.44418,-1.96376 3.25,0.45371 0.29028,0.87083 -0.32222,1.58333 -1.36111,1.58333 -1.03889,0 -1.88889,-0.91667 -1.88889,-2.03704 z m 2.88889,-1.25652 c -3.09027,-3.49045 -3.92238,-6.03977 -1.97141,-6.03977 0.74905,0 2.04536,1.5 2.88069,3.33333 0.83532,1.83333 2.02246,3.33333 2.63808,3.33333 0.61562,0 1.11932,0.6 1.11932,1.33334 0,2.07136 -1.74698,1.33754 -4.66668,-1.96023 z m -17.37599,0.55787 c -0.67421,-1.0909 -0.0199,-1.28978 2.20902,-0.67145 3.05858,0.84848 3.07839,0.80773 0.5788,-1.19049 -1.42349,-1.13797 -3.37349,-2.06904 -4.33333,-2.06904 -0.95984,0 -1.74516,-0.9 -1.74516,-2 0,-1.1 0.93541,-2 2.07869,-2 1.14328,0 1.73349,0.55854 1.31158,1.24121 -0.42191,0.68266 -0.21732,1.58099 0.45464,1.99628 0.67197,0.4153 1.20784,-1.49325 1.19084,-4.2412 -0.0217,-3.50826 -0.31059,-4.22844 -0.96999,-2.41812 -0.64341,1.7664 -1.24619,2.08126 -1.91445,1 -0.53645,-0.86799 -0.50682,-2.32817 0.0658,-3.24483 1.77574,-2.84247 1.63113,-5 -0.33513,-5 -1.03511,0 -1.88202,-0.9 -1.88202,-2 0,-1.1 0.94767,-2 2.10594,-2 1.66212,0 1.92607,-0.91324 1.25243,-4.33334 -0.62142,-3.15505 -0.48441,-3.79312 0.5039,-2.3466 1.02812,1.50479 1.23175,1.01964 0.83943,-2 -0.28488,-2.1927 -0.56849,-5.18673 -0.63025,-6.6534 -0.0934,-2.2181 -0.3297,-2.33024 -1.40478,-0.66666 -1.11438,1.72437 -1.29531,1.68985 -1.31292,-0.25047 -0.0125,-1.3755 0.94045,-2.17809 2.45099,-2.0643 1.76494,0.13294 2.50274,1.28805 2.58101,4.04084 0.12246,4.30704 4.1334,8.2277 6.26977,6.12865 0.87081,-0.8556 0.64321,-1.72836 -0.66666,-2.55649 -1.44858,-0.91582 -1.51472,-1.26295 -0.2435,-1.27782 0.95994,-0.0112 1.37747,-0.61566 0.92783,-1.34319 -0.44963,-0.72752 -0.20329,-2.37752 0.54744,-3.66666 1.00433,-1.72464 1.31928,0.47421 1.19211,8.32277 -0.0951,5.86667 -0.41568,8.70528 -0.71249,6.30802 -0.2968,-2.39725 -1.05932,-4.03747 -1.69448,-3.64492 -0.63516,0.39255 -1.53171,0.10394 -1.99233,-0.64135 -1.26442,-2.04589 -3.36664,-1.62497 -2.54736,0.51005 0.39364,1.02582 0.065,2.26728 -0.73026,2.7588 -0.79529,0.49151 -1.09765,1.45728 -0.67191,2.14614 0.42574,0.68887 -0.61447,1.80938 -2.31158,2.49002 -2.30705,0.92527 -2.49689,1.25887 -0.75233,1.32206 2.09692,0.076 2.94057,1.57205 2.49123,4.41785 -0.0868,0.55 0.48254,1 1.26529,1 0.81642,0 1.06234,1.13692 0.57681,2.66666 -0.86021,2.71029 0.41423,3.47944 2.76154,1.66667 0.71219,-0.55 0.20786,0.0159 -1.12071,1.25749 -2.32747,2.17513 -2.31634,2.31062 0.30512,3.71358 3.15741,1.6898 3.7138,4.32632 0.6662,3.15684 -1.28066,-0.49143 -1.90844,-0.12882 -1.66667,0.96266 0.4957,2.23791 -3.7177,3.22935 -4.98813,1.17374 z m 9.8507,-4.93098 c -0.27664,-1.28333 -0.14088,-5.33333 0.30169,-9 0.79571,-6.59254 0.80699,-6.5666 1.01413,2.33334 0.20448,8.78552 -0.30387,11.36113 -1.31582,6.66666 z m 9.5253,1 c 0,-0.73333 0.6,-1.33333 1.33333,-1.33333 0.73334,0 1.33334,0.6 1.33334,1.33333 0,0.73334 -0.6,1.33334 -1.33334,1.33334 -0.73333,0 -1.33333,-0.6 -1.33333,-1.33334 z m 9.33333,-2.58797 c 0,-0.69006 0.59313,-1.62122 1.31806,-2.06925 0.75582,-0.46712 0.97935,0.0681 0.52402,1.25464 -0.88639,2.30989 -1.84208,2.73252 -1.84208,0.81461 z m 4.85117,-0.74536 c 0.42211,-1.1 1.94613,-2 3.38672,-2 2.32823,0 2.39703,0.22222 0.61925,2 -1.1,1.1 -2.62402,2 -3.38672,2 -0.7627,0 -1.04136,-0.9 -0.61925,-2 z m -9.63718,-16.33349 c -0.0723,-7.87392 0.25982,-11.42262 0.84225,-8.99984 1.30868,5.44383 1.51721,22.00003 0.2771,21.99984 -0.55,-8e-5 -1.05371,-5.85008 -1.11935,-13 z m 4.06452,11.57812 c -1.36808,-2.21361 -0.14015,-2.52057 1.77406,-0.44348 0.94558,1.02603 1.13099,1.86552 0.41202,1.86552 -0.71896,0 -1.7027,-0.63992 -2.18608,-1.42204 z m 5.57266,-0.57796 c -0.42211,-1.1 -0.18631,-2 0.52401,-2 0.71032,0 1.29149,0.556 1.29149,1.23556 0,0.67957 1.05,1.50997 2.33333,1.84534 1.84051,0.48097 1.72983,0.64243 -0.52401,0.76443 -1.57154,0.0851 -3.20271,-0.74533 -3.62482,-1.84533 z m -19.51784,-1.41203 c 0,-1.14327 0.6,-1.70787 1.33333,-1.25464 0.73334,0.45323 1.33334,1.38863 1.33334,2.07869 0,0.69005 -0.6,1.25464 -1.33334,1.25464 -0.73333,0 -1.33333,-0.93541 -1.33333,-2.07869 z m 3.33333,-0.58797 c -0.4655,-1.46667 -1.40593,-2.66667 -2.08985,-2.66667 -0.68391,0 -1.24348,-0.9 -1.24348,-2 0,-1.1 0.6,-2 1.33333,-2 0.73334,0 1.33334,0.9 1.33334,2 0,1.1 0.63541,2 1.41202,2 0.77661,0 1.04121,-0.6 0.58798,-1.33333 -0.90901,-1.47081 1.04338,-1.84552 2.42372,-0.46517 0.47749,0.47749 -0.17251,1.68618 -1.44444,2.68598 -1.49553,1.17554 -1.66486,1.69321 -0.47928,1.46517 1.00834,-0.19396 2.10834,0.39735 2.44445,1.31402 0.33611,0.91666 -0.29846,1.66666 -1.41015,1.66666 -1.1117,0 -2.40213,-1.2 -2.86764,-2.66666 z m 13.20354,-2.8767 c -0.65018,-1.05201 -0.0608,-1.30984 1.85112,-0.80985 1.90184,0.49734 2.99242,0.0283 3.38716,-1.45663 0.39241,-1.47624 0.6326,-1.21226 0.73685,0.80984 0.11002,2.13383 -0.59254,3 -2.43331,3 -1.42338,0 -3.01721,-0.69451 -3.54182,-1.54336 z m -3.20353,-2.04732 c 0,-1.41181 2.94445,-3.07598 5.44238,-3.07598 0.67336,0 1.22429,0.66419 1.22429,1.47598 0,0.81179 -0.82689,1.15868 -1.83753,0.77086 -1.01064,-0.38782 -2.51064,-0.032 -3.33333,0.79068 -1.05861,1.05861 -1.49581,1.06985 -1.49581,0.0385 z m -21.33334,-2.99729 c 0,-0.69006 0.59313,-1.62122 1.31806,-2.06925 0.75582,-0.46712 0.97934,0.0681 0.52402,1.25464 -0.88639,2.30989 -1.84208,2.73252 -1.84208,0.81461 z m 30.18157,-2.07103 c 0.42049,-1.09579 1.30166,-1.66038 1.95815,-1.25465 1.88256,1.16349 1.39198,3.24699 -0.76453,3.24699 -1.18945,0 -1.65803,-0.78213 -1.19362,-1.99234 z m -6.92672,-1.34427 c -2.18375,-1.69024 -2.22121,-1.87539 -0.23972,-1.18488 1.71921,0.59912 2.14142,0.27888 1.57576,-1.19519 -1.007,-2.62422 1.85719,-4.37217 3.85862,-2.35482 1.18268,1.19208 0.96018,1.33797 -0.93795,0.61498 -2.1805,-0.83054 -2.30425,-0.60366 -1,1.83335 2.58892,4.83744 1.25183,5.77622 -3.25671,2.28656 z m -15.7139,-1.39031 c 0.40616,-1.05844 1.27561,-1.59247 1.9321,-1.18674 1.65347,1.02191 1.50127,1.51029 -0.73848,2.36977 -1.28881,0.49456 -1.68622,0.10067 -1.19362,-1.18303 z m 5.22096,-0.035 c -1.15239,-1.15237 -2.09524,-2.68778 -2.09524,-3.41201 0,-0.72423 -0.53713,-0.98482 -1.19362,-0.57909 -0.65649,0.40574 -1.57062,-0.24473 -2.03139,-1.44548 -1.14065,-2.97249 -0.14931,-3.65202 2.07818,-1.42452 1.01052,1.01052 2.58195,1.58909 3.49207,1.28572 0.91012,-0.30338 1.65476,0.13382 1.65476,0.97154 0,0.83772 -0.6,1.15232 -1.33333,0.69909 -0.73334,-0.45323 -1.33334,-0.18863 -1.33334,0.58798 0,0.77661 0.53581,1.41202 1.19069,1.41202 0.65487,0 1.53604,0.9 1.95815,2 0.98404,2.56435 0.2431,2.53479 -2.38693,-0.0952 z m -22.80329,-4.63838 c -1.26696,-2.04998 0.46846,-3.37262 2.17978,-1.6613 0.95757,0.95757 0.98058,1.70336 0.0699,2.26619 -0.74656,0.4614 -1.75892,0.1892 -2.24969,-0.60489 z m 31.37472,-2.59969 c 0,-0.73334 0.63541,-1.33334 1.41202,-1.33334 0.77661,0 1.0412,0.6 0.58798,1.33334 -0.45323,0.73332 -1.08864,1.33332 -1.41202,1.33332 -0.32339,0 -0.58798,-0.6 -0.58798,-1.33333 z m 4.68011,-0.0217 c 0.46062,-0.74529 1.39602,-1.00989 2.07869,-0.58798 1.84939,1.14299 1.50454,1.94306 -0.83749,1.94306 -1.14328,0 -1.70182,-0.60979 -1.2412,-1.35508 z m -25.87959,-3.58434 c 0.97086,-1.61665 2.05219,-2.65237 2.40297,-2.30159 0.35077,0.35078 -0.44356,1.67349 -1.7652,2.93936 -2.29592,2.19905 -2.32433,2.17064 -0.63777,-0.63777 z m 17.68491,-5.24673 c 0.46635,-3.40236 0.95793,-9.55236 1.09241,-13.66667 0.21586,-6.60407 0.33303,-6.23076 1,3.18609 0.85075,12.01155 0.40911,16.66667 -1.58118,16.66667 -0.84982,0 -1.04139,-2.31811 -0.51123,-6.18609 z m 9.29235,4.18609 c 0,-1.1 0.83541,-2 1.85646,-2 1.02106,0 1.51732,0.54875 1.10281,1.21945 -0.41452,0.6707 7e-5,1.52333 0.92131,1.89474 0.92123,0.37141 0.42497,0.72265 -1.10281,0.78055 -1.62703,0.0617 -2.77777,-0.72328 -2.77777,-1.89474 z m -20.44445,0.0992 c 0,-1.59268 7.93862,-8.6105 8.57517,-7.58054 0.42613,0.68949 0.021,1.55919 -0.90019,1.93266 -1.26851,0.51425 -1.19234,1.01376 0.31388,2.05836 1.58394,1.0985 1.6518,1.71637 0.33333,3.03484 -1.31847,1.31847 -1.65552,1.19405 -1.65552,-0.61115 0,-1.24666 -0.60001,-2.26666 -1.33334,-2.26666 -0.73333,0 -1.33333,0.5358 -1.33333,1.19068 0,0.65487 -0.9,1.53604 -2,1.95815 -1.1,0.42211 -2,0.54976 -2,0.28366 z m -13.33334,-5.43249 c 0,-1.1 0.23581,-2 0.52402,-2 0.28821,0 0.86938,0.9 1.29149,2 0.42211,1.1 0.1863,2 -0.52402,2 -0.71032,0 -1.29149,-0.9 -1.29149,-2 z m 10.77193,-0.11111 c 0.064,-1.55326 0.37992,-1.8692 0.80556,-0.80556 0.38516,0.9625 0.33779,2.1125 -0.10527,2.55556 -0.44305,0.44305 -0.75819,-0.34445 -0.70029,-1.75 z m 21.85585,-0.433 c 0.99327,-3.12952 -0.48261,-3.63206 -3.2968,-1.12256 -1.59004,1.41788 -1.60547,1.31837 -0.10341,-0.66667 2.47327,-3.26852 5.4352,-2.90684 5.45952,0.66667 0.0169,2.48442 0.2635,2.65628 1.43484,1 1.25726,-1.77778 1.35383,-1.77778 0.86909,0 -0.29993,1.1 -1.60355,2.20515 -2.89692,2.45589 -1.84517,0.35772 -2.16095,-0.14478 -1.46633,-2.33333 z m -36.62778,-1.45589 c 0,-0.73334 0.6,-1.33334 1.33334,-1.33334 0.73333,0 1.33333,0.6 1.33333,1.33334 0,0.73333 -0.6,1.33333 -1.33333,1.33333 -0.73334,0 -1.33334,-0.6 -1.33334,-1.33333 z m 18.66667,-0.62482 c 0,-1.18945 0.78213,-1.65803 1.99234,-1.19362 1.09579,0.42049 1.66038,1.30166 1.25465,1.95815 -1.16349,1.88256 -3.24699,1.39199 -3.24699,-0.76453 z m -11.98591,-2.69154 c -0.90517,-1.09066 -1.30459,-2.8721 -0.8876,-3.95875 1.01556,-2.64649 -2.08124,-8.40664 -4.14905,-7.71737 -0.90426,0.30142 -1.64411,-0.10196 -1.64411,-0.89641 0,-0.79444 2.25,-1.43526 5,-1.42403 3.08366,0.0125 4.34546,0.43576 3.29222,1.10411 -1.70971,1.0849 -1.49622,7.75526 0.40143,12.54214 1.13182,2.85506 0.2004,3.01716 -2.01289,0.35031 z m 3.98591,0.74746 c 0,-0.78711 0.48418,-1.4311 1.07594,-1.4311 0.59177,0 1.69716,-1.65 2.45641,-3.66667 1.36437,-3.6239 1.37717,-3.61224 1.09717,1 -0.18786,3.0946 -1.01536,4.81189 -2.45641,5.09777 -1.19521,0.2371 -2.17311,-0.2129 -2.17311,-1 z m -9.98656,-1.45285 c 0.46062,-0.7453 1.39603,-1.00989 2.07869,-0.58798 1.84939,1.14299 1.50455,1.94306 -0.83749,1.94306 -1.14327,0 -1.70182,-0.60979 -1.2412,-1.35508 z m 40.65323,-0.72361 c 0,-1.14328 0.60979,-1.70182 1.35508,-1.2412 0.7453,0.46062 1.00989,1.39603 0.58798,2.07869 -1.14298,1.84939 -1.94306,1.50455 -1.94306,-0.83749 z m -7.26351,-1.84415 c -1.28891,-1.42423 -2.02927,-3.37423 -1.64525,-4.33333 0.46692,-1.16611 0.73311,-0.99688 0.8035,0.51083 0.0579,1.24005 0.80722,2.68848 1.66518,3.21872 1.05583,0.65254 1.27853,0.2308 0.68915,-1.30512 -1.0801,-2.81468 2.59099,-4.53345 4.84055,-2.2663 1.21764,1.22716 1.02985,1.381 -0.82401,0.67507 -2.04802,-0.77986 -2.27183,-0.39938 -1.52213,2.58767 1.03962,4.14216 -0.72126,4.54315 -4.00699,0.91246 z m -11.9315,-2.19747 c -0.96501,-2.51478 0.0596,-4.55439 2.2737,-4.52593 1.13035,0.0145 1.09466,0.33344 -0.12385,1.1066 -0.94369,0.59878 -1.3284,2.08539 -0.85735,3.31292 0.46997,1.2247 0.55448,2.22673 0.18781,2.22673 -0.36667,0 -1.03281,-0.95415 -1.48031,-2.12032 z m -7.95383,-5.213 c -0.42211,-1.1 -0.1863,-2 0.52402,-2 0.71031,0 1.29148,0.9 1.29148,2 0,1.1 -0.2358,2 -0.52401,2 -0.28821,0 -0.86938,-0.9 -1.29149,-2 z m 23.59329,-1.33335 c 0,-1.1 1.14285,-2 2.53968,-2 2.25749,0 2.31746,0.22222 0.53968,2 -1.1,1.1 -2.24286,2 -2.53968,2 -0.29683,0 -0.53968,-0.9 -0.53968,-2 z m -22.11112,-4.31661 c 3.85,-0.26933 10.15001,-0.26933 14.00001,0 3.85,0.26934 0.7,0.48971 -7.00001,0.48971 -7.7,0 -10.85,-0.22037 -7,-0.48971 z m -4.64659,-2.77033 c -2.28669,-1.45244 -3.64549,-9.03606 -1.82107,-10.16362 0.83701,-0.5173 1.46766,0.0199 1.46766,1.25032 0,1.18656 0.6,1.78656 1.33333,1.33333 0.73334,-0.45322 1.33334,0.14678 1.33334,1.33333 0,1.22487 -0.63173,1.76695 -1.46151,1.25412 -0.90715,-0.56065 -1.28213,0.0417 -0.9886,1.58798 0.50739,2.67289 7.78344,4.46131 7.78344,1.91313 0,-0.78204 -0.75,-1.27189 -1.66667,-1.08856 -0.91666,0.18333 -1.66666,-0.81667 -1.66666,-2.22222 0,-1.40556 0.765,-2.71056 1.7,-2.9 0.935,-0.18945 1.085,-0.0394 0.33333,0.33333 -2.7256,1.35172 -1.31314,3.03645 1.63333,1.94818 1.65,-0.60942 4.80001,-0.91583 7.00001,-0.68092 2.99858,0.32019 3.35454,0.16273 1.42183,-0.62895 -1.63048,-0.66789 -2.03757,-1.39018 -1.10749,-1.965 0.80887,-0.49991 2.41904,0.0394 3.57817,1.19856 1.21314,1.21315 2.10749,1.46786 2.10749,0.60024 0,-0.829 0.55459,-1.16451 1.23242,-0.74559 0.67784,0.41893 1.52942,-0.29566 1.89241,-1.58797 0.363,-1.29231 0.5584,0.30371 0.43425,3.54671 -0.13642,3.56303 -0.89848,6.02972 -1.92575,6.23334 -0.935,0.18532 -1.085,0.032 -0.33333,-0.34082 0.75167,-0.37278 1.36667,-1.84889 1.36667,-3.28025 0,-2.22191 -0.40518,-2.38562 -2.77086,-1.11955 -1.52397,0.81561 -3.62397,1.15555 -4.66667,0.75543 -1.1706,-0.44921 -1.93166,0.14907 -1.98952,1.56399 -0.0843,2.06215 -0.18922,2.04925 -1.04796,-0.12883 -0.9021,-2.28804 -1.09046,-2.26982 -3.44628,0.33333 -2.54601,2.81331 -6.77838,3.53876 -9.72531,1.66696 z m 8.97992,-9.57997 c 0,-0.73333 0.9,-1.33333 2,-1.33333 1.1,0 2.00001,0.6 2.00001,1.33333 0,0.73333 -0.90001,1.33333 -2.00001,1.33333 -1.1,0 -2,-0.6 -2,-1.33333 z"
         id="path90"
         inkscape:connector-curvature="0"
         sodipodi:nodetypes="cscccsccccccscsccccssccsccsccscsscssccscssssccsscscccscssssscsccsssccsccsscccsccccscssccccsscccssccsccssssssccccsccssscsscssscscccccscccsssscccscccccscscccsscccccsccccsssscsscccssscccccccsssccccsscssscccsccccsccsssscssccccsscscscccscccscccsccccscccsccccssssssssscccccccssccscccccscccscccccccsssccccccccccssscsscccsccccccccscccscssscsccccscsccsccsscccccscccssccccscsccsssssssccscsscscsssccccsscccccscccssccccsccssssscsccscccscccscsssssssscscsssccsccccccccccssccccsccssccssscccccsccsscsscscccsssssccccccssccccccccscccccsccssccsscscssscsssssccscscsscscssccccsssccccscssscssscccscccccccscccccccsccccccccccscssssssscsssssscsccccscsssccsscssscssssscccccscccccscsssscssssssccsccccccscsccscscsccscssccccsccccscsccscsssccscssscsscccssccssssssssssssccsccccccccccssssssccscsssccccsscccsccscsccssccccsccsscccssssssssssssccscccscsccscscccccccscccccsccccscsssss" />
    </g>
    <g
       transform="matrix(3.0596141,0,0,2.6318548,-512.8583,-245.37912)"
       id="g102">
      <path
         sodipodi:nodetypes="ccscsssssscccccssccsccssssssscscsssscscsssccscccccssccsccccscsssscsssssccccccccccccssscccscccsscscsscscccscsscssccccsssssccscccsccccccccscssssssscsssccsccccscccscssssssscccssccssscscccscccccssscscsccsccscscccsccssccccscsccccsscccsssscscssscscscccsssscccccscssccccscccccccccccccsccccs"
         inkscape:connector-curvature="0"
         id="path90-0"
         d="m 258.28581,227.79188 c 0.18413,-4.15726 0.72805,-7.95193 1.2087,-8.43258 0.48066,-0.48067 0.87392,-0.1004 0.87392,0.84489 0,1.37665 0.39814,1.3884 2,0.0589 1.63802,-1.35942 2,-1.26832 2,0.50342 0,1.18978 -0.6,2.16325 -1.33333,2.16325 -0.73333,0 -1.33333,1.2 -1.33333,2.66667 0,1.46666 0.65,2.66666 1.44444,2.66666 0.79445,0 1.19445,0.75 0.88889,1.66667 -0.30556,0.91667 -1.27744,1.66667 -2.15975,1.66667 -0.8823,0 -2.12621,0.84466 -2.76425,1.87704 -0.72249,1.16901 -1.0338,-0.97414 -0.82529,-5.68164 z m 22.87114,4.48172 c 0.83071,-2.96981 0.69654,-3.12954 -1.26285,-1.5034 -2.37736,1.97303 -2.28619,2.21636 -2.68788,-7.17372 -0.11733,-2.74272 0.45752,-4 1.82888,-4 1.1,0 2.45,-0.6 3,-1.33333 1.50187,-2.00248 3.62249,1.98276 3.64625,6.85229 0.012,2.33527 -1.1896,5.57714 -2.71673,7.33334 l -2.73713,3.1477 z m 1.87815,-6.67712 c 0,-1.46666 -0.6,-2.66666 -1.33333,-2.66666 -0.73334,0 -1.33334,1.2 -1.33334,2.66666 0,1.46667 0.6,2.66667 1.33334,2.66667 0.73333,0 1.33333,-1.2 1.33333,-2.66667 z m 13.33333,6.74536 c 0,-1.42338 0.54404,-2.92421 1.20899,-3.33517 0.66495,-0.41096 0.89496,0.45363 0.51116,1.92131 -0.39031,1.49256 -0.0417,2.6685 0.79101,2.6685 2.29366,0 1.76227,-5.3121 -0.62296,-6.2274 -1.70029,-0.65246 -1.76524,-1.03004 -0.33333,-1.93773 3.32033,-2.10476 5.1118,-1.20579 5.1118,2.56513 0,3.98392 -2.09863,6.93334 -4.93333,6.93334 -0.95334,0 -1.73334,-1.16459 -1.73334,-2.58798 z m -85.29646,-0.70094 c -0.9332,-1.12443 -1.36514,-2.04442 -0.95987,-2.04442 0.40527,0 0.23803,-1.73929 -0.37164,-3.86509 -0.70981,-2.47499 -0.58044,-4.39316 0.35973,-5.33333 1.94452,-1.94452 3.31984,-1.86039 3.24338,0.19842 -0.19279,5.19115 0.52308,9 1.69153,9 1.79832,0 1.70367,-4.94708 -0.11613,-6.0718 -0.96635,-0.59722 -1.00507,-1.34029 -0.11614,-2.22918 0.73334,-0.73334 1.9856,-0.9302 2.78284,-0.43748 2.48778,1.53753 1.58987,6.80842 -1.6837,9.8838 -2.77798,2.60977 -3.32559,2.7117 -4.82992,0.89908 z m 21.01874,1.02597 c -1.0867,-2.22797 -0.33108,-12.85848 0.94439,-13.28591 0.73333,-0.24574 1.50193,2.00802 1.708,5.00836 0.20607,3.00034 0.50607,6.07436 0.66667,6.83116 0.35465,1.67122 -2.58462,2.9521 -3.31906,1.44639 z m 7.27772,0.018 c -0.91666,-0.35419 -1.66666,-2.27399 -1.66666,-4.2662 0,-1.99223 -0.72,-4.34223 -1.6,-5.22223 -1.82902,-1.82901 -1.78771,-1.85428 3.6,-2.20208 4.19408,-0.27074 5.94542,1.13152 5.97958,4.78771 0.028,2.99455 -4.26866,7.69268 -6.31292,6.9028 z m 3.66667,-5.6764 c 0,-1.42339 -0.6,-2.9588 -1.33333,-3.41203 -0.75622,-0.46736 -1.33334,0.65283 -1.33334,2.58798 0,1.87661 0.6,3.41202 1.33334,3.41202 0.73333,0 1.33333,-1.16458 1.33333,-2.58797 z m -50.66667,0.0846 c 0,-3.24639 0.83939,-5.85095 2.25595,-7 1.53288,-1.2434 1.93501,-1.29573 1.25464,-0.16325 -0.55071,0.91666 -0.50225,1.66666 0.10769,1.66666 0.60995,0 1.109,2.4 1.109,5.33334 0,4.21652 -0.49495,5.33333 -2.36364,5.33333 -1.85625,0 -2.36364,-1.10983 -2.36364,-5.17008 z m 112.73706,2.61722 c -0.42931,-0.69462 -0.21223,-1.6142 0.4824,-2.04349 0.69462,-0.42931 1.6142,-0.21223 2.04349,0.4824 0.42931,0.69463 0.21223,1.6142 -0.4824,2.04349 -0.69463,0.42931 -1.6142,0.21223 -2.04349,-0.4824 z m -6.42296,-7.57747 c -0.43836,-0.43836 -0.4683,-1.65367 -0.0665,-2.70069 0.55755,-1.45292 1.16374,-1.54414 2.56012,-0.38524 1.0063,0.83514 1.50082,2.05046 1.09894,2.7007 -0.8435,1.3648 -2.4416,1.53618 -3.59254,0.38523 z m -65.45084,-13.88671 c -1.21856,-6.09283 -1.07119,-11.69707 0.33037,-12.56328 1.36467,-0.84341 2.80637,2.2506 2.80637,6.0227 0,1.40669 0.6,2.55762 1.33334,2.55762 1.78514,0 1.70278,-4.43055 -0.11614,-6.24951 -1.0438,-1.04379 -1.00206,-1.72604 0.14907,-2.43749 1.81777,-1.12344 3.91629,1.54594 3.94669,5.02033 0.0107,1.28334 -1.11188,3.46563 -2.4958,4.84955 -1.38392,1.38392 -3.09545,3.55126 -3.80341,4.8163 -1.08409,1.93718 -1.42339,1.61906 -2.15045,-2.01622 z m 26.6923,3.12815 c -0.48889,-0.48889 -0.88889,-2.06235 -0.88889,-3.49659 0,-2.03034 -0.39617,-2.27891 -1.78935,-1.12268 -2.34102,1.94287 -3.54398,0.60136 -3.54398,-3.95216 0,-4.32142 3.23994,-8.08098 6.03858,-7.00704 1.4193,0.54463 1.96142,2.92439 1.96142,8.61001 0,7.93139 -0.16563,8.58061 -1.77778,6.96846 z m -1.42222,-11.91111 c -0.6454,-1.68188 -1.28743,-1.91258 -2.3541,-0.84591 -0.80666,0.80666 -1.06732,2.50732 -0.57924,3.77924 0.6454,1.68188 1.28743,1.91258 2.3541,0.84592 0.80666,-0.80667 1.06732,-2.50733 0.57924,-3.77925 z m -44.55154,8.51513 c -2.21286,-2.21286 -1.97354,-8.39682 0.40123,-10.3677 2.99927,-2.48918 6.01697,-0.61475 6.01697,3.73741 0,4.76538 -4.07424,8.97425 -6.4182,6.63029 z m 4.34384,-3.59481 c 0.96368,-1.55926 -0.51326,-5.45365 -2.06829,-5.45365 -0.65487,0 -1.19068,1.5 -1.19068,3.33333 0,3.29492 1.8066,4.47031 3.25897,2.12032 z m -27.0023,-1.64162 c 0.37877,-5.10078 0.72917,-5.55571 4.60059,-5.97315 3.87684,-0.41802 4.22987,-0.11537 4.71525,4.04222 0.59945,5.13476 0.0759,7.45223 -1.68362,7.45223 -0.67222,0 -1.22222,-2.1 -1.22222,-4.66667 0,-2.56666 -0.6,-4.66666 -1.33334,-4.66666 -0.73333,0 -1.33333,2.1 -1.33333,4.66666 0,3.33583 -0.59222,4.66667 -2.07667,4.66667 -1.61167,0 -1.98486,-1.23628 -1.66666,-5.5213 z m 83.25197,4.5855 c -0.46308,-0.46309 -0.84197,-3.40603 -0.84197,-6.53987 0,-5.35487 0.21446,-5.68141 3.56234,-5.42408 1.95928,0.15059 3.84116,1.11025 4.18194,2.13258 0.42378,1.27135 -0.07,1.59417 -1.56235,1.02148 -1.64453,-0.63107 -2.18193,-0.054 -2.18193,2.34309 0,1.74921 0.7484,3.42985 1.66312,3.73475 1.04852,0.34951 0.62058,1.11232 -1.15803,2.0642 -1.55163,0.8304 -3.20003,1.13094 -3.66312,0.66785 z m 19.0812,-0.73087 c -0.0423,-0.18333 -0.31724,-2.62439 -0.61111,-5.42458 -0.50004,-4.76493 -0.2295,-5.21859 4.22094,-7.07811 5.30949,-2.21844 6.6266,-1.75854 5.09346,1.77852 -0.56996,1.31496 -0.9003,3.47662 -0.7341,4.80367 0.39764,3.17486 -2.25554,6.25384 -5.38895,6.25384 -1.37688,0 -2.53799,-0.15 -2.58024,-0.33334 z m 5.41016,-3.66666 c 0,-0.73334 -0.6,-1.33334 -1.33333,-1.33334 -0.73334,0 -1.33334,0.6 -1.33334,1.33334 0,0.73333 0.6,1.33333 1.33334,1.33333 0.73333,0 1.33333,-0.6 1.33333,-1.33333 z m -1.33333,-5.33334 c 0,-0.73333 -0.63542,-1.33333 -1.41203,-1.33333 -0.77661,0 -1.0412,0.6 -0.58797,1.33333 0.45322,0.73334 1.08864,1.33334 1.41202,1.33334 0.32339,0 0.58798,-0.6 0.58798,-1.33334 z m -83.07487,-8.85264 c -1.41975,-1.41975 0.35968,-3.08228 2.44324,-2.28274 1.07231,0.41148 1.61768,1.28527 1.21195,1.94176 -0.86427,1.39842 -2.44984,1.54633 -3.65519,0.34098 z m -22.69134,-1.35801 c -0.48253,-0.48253 -0.2534,-1.62911 0.50918,-2.54796 0.96062,-1.15748 0.95707,-1.93606 -0.0116,-2.53471 -2.37829,-1.46986 -1.5487,-5.43367 1.7946,-8.57453 2.31107,-2.17114 3.46771,-2.55433 4.18873,-1.3877 1.5224,2.46329 1.77901,10.96763 0.41004,13.58889 -1.20566,2.30854 -5.19544,3.15156 -6.89099,1.45601 z m 5.76621,-2.56712 c 0,-2.35457 -2.87035,-1.94452 -3.69445,0.52777 -0.29028,0.87084 0.42222,1.58334 1.58333,1.58334 1.16112,0 2.11112,-0.95 2.11112,-2.11111 z m -1.33334,-7.22223 c 0,-1.46666 -0.6,-2.66666 -1.33333,-2.66666 -0.73333,0 -1.33333,1.2 -1.33333,2.66666 0,1.46667 0.6,2.66667 1.33333,2.66667 0.73333,0 1.33333,-1.2 1.33333,-2.66667 z m 21.27243,6.07339 c 1.84271,-2.22032 1.39951,-7.64372 -0.68051,-8.3272 -0.79977,-0.2628 -1.37578,1.369 -1.33333,3.77725 0.0411,2.33196 -0.67525,4.49317 -1.59192,4.80269 -1.21019,0.40863 -1.66667,-1.61968 -1.66667,-7.4057 0,-6.16158 0.49679,-8.15909 2.19084,-8.80916 1.20496,-0.46239 2.50496,-0.52658 2.88888,-0.14265 0.38394,0.38393 -0.002,0.69805 -0.85749,0.69805 -0.85556,0 -1.55556,0.9 -1.55556,2 0,1.1047 1.18236,2 2.64127,2 1.72554,0 2.93986,1.18975 3.50254,3.43166 0.96019,3.82565 -1.25616,9.90167 -3.61182,9.90167 -1.11064,0 -1.09059,-0.52363 0.0737,-1.92661 z m 16.91355,-0.33186 c -1.89102,-1.89101 -0.34846,-15.07486 1.76381,-15.07486 1.41224,0 1.66399,14.33597 0.26691,15.19941 -0.64795,0.40045 -1.56178,0.3444 -2.03072,-0.12455 z m 16.03625,0.0363 c -1.79472,-1.79472 -0.91603,-13.42874 1.14333,-15.13786 1.11772,-0.92762 2.41772,-1.30109 2.88888,-0.82992 0.47118,0.47116 0.15667,0.85666 -0.69888,0.85666 -0.85556,0 -1.55556,0.9 -1.55556,2 0,1.1 0.63542,2 1.41203,2 0.77661,0 1.0412,-0.6 0.58797,-1.33333 -0.45322,-0.73334 -0.18864,-1.33334 0.58798,-1.33334 2.10257,0 1.70652,3.89599 -0.634,6.2365 -1.54134,1.54134 -1.67747,2.49011 -0.55188,3.84636 2.28141,2.74893 -0.68222,6.19258 -3.17987,3.69492 z m 21.39216,-1.37407 c -0.34649,-0.58871 -0.68933,-4.16084 -0.76187,-7.93808 -0.0945,-4.92351 0.42666,-7.08204 1.84114,-7.62482 1.59357,-0.61151 1.97301,0.64515 1.97301,6.53437 0,4.01032 0.0449,7.72649 0.1,8.25815 0.14541,1.40565 -2.41072,2.03034 -3.15228,0.77038 z m 20.26783,0.59628 c -0.0648,-0.18333 -0.33895,-3.22472 -0.60926,-6.75864 -0.35133,-4.59307 -0.0325,-6.27431 1.11778,-5.89577 2.01856,0.66421 2.98226,12.98775 1.01565,12.98775 -0.77351,0 -1.45939,-0.15 -1.52417,-0.33334 z m 5.32645,0 c -0.0685,-0.18333 -0.23291,-3.1063 -0.3652,-6.49548 -0.23657,-6.06087 -0.17427,-6.15893 3.79133,-5.96639 3.67598,0.17848 4.06932,0.64967 4.45616,5.33786 0.49179,5.96001 -1.88046,9.68027 -2.96524,4.65021 -0.3787,-1.75608 -0.94232,-4.39286 -1.25246,-5.85953 -0.31016,-1.46667 -0.63352,-0.11667 -0.71859,3 -0.0851,3.11667 -0.75467,5.66667 -1.488,5.66667 -0.73333,0 -1.38944,-0.15 -1.458,-0.33334 z m 1.09832,-28.6667 c -0.69931,-7.77126 1.54577,-14.38242 4.54465,-13.38279 1.7175,0.5725 1.57812,2.99573 -0.18497,3.21612 -3.10515,0.38814 -3.21445,0.67494 -0.92021,2.4144 1.525,1.15623 1.89304,2.15103 1,2.70295 -0.77722,0.48035 -1.41312,3.53795 -1.41312,6.79467 0,8.55835 -2.21406,7.28146 -3.02635,-1.74535 z m -104.75016,5.41368 c -1.17878,-0.47054 -0.39369,-1.55008 2.33333,-3.20848 4.31794,-2.62589 5.01946,-5.01421 2.7296,-9.29286 -1.63088,-3.04732 -5.28642,-3.44771 -5.28642,-0.57901 0,1.1 0.6,2 1.33333,2 0.73333,0 1.33333,1.24286 1.33333,2.76191 0,2.50958 -0.19121,2.57069 -2.09302,0.66888 -1.15117,-1.15117 -1.90117,-3.44403 -1.66667,-5.09524 0.33404,-2.35216 1.29246,-3.00222 4.42636,-3.00222 3.56172,0 4.0468,0.48847 4.42711,4.45806 0.27917,2.91381 -0.41362,5.39224 -2,7.15496 -2.35687,2.61886 -2.34994,2.68245 0.23956,2.19704 2.1192,-0.39725 2.80353,-1.84492 3.33333,-7.05157 0.81976,-8.05622 3.86816,-9.98314 3.76321,-2.37875 -0.0396,2.86752 0.32192,6.45467 0.80332,7.97143 1.04872,3.30424 -1.28813,5.14971 -3.83957,3.03221 -1.25311,-1.03999 -2.09297,-1.07587 -2.68695,-0.11479 -0.90569,1.46544 -4.13573,1.68157 -7.14985,0.47843 z m 29.62965,-0.65129 c -0.578,-0.93524 -1.14664,-4.86437 -1.26361,-8.73141 -0.17881,-5.91049 0.16235,-7.03098 2.14072,-7.03098 1.69699,0 2.15892,0.74381 1.65608,2.66666 -0.46993,1.79701 -0.0409,2.66667 1.31551,2.66667 4.39552,0 3.86565,6.59934 -0.84368,10.50774 -1.53998,1.27807 -2.1768,1.26139 -3.00502,-0.0787 z m 4.79311,-4.09573 c -0.0112,-0.91666 -0.60204,-2.56666 -1.31292,-3.66666 -1.00717,-1.5585 -1.297,-1.19059 -1.31292,1.66666 -0.0112,2.01667 0.57959,3.66667 1.31292,3.66667 0.73333,0 1.32415,-0.75 1.31292,-1.66667 z m 15.57597,4.77778 c -0.48889,-0.48889 -0.88889,-2.81542 -0.88889,-5.17007 0,-4.30564 3.22947,-8.55098 5.03223,-6.61517 0.53226,0.57157 0.21777,1.30707 -0.6989,1.63445 -2.06685,0.73816 -2.1747,4.66497 -0.18284,6.65684 0.8161,0.8161 1.0807,2.1361 0.58798,2.93333 -1.01699,1.64552 -2.54252,1.86768 -3.84958,0.56062 z m 17.99328,-0.27029 c -1.09313,-0.70069 -1.62504,-2.99453 -1.37292,-5.92081 0.22636,-2.62734 0.0207,-5.16782 -0.45698,-5.64552 -0.4777,-0.47769 -0.52638,-1.76018 -0.10814,-2.84997 0.4182,-1.08979 1.12686,-1.48113 1.5748,-0.86965 0.44795,0.61149 2.01446,1.77231 3.48112,2.57961 1.46667,0.8073 2.84655,2.95393 3.0664,4.77029 0.50447,4.1678 -3.68188,9.54002 -6.18422,7.93605 z m 3.63302,-8.36434 c -1.51606,-2.75146 -1.79472,-2.84267 -2.2363,-0.73193 -0.76717,3.66717 0.84314,7.00009 2.555,5.28822 0.99531,-0.9953 0.90107,-2.34252 -0.3187,-4.55629 z m 16.23204,6.28726 c -2.17006,-2.61476 -1.27598,-8.83044 1.52216,-10.5821 3.27605,-2.05085 4.47314,-0.0604 2.3498,3.90708 -1.45111,2.71143 -1.48443,3.63118 -0.16112,4.44902 1.30821,0.80853 1.26117,1.36876 -0.21806,2.5964 -1.46453,1.21545 -2.24536,1.13265 -3.49278,-0.3704 z"
         style="fill:#000000;stroke-width:1.33333" />
    </g>
    <g
       id="g155"
       transform="matrix(0,2.3468286,-2.3468286,0,781.09088,354.08025)">
      <path
         sodipodi:nodetypes="cscccsccccccscsccccssccsccsccscsscssccscssssccsscscccscssssscsccsssccsccsscccsccccscssccccsscccssccsccssssssccccsccssscsscssscscccccscccsssscccscccccscscccsscccccsccccsssscsscccssscccccccsssccccsscssscccsccccsccsssscssccccsscscscccscccscccsccccscccsccccssssssssscccccccssccscccccscccscccccccsssccccccccccssscsscccsccccccccscccscssscsccccscsccsccsscccccscccssccccscsccsssssssccscsscscsssccccsscccccscccssccccsccssssscsccscccscccscsssssssscscsssccsccccccccccssccccsccssccssscccccsccsscsscscccsssssccccccssccccccccscccccsccssccsscscssscsssssccscscsscscssccccsssccccscssscssscccscccccccscccccccsccccccccccscssssssscsssssscsccccscsssccsscssscssssscccccscccccscsssscssssssccsccccccscsccscscsccscssccccsccccscsccscsssccscssscsscccssccssssssssssssccsccccccccccssssssccscsssccccsscccsccscsccssccccsccsscccssssssssssssccscccscsccscscccccccscccccsccccscsssss"
         inkscape:connector-curvature="0"
         id="path153"
         d="m 39.972336,330.1616 c 0.5871,-1.8498 0.2396,-2.66667 -1.13444,-2.66667 -1.08944,0 -2.80094,-0.31472 -3.80333,-0.69937 -1.0024,-0.38465 -3.15147,0.53872 -4.77572,2.05195 l -2.95319,2.7513 v -3.11736 c 0,-2.67718 0.6588,-3.11477 4.66554,-3.09894 5.2415,0.0207 6.49268,-1.53303 3.00574,-3.73254 -1.7482,-1.10273 -3.07774,-1.00878 -5.33333,0.3769 l -3.00461,1.84581 2.66666,-3.08163 c 2.32059,-2.68169 2.36385,-2.9712 0.33334,-2.23072 -1.28334,0.468 -2.33334,0.2509 -2.33334,-0.48246 0,-1.47992 24.70282,-0.99123 26.21261,0.51856 0.49418,0.49417 -3.53482,0.8985 -8.95334,0.8985 h -9.85186 l 2.94545,2.94546 c 2.90642,2.90641 2.97076,2.91085 4.85396,0.33542 1.04967,-1.4355 2.35755,-2.16096 2.9064,-1.61212 0.54884,0.54886 0.2979,0.99791 -0.55766,0.99791 -0.85555,0 -1.55555,0.63541 -1.55555,1.41203 0,0.77661 0.6,1.0412 1.33333,0.58797 0.73334,-0.45323 2.08334,-0.35551 3,0.21715 2.79026,1.74312 5,1.64412 5,-0.22402 0,-0.974 -0.615,-2.0759 -1.36666,-2.44869 -0.75167,-0.37277 -0.60167,-0.52615 0.33333,-0.34081 0.97602,0.19345 1.87731,2.76146 2.11635,6.03 0.2646,3.61802 -0.0787,5.3871 -0.94177,4.85366 -0.74697,-0.46165 -1.0585,-1.62014 -0.69231,-2.57444 0.77119,-2.00968 -3.3181,-2.44268 -5.66357,-0.59969 -0.95391,0.74955 -1.87955,0.6798 -2.41202,-0.18175 -0.47523,-0.76894 0.0714,-1.39808 1.21463,-1.39808 1.14328,0 2.07869,-0.6211 2.07869,-1.38024 0,-0.9358 -0.85868,-0.92069 -2.66667,0.0469 -1.46666,0.78493 -2.66666,2.60604 -2.66666,4.04691 0,1.44086 -0.64044,2.61976 -1.42319,2.61976 -0.81641,0 -1.06234,-1.13692 -0.57681,-2.66667 z m -7.33334,-1.29149 c 0,-0.71031 0.9,-0.94612 2,-0.52402 1.1,0.42212 2,1.00328 2,1.2915 0,0.2882 -0.9,0.52401 -2,0.52401 -1.1,0 -2,-0.58117 -2,-1.29149 z m 22.471,-13.22603 c 1.414,-0.89601 1.47277,-1.76285 0.27167,-4.00713 -0.84296,-1.5751 -1.1695,-3.45139 -0.72564,-4.16958 1.15153,-1.86321 -2.50302,-1.61978 -4.41703,0.29423 -0.88,0.88 -1.6,3.1 -1.6,4.93333 0,2.11316 -0.46524,2.8681 -1.27095,2.06238 -0.70546,-0.70546 -0.91815,-4.68934 -0.47803,-8.95368 0.76221,-7.38515 0.92764,-7.66036 4.27095,-7.10535 1.91292,0.31755 4.21303,0.62671 5.11137,0.68701 1.08914,0.0731 1.37006,1.426 0.84314,4.06059 -1.06088,5.30441 0.43436,10.71572 2.96095,10.71572 1.12931,0 1.68246,0.6 1.22924,1.33333 -0.45323,0.73334 -2.43864,1.32415 -4.41202,1.31292 -2.51292,-0.0143 -3.04735,-0.363 -1.78365,-1.16377 z m -1.13766,-12.99389 c 0,-1.29296 -2.81873,-3.15526 -4.77572,-3.15526 -0.30669,0 -0.55762,1.80508 -0.55762,4.0113 0,3.67753 0.22189,3.87273 2.66667,2.34594 1.46667,-0.91594 2.66667,-2.35684 2.66667,-3.20198 z m -33.11353,11.9475 c 2.64585,-0.70073 4.19098,-4.02482 2.38862,-5.13874 -0.7013,-0.43344 -1.25685,-1.50266 -1.23455,-2.37604 0.0223,-0.87339 0.6924,-0.46599 1.48911,0.90533 1.14639,1.9732 1.67908,2.12032 2.55362,0.70528 0.60778,-0.98341 1.58768,-1.27325 2.17756,-0.64409 0.58987,0.62914 0.32249,1.41177 -0.59417,1.73916 -0.91667,0.32737 -1.66667,1.74524 -1.66667,3.15078 0,1.9365 -0.88823,2.5181 -3.66667,2.4009 -2.03334,-0.0857 -2.67785,-0.41655 -1.44685,-0.74258 z m 11.67492,-10.10276 c -0.0579,-5.31666 -0.44014,-8.76666 -0.84944,-7.66666 -0.4093,1.1 -1.94904,3.15453 -3.42166,4.56562 l -2.67747,2.56563 2.86025,1.05807 c 2.06852,0.7652 2.80496,2.08492 2.66048,4.76772 l -0.19978,3.70962 -0.56198,-3.73437 c -0.3821,-2.53897 -1.27846,-3.64597 -2.80023,-3.45825 -3.3516,0.41346 -9.85269,-2.60715 -8.90645,-4.13822 0.45408,-0.7347 1.72559,-1.33582 2.82559,-1.33582 1.1,0 1.62918,0.6 1.17596,1.33333 -0.45323,0.73333 -0.28586,1.33333 0.37193,1.33333 0.6578,0 1.27416,-2.07932 1.3697,-4.6207 0.12498,-3.3245 -0.61854,-5.17563 -2.65049,-6.59887 l -2.8242,-1.97815 3.01156,0.22687 c 3.04399,0.22929 6.12661,5.364 4.65235,7.74941 -0.4152,0.67179 0.24616,1.22144 1.46967,1.22144 1.76923,0 2.1098,-0.983 1.66389,-4.80253 -0.47196,-4.04268 -0.30247,-4.44943 1.07123,-2.57079 1.51154,2.06716 1.67823,2.0526 2.26012,-0.19746 0.34553,-1.33607 0.69783,3.12078 0.7829,9.90412 0.0851,6.78333 -0.14533,12.33333 -0.512,12.33333 -0.36666,0 -0.71403,-4.35 -0.77193,-9.66667 z m 3.60362,6.38405 c 0.4114,-1.07209 1.89257,-2.31252 3.29149,-2.75652 1.39892,-0.44398 2.5435,-1.78682 2.5435,-2.98408 0,-1.73364 0.33704,-1.83976 1.65552,-0.52129 1.31847,1.31848 1.28949,1.88175 -0.14235,2.76667 -1.25423,0.77516 -1.35166,1.38692 -0.32219,2.02317 1.83944,1.13684 1.93449,3.42131 0.14235,3.42131 -0.73333,0 -1.33333,-0.9 -1.33333,-2 0,-1.1 -0.53581,-2 -1.19069,-2 -0.65487,0 -1.53604,0.9 -1.95815,2 -0.42211,1.1 -1.36748,2 -2.10081,2 -0.73333,0 -0.99674,-0.87716 -0.58534,-1.94924 z m 21.94025,-2.82852 c 0.064,-1.55326 0.37992,-1.8692 0.80555,-0.80556 0.38517,0.9625 0.3378,2.1125 -0.10526,2.55556 -0.44306,0.44306 -0.75819,-0.34445 -0.7003,-1.75 z m -21.4386,-2.55553 c 0,-1.22222 0.645,-2.00722 1.43333,-1.74444 0.78833,0.26278 1.43334,1.04778 1.43334,1.74444 0,0.69667 -0.64501,1.48167 -1.43334,1.74444 -0.78833,0.26279 -1.43333,-0.52221 -1.43333,-1.74444 z m 22.66667,-4.07869 c 0,-1.14328 0.6,-1.70787 1.33333,-1.25464 0.73334,0.45323 1.33334,1.38864 1.33334,2.07869 0,0.69006 -0.6,1.25464 -1.33334,1.25464 -0.73333,0 -1.33333,-0.93541 -1.33333,-2.07869 z m -37.88941,-3.07569 c -0.57436,-0.92934 -0.68421,-2.04978 -0.24411,-2.48988 1.19328,-1.19328 2.49436,0.56173 1.84985,2.49526 -0.45163,1.3549 -0.76569,1.35384 -1.60574,-0.005 z m 15.26514,-0.42243 c -0.0233,-1.23392 1.1576,-2.62435 2.62427,-3.08985 1.46667,-0.46551 2.66667,-1.82594 2.66667,-3.02319 0,-1.73364 0.33704,-1.83976 1.65552,-0.52129 1.31847,1.31848 1.25061,1.91152 -0.33334,2.91292 -1.09387,0.69156 -1.33885,1.26658 -0.54441,1.27781 0.79445,0.0107 1.44445,0.92041 1.44445,2.02041 0,1.1 -0.5,2 -1.11111,2 -0.61111,0 -1.11111,-0.9 -1.11111,-2 0,-2.6535 -1.30489,-2.52842 -3.47728,0.33334 -1.62581,2.14173 -1.77474,2.1491 -1.81366,0.0899 z m 9.66974,-13.75652 c 0.0382,-7.33333 0.2896,-10.93333 0.55865,-8 0.26905,2.93333 0.83759,6.23333 1.26341,7.33333 1.35637,3.50386 1.72401,10.77762 0.5067,10.02528 -0.64483,-0.39853 -1.44822,0.33275 -1.78532,1.62507 -0.3371,1.29231 -0.58165,-3.65035 -0.54344,-10.98368 z m 8.48871,9.87325 c -1.31549,-1.53637 -1.96669,-3.18637 -1.44712,-3.66666 0.51958,-0.4803 1.21379,-0.11947 1.54269,0.80172 0.66169,1.85333 3.03692,0.94162 3.03692,-1.16568 0,-0.73334 -0.55855,-0.98815 -1.24121,-0.56624 -0.68266,0.42192 -1.63607,0.12813 -2.1187,-0.65272 -0.60212,-0.97426 -1.5725,-0.88368 -3.09213,0.28861 -1.86693,1.4402 -1.84829,1.27688 0.1187,-1.04024 2.85134,-3.35889 2.94459,-4.53871 0.35874,-4.53871 -2.5436,0 -3.99974,-5.75804 -2.2478,-8.88857 1.10445,-1.97355 1.30926,-1.59059 1.1203,2.09468 -0.14445,2.81708 0.46398,4.75311 1.62102,5.15813 1.16372,0.40736 1.49278,0.0667 0.88522,-0.91633 -0.53188,-0.8606 -0.39245,-2.28844 0.30984,-3.17297 0.70228,-0.88455 1.10703,-2.65827 0.89943,-3.9416 -0.28496,-1.76154 0.49217,-2.29543 3.17123,-2.17867 2.47855,0.108 2.8072,0.34584 1.08984,0.7886 -1.99993,0.51563 -2.32888,1.54436 -1.76252,5.512 0.38297,2.68293 0.39546,3.82807 0.0277,2.54473 -0.36767,-1.28333 -1.24564,-2.33333 -1.95101,-2.33333 -0.77286,0 -0.71537,1.05965 0.14468,2.66667 0.78493,1.46666 2.30605,2.66666 3.38024,2.66666 1.0742,0 1.95309,0.54383 1.95309,1.20851 0,0.66468 -1.35,0.87048 -3,0.45735 -2.98413,-0.74719 -2.98642,-0.73579 -0.4315,2.15633 1.86548,2.11169 2.1677,3.30828 1.10419,4.37179 -0.80537,0.80537 -1.14699,2.2912 -0.75918,3.30184 1.00194,2.61098 0.056,2.27765 -2.71266,-0.9559 z m -17.53419,-2.53992 c -0.45322,-0.73333 -0.18863,-1.33333 0.58798,-1.33333 0.77661,0 1.41203,0.6 1.41203,1.33333 0,0.73334 -0.26459,1.33334 -0.58798,1.33334 -0.32339,0 -0.9588,-0.6 -1.41203,-1.33334 z m -18.25,-3.57748 c 0.9625,-0.38516 2.1125,-0.3378 2.55556,0.1052 0.44306,0.44307 -0.34444,0.75819 -1.75,0.7003 -1.55326,-0.064 -1.8692,-0.37992 -0.80556,-0.80555 z m 3.75531,-4.31424 c -0.56593,-3.53909 -1.56389,-5.44161 -2.8544,-5.44161 -1.09133,0 -1.98424,-0.9 -1.98424,-2 0,-1.1 0.9,-2 2,-2 1.1,0 1.92895,0.45 1.84211,1 -0.39854,2.52408 0.30453,3.49969 1.34208,1.86233 0.93408,-1.47406 1.71804,-1.49676 4.28317,-0.124 3.00779,1.60971 3.02894,1.72063 0.5029,2.63748 -1.45031,0.5264 -3.08693,0.69678 -3.63693,0.37859 -0.55,-0.31819 -1,0.12107 -1,0.97616 0,0.85507 0.9,1.20932 2,0.7872 1.1,-0.42211 2,-0.18629 2,0.52401 0,0.71039 -0.63541,1.29156 -1.41202,1.29156 -0.77661,0 -1.1162,0.47866 -0.75464,1.06367 0.36156,0.58501 0.18144,1.83373 -0.40025,2.77493 -0.67591,1.09364 -1.3717,-0.25274 -1.92778,-3.73032 z m 6.71322,1.44934 c 0.24648,-0.97664 0.44814,-2.06206 0.44814,-2.41202 0,-0.34997 0.57754,-0.27937 1.28341,0.15688 0.7346,0.454 1.16222,-0.93662 1,-3.252 -0.15587,-2.22485 -0.76882,-4.04637 -1.3621,-4.04782 -0.59328,-10e-4 -0.70062,-0.61439 -0.23853,-1.36206 1.15248,-1.86474 -1.87854,-10.6406 -3.67507,-10.6406 -0.79869,0 -1.06665,-0.3855 -0.59549,-0.85666 0.47117,-0.47118 1.77117,-0.0977 2.88889,0.82992 1.38976,1.1534 2.03222,1.21346 2.03222,0.19 0,-0.82312 0.6,-1.49659 1.33334,-1.49659 0.79532,0 1.33333,5.11111 1.33333,12.66667 0,8.02614 -0.5173,12.66666 -1.41202,12.66666 -0.77661,0 -1.0412,-0.6 -0.58798,-1.33333 0.45323,-0.73333 0.23864,-1.33333 -0.47687,-1.33333 -0.7155,0 -1.55257,0.45 -1.86016,1 -0.30759,0.55 -0.35759,0.20093 -0.11111,-0.77572 z m 12.57204,-0.14771 c -1.044,-0.64523 -1.36098,-1.82028 -0.75537,-2.80019 0.6794,-1.09929 0.50639,-1.35645 -0.49585,-0.73704 -0.84664,0.52326 -1.53934,0.31596 -1.53934,-0.46065 0,-0.77661 0.63541,-1.41203 1.41202,-1.41203 0.77661,0 1.0412,-0.6 0.58798,-1.33333 -0.45323,-0.73333 -0.16233,-1.33333 0.64643,-1.33333 0.80875,0 1.34953,0.75 1.20172,1.66666 -0.1478,0.91667 0.20002,2.74255 0.77294,4.05751 1.27428,2.92471 0.56673,3.83399 -1.83053,2.3524 z m -5.94234,-2.06892 c 0.42049,-1.09579 1.30166,-1.66037 1.95815,-1.25464 1.88257,1.16349 1.39199,3.24699 -0.76453,3.24699 -1.18944,0 -1.65802,-0.78214 -1.19362,-1.99235 z m 0.029,-5.27308 c -0.49555,-1.29136 -0.10068,-1.68623 1.19068,-1.19068 2.10898,0.80928 2.65825,3.12277 0.74141,3.12277 -0.65487,0 -1.52432,-0.86944 -1.93209,-1.93209 z m -12.36363,-6.95243 c 0.81493,-3.58128 0.75334,-3.64469 -1.15981,-1.19397 -1.11125,1.42349 -2.02045,1.90891 -2.02045,1.07869 0,-0.83022 0.57379,-1.8641 1.2751,-2.29754 1.80236,-1.11392 0.25723,-4.43802 -2.38863,-5.13875 -1.22089,-0.32335 -0.5344,-0.65751 1.52555,-0.74257 2.1889,-0.0904 3.40291,0.39942 2.92131,1.17866 -0.45322,0.73334 -0.15322,1.33334 0.66667,1.33334 0.81989,0 1.14551,0.55854 0.7236,1.2412 -0.4219,0.68266 -0.0933,1.65766 0.73033,2.16666 1.06534,0.65842 0.98657,1.2412 -0.27297,2.01964 -0.97372,0.60179 -1.35228,1.5123 -0.84124,2.02334 0.51104,0.51104 1.94124,0.0936 3.17822,-0.92751 1.94043,-1.60189 2.15922,-1.58223 1.59445,0.14333 -0.36003,1.1 -2.03569,2.20196 -3.72369,2.44882 -2.74484,0.40138 -2.97816,0.0492 -2.20844,-3.33334 z m 16.81974,-0.59234 c 0,-1.93843 2.38552,-2.51231 3.0665,-0.7377 0.37359,0.97356 -0.16354,1.77012 -1.19362,1.77012 -1.03008,0 -1.87288,-0.4646 -1.87288,-1.03242 z m -4,-1.2685 c 0,-0.77661 0.6,-1.0412 1.33333,-0.58797 0.73333,0.45323 1.33334,1.08864 1.33334,1.41203 0,0.32338 -0.60001,0.58797 -1.33334,0.58797 -0.73333,0 -1.33333,-0.63541 -1.33333,-1.41203 z m 9.82031,-11.25464 c 0.003,-7.33333 0.22738,-10.16322 0.49756,-6.28863 0.27019,3.87458 0.26735,9.87458 -0.006,13.33333 -0.27371,3.45874 -0.49477,0.28864 -0.4913,-7.0447 z m 2.63979,10.60916 c -0.43424,-1.13162 -0.41541,-2.43162 0.0418,-2.88888 0.45727,-0.45726 0.8314,0.16862 0.8314,1.39083 0,1.35457 1.07191,2.22223 2.74535,2.22223 1.50995,0 2.37454,-0.6 1.92131,-1.33334 -1.25112,-2.02436 0.59745,-1.59302 2.85714,0.66667 1.77778,1.77777 1.46626,2 -2.80375,2 -3.09968,0 -5.08383,-0.72987 -5.59329,-2.05751 z m -9.68817,-1.68788 c -0.0579,-0.95995 -0.6424,-1.41339 -1.29889,-1.00765 -1.30192,0.80464 -3.30686,-3.19095 -2.17109,-4.32671 0.38392,-0.38393 0.69805,0.0373 0.69805,0.93619 0,0.89884 0.54875,1.29509 1.21945,0.88058 0.6707,-0.41452 1.52334,7e-5 1.89474,0.92131 0.52341,1.29825 0.69896,1.28243 0.78055,-0.0704 0.11991,-1.98828 2.77193,-0.80568 2.77193,1.23608 0,0.73333 -0.54875,0.99419 -1.21945,0.57968 -0.6707,-0.41452 -1.52334,7e-5 -1.89474,0.92131 -0.5234,1.29825 -0.69896,1.28242 -0.78055,-0.0704 z m 13.89474,-4.25461 c 1.04306,-3.2864 -1.36183,-3.53484 -3.22654,-0.33333 -0.74747,1.28333 -1.37728,1.70333 -1.39958,0.93333 -0.0558,-1.92504 2.78946,-4.6 4.89279,-4.6 0.96,0 1.73333,1.48717 1.73333,3.33333 0,1.83334 -0.64043,3.33334 -1.42319,3.33334 -0.81641,0 -1.06233,-1.13692 -0.57681,-2.66667 z m 3.43859,0.55556 c 0.064,-1.55327 0.37993,-1.8692 0.80556,-0.80556 0.38516,0.96249 0.33779,2.11249 -0.10527,2.55556 -0.44305,0.44305 -0.75818,-0.34445 -0.70029,-1.75 z m -36.75127,-3.0218 c 2.87047,-0.92619 3.29291,-2.44876 1.4751,-5.3166 -0.68503,-1.08073 -0.46869,-2.39345 0.54936,-3.33334 1.27877,-1.18059 1.46853,-1.17485 0.7954,0.024 -0.48621,0.866 -0.27423,1.95141 0.47106,2.41203 0.7453,0.46062 1.35509,-0.0625 1.35509,-1.16252 0,-1.09999 -0.48377,-2.29898 -1.07505,-2.66441 -1.47271,-0.91018 -0.27936,-10.15963 1.31077,-10.15963 0.70252,0 0.89645,1.2 0.43094,2.66667 -1.04306,3.2864 1.36183,3.53485 3.22654,0.33333 0.74747,-1.28333 1.37729,-1.61735 1.39959,-0.74227 0.0223,0.87509 -1.21805,2.47262 -2.75634,3.55007 l -2.79687,1.95901 2.79687,1.49684 c 1.53829,0.82326 2.79688,2.1492 2.79688,2.94653 0,0.89418 -0.86443,0.74849 -2.25594,-0.38025 -1.67658,-1.35997 -1.98952,-1.38689 -1.21855,-0.10485 0.57057,0.94879 0.43677,2.44879 -0.29734,3.33332 -1.98986,2.39764 -1.99234,3.84807 -0.009,5.10544 1.1314,0.71718 -0.16388,1.08766 -3.55279,1.01618 -3.62243,-0.0764 -4.47125,-0.39066 -2.646,-0.97959 z m 11.79965,-12.86709 c 0.004,-7.33334 0.22737,-10.16322 0.49756,-6.28864 0.27019,3.87458 0.26735,9.87458 -0.006,13.33333 -0.2737,3.45875 -0.49477,0.28864 -0.4913,-7.04469 z m 26.1797,9.25464 c 0,-1.14328 0.6,-1.70787 1.33333,-1.25464 0.73333,0.45322 1.33333,1.38864 1.33333,2.07869 0,0.69005 -0.6,1.25464 -1.33333,1.25464 -0.73333,0 -1.33333,-0.93541 -1.33333,-2.07869 z m -20.25142,-1.97326 c 1.60494,-1.49522 2.91808,-3.33063 2.91808,-4.07868 0,-0.74804 0.66406,-0.94967 1.47569,-0.44806 1.02915,0.63605 0.92829,1.26505 -0.33334,2.07869 -1.50409,0.97001 -1.47841,1.37919 0.15237,2.42751 1.07876,0.69345 1.49614,1.72608 0.9275,2.29472 -0.56863,0.56862 -1.59207,0.15125 -2.2743,-0.92751 -0.84003,-1.32828 -1.24701,-1.42341 -1.26083,-0.29472 -0.0112,0.91667 -1.03356,1.66667 -2.27184,1.66667 -1.89502,0 -1.78949,-0.43035 0.66667,-2.71862 z m 13.12473,0.2803 c -1.21366,-1.34108 -2.20665,-2.95576 -2.20665,-3.58818 0,-0.63242 0.94898,0.0148 2.10885,1.43832 1.63195,2.00288 1.95425,2.09 1.4252,0.3852 -0.37601,-1.21164 -0.30762,-2.57901 0.15197,-3.0386 1.83614,-1.83614 3.04476,-11.42509 1.44006,-11.42509 -0.71818,0 -0.92491,-1.2 -0.45941,-2.66667 1.04352,-3.28783 -1.32488,-3.52388 -3.34447,-0.33333 -0.85634,1.35286 -1.27104,1.53295 -0.98689,0.42859 0.71446,-2.77685 4.28526,-4.65407 6.92558,-3.64089 1.74819,0.67085 2.14122,1.98295 1.66112,5.54553 -0.48896,3.62827 -0.16051,4.66677 1.47596,4.66677 1.63608,0 1.43988,0.61953 -0.88098,2.78174 -2.51932,2.34709 -2.71485,3.11525 -1.25142,4.9163 1.48518,1.82783 1.39911,2.00891 -0.5989,1.26011 -1.28333,-0.48095 -2.33333,-0.29329 -2.33333,0.41702 0,0.71032 0.58116,1.2915 1.29148,1.2915 0.71032,0 0.94613,0.9 0.52402,2 -1.01087,2.63426 -2.26195,2.5233 -4.94219,-0.43832 z m 5.37084,-20.47835 c -0.42564,-1.06364 -0.74158,-0.7477 -0.80556,0.80556 -0.0579,1.40555 0.25724,2.19305 0.70029,1.75 0.44306,-0.44306 0.49043,-1.59306 0.10527,-2.55556 z m -20.91083,17.05932 c 0,-0.28821 0.93117,-0.88134 2.06925,-1.31806 1.18657,-0.45533 1.72177,-0.2318 1.25465,0.52401 -0.78301,1.26694 -3.3239,1.87393 -3.3239,0.79405 z m -17.33333,-2.80932 c 0,-1.1 0.6,-2 1.33333,-2 0.73334,0 1.33334,0.9 1.33334,2 0,1.1 -0.6,2 -1.33334,2 -0.73333,0 -1.33333,-0.9 -1.33333,-2 z m 30.66667,-0.58798 c 0,-0.69005 0.59313,-1.62121 1.31806,-2.06925 0.75582,-0.46712 0.97935,0.0681 0.52402,1.25465 -0.88639,2.30989 -1.84208,2.73251 -1.84208,0.8146 z m -28.46579,-4.70265 c -0.41309,-1.07652 -0.17729,-2.31193 0.52402,-2.74536 0.70131,-0.43343 1.2751,0.44736 1.2751,1.9573 0,3.21942 -0.74148,3.54421 -1.79912,0.78806 z m 15.13245,-1.45473 c 0,-1.14327 0.6,-1.70787 1.33334,-1.25464 0.73333,0.45323 1.33333,1.38863 1.33333,2.07869 0,0.69005 -0.6,1.25464 -1.33333,1.25464 -0.73334,0 -1.33334,-0.93541 -1.33334,-2.07869 z m 4.44912,0.16484 c 0.40393,-1.05262 0.22724,-2.10262 -0.39265,-2.33334 -0.61989,-0.23071 -0.20212,-1.27165 0.92837,-2.31321 1.77579,-1.63608 1.96383,-1.63608 1.38214,0 -0.37031,1.04156 -0.13326,2.94374 0.52678,4.22707 0.90631,1.76216 0.66409,2.33333 -0.98949,2.33333 -1.35469,0 -1.90953,-0.72975 -1.45515,-1.91385 z m 6.44786,1.91385 c -1.03841,-2.9385 -1.20561,-52.06389 -0.17937,-52.69814 0.775,-0.47898 1.29844,3.0633 1.32294,8.95279 0.0303,7.2714 0.38555,9.15301 1.39959,7.41202 0.74747,-1.28333 2.33382,-2.33333 3.52521,-2.33333 1.72935,0 1.52067,-0.6871 -1.03489,-3.40736 -2.35073,-2.50225 -2.58555,-3.17118 -0.88396,-2.51822 1.75426,0.67318 2.11683,0.36729 1.49264,-1.2593 -0.59739,-1.55679 -0.0508,-2.14846 1.98488,-2.14846 1.86751,0 2.80932,0.84617 2.80932,2.52402 0,1.38821 0.93803,2.88397 2.08451,3.32391 1.14648,0.43995 1.71107,1.40414 1.25465,2.14266 -1.12832,1.82566 -3.41983,1.70578 -3.00582,-0.15725 0.18333,-0.825 -0.26667,-1.725 -1,-2 -0.73334,-0.275 -1.33334,1.6 -1.33334,4.16666 0,4.94955 1.35666,6.22956 2.47304,2.33334 0.36772,-1.28334 0.34494,-0.0833 -0.0506,2.66666 -0.57631,4.00661 -0.29236,5 1.42919,5 1.18162,0 2.14839,0.6 2.14839,1.33334 0,0.73333 -0.9,1.33333 -2,1.33333 -1.1,0 -2,0.6 -2,1.33333 0,0.73334 -0.66994,1.33334 -1.48877,1.33334 -0.86905,0 -1.22352,-1.38754 -0.85156,-3.33334 0.35044,-1.83333 0.18016,-3.33333 -0.37843,-3.33333 -0.55859,0 -0.891,-1.8 -0.73869,-4 0.29751,-4.29741 -2.3252,-5.56027 -3.76348,-1.81216 -1.00927,2.63011 0.24031,7.14549 1.97743,7.14549 0.68391,0 1.2219,0.75 1.19553,1.66667 -0.0264,0.91667 -1.37637,0.0412 -3,-1.94539 l -2.95205,-3.61206 0.42514,10.30225 c 0.372,9.0147 -0.20401,23.44912 -0.8615,21.58853 z m 2.54162,-3.44444 c 0.064,-1.55326 0.37993,-1.8692 0.80556,-0.80556 0.38516,0.9625 0.33779,2.1125 -0.10527,2.55556 -0.44305,0.44305 -0.75818,-0.34445 -0.70029,-1.75 z m -26.77193,-3.88889 c 0,-1.1 0.23581,-2 0.52402,-2 0.2882,0 0.86937,0.9 1.29148,2 0.42211,1.1 0.18631,2 -0.52401,2 -0.71032,0 -1.29149,-0.9 -1.29149,-2 z m 13.33333,0.0787 c 0,-1.14328 0.6,-2.07869 1.33334,-2.07869 0.73333,0 1.33333,0.56459 1.33333,1.25464 0,0.69006 -0.6,1.62547 -1.33333,2.07869 -0.73334,0.45323 -1.33334,-0.11136 -1.33334,-1.25464 z m -17.33333,-2.74532 c 0,-1.1 0.83581,-2 1.85735,-2 1.02154,0 2.20271,-0.9 2.62482,-2 0.42211,-1.1 0.11632,-2 -0.67952,-2 -0.79585,0 -1.14673,-1.14825 -0.77972,-2.55166 0.46028,-1.76012 -0.15351,-2.76631 -1.97865,-3.24359 -1.45526,-0.38056 -2.25014,-1.33231 -1.76641,-2.115 1.17107,-1.89483 4.81278,-1.831 4.3888,0.0769 -0.18334,0.825 0.48771,1.79868 1.49122,2.16374 1.39065,0.50589 1.51138,0.10413 0.50768,-1.68938 -0.72428,-1.29421 -1.00081,-3.56172 -0.61452,-5.0389 0.47919,-1.83244 0.20507,-2.37845 -0.86277,-1.71849 -0.86081,0.53201 -1.1673,1.67583 -0.68109,2.54183 0.67312,1.1989 0.48337,1.20464 -0.79541,0.024 -1.00579,-0.92858 -1.23299,-2.26561 -0.56643,-3.33334 1.86274,-2.9838 1.67631,-4.78065 -0.4784,-4.61081 -1.12563,0.0887 -2.34151,-0.67968 -2.70195,-1.70755 -0.474,-1.35169 0.13199,-1.66296 2.18983,-1.12482 1.90867,0.49913 2.84517,0.12681 2.84517,-1.13115 0,-1.03134 0.45,-1.87521 1,-1.87527 0.55,-5e-5 0.927,1.94995 0.83778,4.33334 -0.0892,2.38338 0.41243,5.05714 1.11479,5.94169 0.70235,0.88454 0.88994,2.23454 0.41686,3 -0.47308,0.76545 0.0313,1.39174 1.12078,1.39174 1.08951,0 2.25532,-1.05 2.59069,-2.33334 0.55386,-2.11939 0.62394,-2.10794 0.76443,0.12483 0.0893,1.41896 -0.97268,2.75297 -2.512,3.15551 -1.46666,0.38354 -2.66666,1.20626 -2.66666,1.82826 0,0.622 1.2,1.77313 2.66666,2.55807 2.92071,1.56312 3.44075,5.39559 1.28,9.433 -1.02618,1.91743 -2.23939,2.37701 -4.66667,1.7678 -2.00678,-0.50367 -3.27999,-0.24955 -3.27999,0.65466 0,0.81283 -0.6,1.47787 -1.33334,1.47787 -0.73333,0 -1.33333,-0.9 -1.33333,-2 z m 10.39768,-6.54999 c -0.26022,-1.82127 -1.43464,-2.83563 -3.39768,-2.93463 -3.10105,-0.15638 -4.00535,1.37257 -1.66667,2.81796 0.73334,0.45322 1.33334,2.0621 1.33334,3.57528 0,2.33248 0.3142,2.49047 2.06434,1.03798 1.13539,-0.94228 1.88539,-2.96575 1.66667,-4.49659 z m -3.73101,-0.78339 c 0,-0.73333 0.63541,-1.33333 1.41202,-1.33333 0.77661,0 1.0412,0.6 0.58798,1.33333 -0.45323,0.73333 -1.08864,1.33333 -1.41203,1.33333 -0.32338,0 -0.58797,-0.6 -0.58797,-1.33333 z m 7.15364,-6 c 0.004,-7.33333 0.22737,-10.16322 0.49756,-6.28864 0.27019,3.87459 0.26735,9.87459 -0.006,13.33334 -0.2737,3.45875 -0.49477,0.28863 -0.4913,-7.0447 z m 26.1797,9.33333 c 0,-1.1 0.6,-2 1.33333,-2 0.73333,0 1.33333,0.9 1.33333,2 0,1.1 -0.6,2 -1.33333,2 -0.73333,0 -1.33333,-0.9 -1.33333,-2 z m -17.14236,-0.52041 c -1.11234,-0.70482 -1.29451,-1.46423 -0.47304,-1.97193 0.73478,-0.45412 1.68001,0.0709 2.1005,1.16667 0.88351,2.30238 0.80029,2.34355 -1.62746,0.80526 z m 9.91573,-1.36167 c -1.44856,-1.60065 -2.09573,-3.95658 -1.73976,-6.33334 0.54946,-3.66861 0.57295,-3.6518 0.76661,0.54876 0.10988,2.38333 0.83519,4.33333 1.6118,4.33333 0.77661,0 1.03858,-0.60424 0.58216,-1.34275 -1.23859,-2.00408 3.26953,-3.26214 5.09544,-1.42197 1.21831,1.22784 0.97045,1.36297 -1.08962,0.59407 -2.36911,-0.88424 -2.46248,-0.74428 -0.83674,1.25434 1.55101,1.90676 1.55101,2.25276 0,2.27006 -1.43732,0.016 -1.40083,0.29772 0.17007,1.31292 1.74922,1.13043 1.73333,1.29506 -0.12668,1.31291 -1.16968,0.0112 -3.16465,-1.12652 -4.43328,-2.52833 z m -15.44005,-0.007 c 0,-0.67222 0.75,-1.52654 1.66667,-1.89849 1.2612,-0.51174 1.1895,-1.0077 -0.29472,-2.03861 -1.07876,-0.74929 -1.44662,-1.84497 -0.81746,-2.43484 0.62916,-0.58988 1.42013,-0.29746 1.75772,0.64982 0.47145,1.32292 1.0475,1.36236 2.48413,0.17007 1.47877,-1.22728 1.87034,-1.08288 1.87034,0.68971 0,1.23307 -0.55681,1.89782 -1.23734,1.47723 -0.68054,-0.4206 -1.62097,0.44399 -2.08986,1.92131 -0.8518,2.68378 -3.33948,3.77421 -3.33948,1.4638 z m 0,-14.1898 c 0,-1.14327 0.55681,-1.73456 1.23734,-1.31397 0.68054,0.4206 1.62097,-0.44399 2.08985,-1.92131 0.87322,-2.75125 3.33949,-3.75024 3.33949,-1.35269 0,0.73333 -0.55957,1.33333 -1.24349,1.33333 -0.68391,0 -1.62435,1.2 -2.08985,2.66667 -1.0014,3.15511 -3.33334,3.56645 -3.33334,0.58797 z m 4.66668,0.74536 c 0.45322,-0.73333 1.08863,-1.33333 1.41202,-1.33333 0.32339,0 0.58798,0.6 0.58798,1.33333 0,0.73333 -0.63542,1.33333 -1.41203,1.33333 -0.77661,0 -1.0412,-0.6 -0.58797,-1.33333 z m -5.06357,-5.77778 c -0.37521,-0.97778 0.1606,-1.77778 1.19068,-1.77778 1.03008,0 1.87288,0.8 1.87288,1.77778 0,0.97778 -0.53581,1.77778 -1.19068,1.77778 -0.65488,0 -1.49767,-0.8 -1.87288,-1.77778 z m -4.34157,-5.00506 c -0.49272,-0.79723 -0.22813,-2.11723 0.58797,-2.93334 1.08955,-1.08954 1.48383,-0.70438 1.48383,1.44951 0,3.21935 -0.69261,3.7154 -2.0718,1.48383 z m 3.84957,-3.2542 c 0,-2.30497 2.44418,-1.96376 3.25,0.45371 0.29028,0.87083 -0.32222,1.58333 -1.36111,1.58333 -1.03889,0 -1.88889,-0.91667 -1.88889,-2.03704 z m 2.88889,-1.25652 c -3.09027,-3.49045 -3.92238,-6.03977 -1.97141,-6.03977 0.74905,0 2.04536,1.5 2.88069,3.33333 0.83532,1.83333 2.02246,3.33333 2.63808,3.33333 0.61562,0 1.11932,0.6 1.11932,1.33334 0,2.07136 -1.74698,1.33754 -4.66668,-1.96023 z m -17.37599,0.55787 c -0.67421,-1.0909 -0.0199,-1.28978 2.20902,-0.67145 3.05858,0.84848 3.07839,0.80773 0.5788,-1.19049 -1.42349,-1.13797 -3.37349,-2.06904 -4.33333,-2.06904 -0.95984,0 -1.74516,-0.9 -1.74516,-2 0,-1.1 0.93541,-2 2.07869,-2 1.14328,0 1.73349,0.55854 1.31158,1.24121 -0.42191,0.68266 -0.21732,1.58099 0.45464,1.99628 0.67197,0.4153 1.20784,-1.49325 1.19084,-4.2412 -0.0217,-3.50826 -0.31059,-4.22844 -0.96999,-2.41812 -0.64341,1.7664 -1.24619,2.08126 -1.91445,1 -0.53645,-0.86799 -0.50682,-2.32817 0.0658,-3.24483 1.77574,-2.84247 1.63113,-5 -0.33513,-5 -1.03511,0 -1.88202,-0.9 -1.88202,-2 0,-1.1 0.94767,-2 2.10594,-2 1.66212,0 1.92607,-0.91324 1.25243,-4.33334 -0.62142,-3.15505 -0.48441,-3.79312 0.5039,-2.3466 1.02812,1.50479 1.23175,1.01964 0.83943,-2 -0.28488,-2.1927 -0.56849,-5.18673 -0.63025,-6.6534 -0.0934,-2.2181 -0.3297,-2.33024 -1.40478,-0.66666 -1.11438,1.72437 -1.29531,1.68985 -1.31292,-0.25047 -0.0125,-1.3755 0.94045,-2.17809 2.45099,-2.0643 1.76494,0.13294 2.50274,1.28805 2.58101,4.04084 0.12246,4.30704 4.1334,8.2277 6.26977,6.12865 0.87081,-0.8556 0.64321,-1.72836 -0.66666,-2.55649 -1.44858,-0.91582 -1.51472,-1.26295 -0.2435,-1.27782 0.95994,-0.0112 1.37747,-0.61566 0.92783,-1.34319 -0.44963,-0.72752 -0.20329,-2.37752 0.54744,-3.66666 1.00433,-1.72464 1.31928,0.47421 1.19211,8.32277 -0.0951,5.86667 -0.41568,8.70528 -0.71249,6.30802 -0.2968,-2.39725 -1.05932,-4.03747 -1.69448,-3.64492 -0.63516,0.39255 -1.53171,0.10394 -1.99233,-0.64135 -1.26442,-2.04589 -3.36664,-1.62497 -2.54736,0.51005 0.39364,1.02582 0.065,2.26728 -0.73026,2.7588 -0.79529,0.49151 -1.09765,1.45728 -0.67191,2.14614 0.42574,0.68887 -0.61447,1.80938 -2.31158,2.49002 -2.30705,0.92527 -2.49689,1.25887 -0.75233,1.32206 2.09692,0.076 2.94057,1.57205 2.49123,4.41785 -0.0868,0.55 0.48254,1 1.26529,1 0.81642,0 1.06234,1.13692 0.57681,2.66666 -0.86021,2.71029 0.41423,3.47944 2.76154,1.66667 0.71219,-0.55 0.20786,0.0159 -1.12071,1.25749 -2.32747,2.17513 -2.31634,2.31062 0.30512,3.71358 3.15741,1.6898 3.7138,4.32632 0.6662,3.15684 -1.28066,-0.49143 -1.90844,-0.12882 -1.66667,0.96266 0.4957,2.23791 -3.7177,3.22935 -4.98813,1.17374 z m 9.8507,-4.93098 c -0.27664,-1.28333 -0.14088,-5.33333 0.30169,-9 0.79571,-6.59254 0.80699,-6.5666 1.01413,2.33334 0.20448,8.78552 -0.30387,11.36113 -1.31582,6.66666 z m 9.5253,1 c 0,-0.73333 0.6,-1.33333 1.33333,-1.33333 0.73334,0 1.33334,0.6 1.33334,1.33333 0,0.73334 -0.6,1.33334 -1.33334,1.33334 -0.73333,0 -1.33333,-0.6 -1.33333,-1.33334 z m 9.33333,-2.58797 c 0,-0.69006 0.59313,-1.62122 1.31806,-2.06925 0.75582,-0.46712 0.97935,0.0681 0.52402,1.25464 -0.88639,2.30989 -1.84208,2.73252 -1.84208,0.81461 z m 4.85117,-0.74536 c 0.42211,-1.1 1.94613,-2 3.38672,-2 2.32823,0 2.39703,0.22222 0.61925,2 -1.1,1.1 -2.62402,2 -3.38672,2 -0.7627,0 -1.04136,-0.9 -0.61925,-2 z m -9.63718,-16.33349 c -0.0723,-7.87392 0.25982,-11.42262 0.84225,-8.99984 1.30868,5.44383 1.51721,22.00003 0.2771,21.99984 -0.55,-8e-5 -1.05371,-5.85008 -1.11935,-13 z m 4.06452,11.57812 c -1.36808,-2.21361 -0.14015,-2.52057 1.77406,-0.44348 0.94558,1.02603 1.13099,1.86552 0.41202,1.86552 -0.71896,0 -1.7027,-0.63992 -2.18608,-1.42204 z m 5.57266,-0.57796 c -0.42211,-1.1 -0.18631,-2 0.52401,-2 0.71032,0 1.29149,0.556 1.29149,1.23556 0,0.67957 1.05,1.50997 2.33333,1.84534 1.84051,0.48097 1.72983,0.64243 -0.52401,0.76443 -1.57154,0.0851 -3.20271,-0.74533 -3.62482,-1.84533 z m -19.51784,-1.41203 c 0,-1.14327 0.6,-1.70787 1.33333,-1.25464 0.73334,0.45323 1.33334,1.38863 1.33334,2.07869 0,0.69005 -0.6,1.25464 -1.33334,1.25464 -0.73333,0 -1.33333,-0.93541 -1.33333,-2.07869 z m 3.33333,-0.58797 c -0.4655,-1.46667 -1.40593,-2.66667 -2.08985,-2.66667 -0.68391,0 -1.24348,-0.9 -1.24348,-2 0,-1.1 0.6,-2 1.33333,-2 0.73334,0 1.33334,0.9 1.33334,2 0,1.1 0.63541,2 1.41202,2 0.77661,0 1.04121,-0.6 0.58798,-1.33333 -0.90901,-1.47081 1.04338,-1.84552 2.42372,-0.46517 0.47749,0.47749 -0.17251,1.68618 -1.44444,2.68598 -1.49553,1.17554 -1.66486,1.69321 -0.47928,1.46517 1.00834,-0.19396 2.10834,0.39735 2.44445,1.31402 0.33611,0.91666 -0.29846,1.66666 -1.41015,1.66666 -1.1117,0 -2.40213,-1.2 -2.86764,-2.66666 z m 13.20354,-2.8767 c -0.65018,-1.05201 -0.0608,-1.30984 1.85112,-0.80985 1.90184,0.49734 2.99242,0.0283 3.38716,-1.45663 0.39241,-1.47624 0.6326,-1.21226 0.73685,0.80984 0.11002,2.13383 -0.59254,3 -2.43331,3 -1.42338,0 -3.01721,-0.69451 -3.54182,-1.54336 z m -3.20353,-2.04732 c 0,-1.41181 2.94445,-3.07598 5.44238,-3.07598 0.67336,0 1.22429,0.66419 1.22429,1.47598 0,0.81179 -0.82689,1.15868 -1.83753,0.77086 -1.01064,-0.38782 -2.51064,-0.032 -3.33333,0.79068 -1.05861,1.05861 -1.49581,1.06985 -1.49581,0.0385 z m -21.33334,-2.99729 c 0,-0.69006 0.59313,-1.62122 1.31806,-2.06925 0.75582,-0.46712 0.97934,0.0681 0.52402,1.25464 -0.88639,2.30989 -1.84208,2.73252 -1.84208,0.81461 z m 30.18157,-2.07103 c 0.42049,-1.09579 1.30166,-1.66038 1.95815,-1.25465 1.88256,1.16349 1.39198,3.24699 -0.76453,3.24699 -1.18945,0 -1.65803,-0.78213 -1.19362,-1.99234 z m -6.92672,-1.34427 c -2.18375,-1.69024 -2.22121,-1.87539 -0.23972,-1.18488 1.71921,0.59912 2.14142,0.27888 1.57576,-1.19519 -1.007,-2.62422 1.85719,-4.37217 3.85862,-2.35482 1.18268,1.19208 0.96018,1.33797 -0.93795,0.61498 -2.1805,-0.83054 -2.30425,-0.60366 -1,1.83335 2.58892,4.83744 1.25183,5.77622 -3.25671,2.28656 z m -15.7139,-1.39031 c 0.40616,-1.05844 1.27561,-1.59247 1.9321,-1.18674 1.65347,1.02191 1.50127,1.51029 -0.73848,2.36977 -1.28881,0.49456 -1.68622,0.10067 -1.19362,-1.18303 z m 5.22096,-0.035 c -1.15239,-1.15237 -2.09524,-2.68778 -2.09524,-3.41201 0,-0.72423 -0.53713,-0.98482 -1.19362,-0.57909 -0.65649,0.40574 -1.57062,-0.24473 -2.03139,-1.44548 -1.14065,-2.97249 -0.14931,-3.65202 2.07818,-1.42452 1.01052,1.01052 2.58195,1.58909 3.49207,1.28572 0.91012,-0.30338 1.65476,0.13382 1.65476,0.97154 0,0.83772 -0.6,1.15232 -1.33333,0.69909 -0.73334,-0.45323 -1.33334,-0.18863 -1.33334,0.58798 0,0.77661 0.53581,1.41202 1.19069,1.41202 0.65487,0 1.53604,0.9 1.95815,2 0.98404,2.56435 0.2431,2.53479 -2.38693,-0.0952 z m -22.80329,-4.63838 c -1.26696,-2.04998 0.46846,-3.37262 2.17978,-1.6613 0.95757,0.95757 0.98058,1.70336 0.0699,2.26619 -0.74656,0.4614 -1.75892,0.1892 -2.24969,-0.60489 z m 31.37472,-2.59969 c 0,-0.73334 0.63541,-1.33334 1.41202,-1.33334 0.77661,0 1.0412,0.6 0.58798,1.33334 -0.45323,0.73332 -1.08864,1.33332 -1.41202,1.33332 -0.32339,0 -0.58798,-0.6 -0.58798,-1.33333 z m 4.68011,-0.0217 c 0.46062,-0.74529 1.39602,-1.00989 2.07869,-0.58798 1.84939,1.14299 1.50454,1.94306 -0.83749,1.94306 -1.14328,0 -1.70182,-0.60979 -1.2412,-1.35508 z m -25.87959,-3.58434 c 0.97086,-1.61665 2.05219,-2.65237 2.40297,-2.30159 0.35077,0.35078 -0.44356,1.67349 -1.7652,2.93936 -2.29592,2.19905 -2.32433,2.17064 -0.63777,-0.63777 z m 17.68491,-5.24673 c 0.46635,-3.40236 0.95793,-9.55236 1.09241,-13.66667 0.21586,-6.60407 0.33303,-6.23076 1,3.18609 0.85075,12.01155 0.40911,16.66667 -1.58118,16.66667 -0.84982,0 -1.04139,-2.31811 -0.51123,-6.18609 z m 9.29235,4.18609 c 0,-1.1 0.83541,-2 1.85646,-2 1.02106,0 1.51732,0.54875 1.10281,1.21945 -0.41452,0.6707 7e-5,1.52333 0.92131,1.89474 0.92123,0.37141 0.42497,0.72265 -1.10281,0.78055 -1.62703,0.0617 -2.77777,-0.72328 -2.77777,-1.89474 z m -20.44445,0.0992 c 0,-1.59268 7.93862,-8.6105 8.57517,-7.58054 0.42613,0.68949 0.021,1.55919 -0.90019,1.93266 -1.26851,0.51425 -1.19234,1.01376 0.31388,2.05836 1.58394,1.0985 1.6518,1.71637 0.33333,3.03484 -1.31847,1.31847 -1.65552,1.19405 -1.65552,-0.61115 0,-1.24666 -0.60001,-2.26666 -1.33334,-2.26666 -0.73333,0 -1.33333,0.5358 -1.33333,1.19068 0,0.65487 -0.9,1.53604 -2,1.95815 -1.1,0.42211 -2,0.54976 -2,0.28366 z m -13.33334,-5.43249 c 0,-1.1 0.23581,-2 0.52402,-2 0.28821,0 0.86938,0.9 1.29149,2 0.42211,1.1 0.1863,2 -0.52402,2 -0.71032,0 -1.29149,-0.9 -1.29149,-2 z m 10.77193,-0.11111 c 0.064,-1.55326 0.37992,-1.8692 0.80556,-0.80556 0.38516,0.9625 0.33779,2.1125 -0.10527,2.55556 -0.44305,0.44305 -0.75819,-0.34445 -0.70029,-1.75 z m 21.85585,-0.433 c 0.99327,-3.12952 -0.48261,-3.63206 -3.2968,-1.12256 -1.59004,1.41788 -1.60547,1.31837 -0.10341,-0.66667 2.47327,-3.26852 5.4352,-2.90684 5.45952,0.66667 0.0169,2.48442 0.2635,2.65628 1.43484,1 1.25726,-1.77778 1.35383,-1.77778 0.86909,0 -0.29993,1.1 -1.60355,2.20515 -2.89692,2.45589 -1.84517,0.35772 -2.16095,-0.14478 -1.46633,-2.33333 z m -36.62778,-1.45589 c 0,-0.73334 0.6,-1.33334 1.33334,-1.33334 0.73333,0 1.33333,0.6 1.33333,1.33334 0,0.73333 -0.6,1.33333 -1.33333,1.33333 -0.73334,0 -1.33334,-0.6 -1.33334,-1.33333 z m 18.66667,-0.62482 c 0,-1.18945 0.78213,-1.65803 1.99234,-1.19362 1.09579,0.42049 1.66038,1.30166 1.25465,1.95815 -1.16349,1.88256 -3.24699,1.39199 -3.24699,-0.76453 z m -11.98591,-2.69154 c -0.90517,-1.09066 -1.30459,-2.8721 -0.8876,-3.95875 1.01556,-2.64649 -2.08124,-8.40664 -4.14905,-7.71737 -0.90426,0.30142 -1.64411,-0.10196 -1.64411,-0.89641 0,-0.79444 2.25,-1.43526 5,-1.42403 3.08366,0.0125 4.34546,0.43576 3.29222,1.10411 -1.70971,1.0849 -1.49622,7.75526 0.40143,12.54214 1.13182,2.85506 0.2004,3.01716 -2.01289,0.35031 z m 3.98591,0.74746 c 0,-0.78711 0.48418,-1.4311 1.07594,-1.4311 0.59177,0 1.69716,-1.65 2.45641,-3.66667 1.36437,-3.6239 1.37717,-3.61224 1.09717,1 -0.18786,3.0946 -1.01536,4.81189 -2.45641,5.09777 -1.19521,0.2371 -2.17311,-0.2129 -2.17311,-1 z m -9.98656,-1.45285 c 0.46062,-0.7453 1.39603,-1.00989 2.07869,-0.58798 1.84939,1.14299 1.50455,1.94306 -0.83749,1.94306 -1.14327,0 -1.70182,-0.60979 -1.2412,-1.35508 z m 40.65323,-0.72361 c 0,-1.14328 0.60979,-1.70182 1.35508,-1.2412 0.7453,0.46062 1.00989,1.39603 0.58798,2.07869 -1.14298,1.84939 -1.94306,1.50455 -1.94306,-0.83749 z m -7.26351,-1.84415 c -1.28891,-1.42423 -2.02927,-3.37423 -1.64525,-4.33333 0.46692,-1.16611 0.73311,-0.99688 0.8035,0.51083 0.0579,1.24005 0.80722,2.68848 1.66518,3.21872 1.05583,0.65254 1.27853,0.2308 0.68915,-1.30512 -1.0801,-2.81468 2.59099,-4.53345 4.84055,-2.2663 1.21764,1.22716 1.02985,1.381 -0.82401,0.67507 -2.04802,-0.77986 -2.27183,-0.39938 -1.52213,2.58767 1.03962,4.14216 -0.72126,4.54315 -4.00699,0.91246 z m -11.9315,-2.19747 c -0.96501,-2.51478 0.0596,-4.55439 2.2737,-4.52593 1.13035,0.0145 1.09466,0.33344 -0.12385,1.1066 -0.94369,0.59878 -1.3284,2.08539 -0.85735,3.31292 0.46997,1.2247 0.55448,2.22673 0.18781,2.22673 -0.36667,0 -1.03281,-0.95415 -1.48031,-2.12032 z m -7.95383,-5.213 c -0.42211,-1.1 -0.1863,-2 0.52402,-2 0.71031,0 1.29148,0.9 1.29148,2 0,1.1 -0.2358,2 -0.52401,2 -0.28821,0 -0.86938,-0.9 -1.29149,-2 z m 23.59329,-1.33335 c 0,-1.1 1.14285,-2 2.53968,-2 2.25749,0 2.31746,0.22222 0.53968,2 -1.1,1.1 -2.24286,2 -2.53968,2 -0.29683,0 -0.53968,-0.9 -0.53968,-2 z m -22.11112,-4.31661 c 3.85,-0.26933 10.15001,-0.26933 14.00001,0 3.85,0.26934 0.7,0.48971 -7.00001,0.48971 -7.7,0 -10.85,-0.22037 -7,-0.48971 z m -4.64659,-2.77033 c -2.28669,-1.45244 -3.64549,-9.03606 -1.82107,-10.16362 0.83701,-0.5173 1.46766,0.0199 1.46766,1.25032 0,1.18656 0.6,1.78656 1.33333,1.33333 0.73334,-0.45322 1.33334,0.14678 1.33334,1.33333 0,1.22487 -0.63173,1.76695 -1.46151,1.25412 -0.90715,-0.56065 -1.28213,0.0417 -0.9886,1.58798 0.50739,2.67289 7.78344,4.46131 7.78344,1.91313 0,-0.78204 -0.75,-1.27189 -1.66667,-1.08856 -0.91666,0.18333 -1.66666,-0.81667 -1.66666,-2.22222 0,-1.40556 0.765,-2.71056 1.7,-2.9 0.935,-0.18945 1.085,-0.0394 0.33333,0.33333 -2.7256,1.35172 -1.31314,3.03645 1.63333,1.94818 1.65,-0.60942 4.80001,-0.91583 7.00001,-0.68092 2.99858,0.32019 3.35454,0.16273 1.42183,-0.62895 -1.63048,-0.66789 -2.03757,-1.39018 -1.10749,-1.965 0.80887,-0.49991 2.41904,0.0394 3.57817,1.19856 1.21314,1.21315 2.10749,1.46786 2.10749,0.60024 0,-0.829 0.55459,-1.16451 1.23242,-0.74559 0.67784,0.41893 1.52942,-0.29566 1.89241,-1.58797 0.363,-1.29231 0.5584,0.30371 0.43425,3.54671 -0.13642,3.56303 -0.89848,6.02972 -1.92575,6.23334 -0.935,0.18532 -1.085,0.032 -0.33333,-0.34082 0.75167,-0.37278 1.36667,-1.84889 1.36667,-3.28025 0,-2.22191 -0.40518,-2.38562 -2.77086,-1.11955 -1.52397,0.81561 -3.62397,1.15555 -4.66667,0.75543 -1.1706,-0.44921 -1.93166,0.14907 -1.98952,1.56399 -0.0843,2.06215 -0.18922,2.04925 -1.04796,-0.12883 -0.9021,-2.28804 -1.09046,-2.26982 -3.44628,0.33333 -2.54601,2.81331 -6.77838,3.53876 -9.72531,1.66696 z m 8.97992,-9.57997 c 0,-0.73333 0.9,-1.33333 2,-1.33333 1.1,0 2.00001,0.6 2.00001,1.33333 0,0.73333 -0.90001,1.33333 -2.00001,1.33333 -1.1,0 -2,-0.6 -2,-1.33333 z"
         style="fill:#000000;stroke-width:1.33333" />
    </g>
  </g>
</svg>
